<svg id="Capa_1" enable-background="new 0 0 512 512" height="35px" viewBox="0 0 512 512" width="35px" xmlns="http://www.w3.org/2000/svg"><g><path d="m380.25 471.207-124.245-215.199-23.988 86.36c26.098 61.17 78.941 110.267 148.233 128.839z" fill="#6d985c"/><path d="m380.25 471.207c18.585-69.296 2.508-139.53-37.42-192.72l-86.824-22.483c-.001.004 1.343 71.739 1.343 71.739 29.26 59.344 73.7 113.292 122.901 143.464z" fill="#83ae60"/><path d="m504.5 256.007h-248.49l62.796 63.955c66.023 7.982 134.963-13.232 185.694-63.955z" fill="#6d985c"/><path d="m504.5 256.007c-50.719-50.743-119.583-71.937-185.611-63.953l-62.883 63.95c.003.003 62.799 34.706 62.799 34.706 66.024 4.332 134.964-7.18 185.695-34.703z" fill="#83ae60"/><path d="m380.256 40.804-124.246 215.199 86.785-22.406c39.925-53.186 56.023-123.498 37.461-192.793z" fill="#6d985c"/><path d="m380.256 40.804c-69.304 18.553-122.09 67.593-148.191 128.767l23.941 86.433c.004-.001 61.456-37.033 61.456-37.033 36.763-55.012 61.264-120.472 62.794-178.167z" fill="#83ae60"/><path d="m131.762 40.801 124.245 215.199 23.988-86.36c-26.098-61.17-78.94-110.267-148.233-128.839z" fill="#6d985c"/><path d="m131.762 40.801c-18.585 69.296-2.508 139.53 37.42 192.72l86.824 22.483c.001-.004-1.343-71.739-1.343-71.739-29.26-59.344-73.7-113.292-122.901-143.464z" fill="#83ae60"/><path d="m7.513 256.001h248.49l-62.796-63.955c-66.023-7.983-134.964 13.232-185.694 63.955z" fill="#6d985c"/><path d="m7.513 256.001c50.719 50.743 119.583 71.937 185.611 63.953l62.883-63.95c-.003-.003-62.799-34.706-62.799-34.706-66.024-4.332-134.965 7.179-185.695 34.703z" fill="#83ae60"/><path d="m131.757 471.204 124.245-215.199-86.785 22.406c-39.924 53.186-56.022 123.498-37.46 192.793z" fill="#6d985c"/><path d="m131.757 471.204c69.304-18.553 122.09-67.593 148.191-128.767l-23.941-86.433c-.004.001-61.456 37.033-61.456 37.033-36.764 55.011-61.265 120.472-62.794 178.167z" fill="#83ae60"/><path d="m40.808 131.756 215.199 124.245-22.406-86.785c-53.186-39.925-123.498-56.023-192.793-37.46z" fill="#e44c53"/><path d="m40.808 131.756c18.553 69.304 67.593 122.09 128.767 148.191l86.433-23.941c-.001-.004-37.033-61.456-37.033-61.456-55.011-36.764-120.472-61.265-178.167-62.794z" fill="#fb6449"/><path d="m256.005 504.498v-248.49l-63.955 62.796c-7.982 66.024 13.232 134.964 63.955 185.694z" fill="#e44c53"/><path d="m256.005 504.498c50.743-50.719 71.937-119.583 63.953-185.611l-63.95-62.883c-.003.003-34.706 62.799-34.706 62.799-4.332 66.025 7.18 134.965 34.703 185.695z" fill="#fb6449"/><path d="m471.211 131.761-215.198 124.245 86.36 23.988c61.169-26.098 110.266-78.941 128.838-148.233z" fill="#e44c53"/><path d="m471.211 131.761c-69.296-18.585-139.53-2.508-192.72 37.42l-22.483 86.824c.004.001 71.739-1.343 71.739-1.343 59.344-29.26 113.292-73.7 143.464-122.901z" fill="#fb6449"/><path d="m256.011 7.512v248.49l63.955-62.796c7.983-66.024-13.232-134.964-63.955-185.694z" fill="#fb8151"/><path d="m256.011 7.512c-50.743 50.719-71.937 119.583-63.953 185.611l63.95 62.883c.003-.003 34.706-62.799 34.706-62.799 4.332-66.025-7.179-134.965-34.703-185.695z" fill="#fb9c59"/><path d="m40.805 380.249 215.199-124.245-86.36-23.988c-61.17 26.098-110.267 78.941-128.839 148.233z" fill="#fb8151"/><path d="m40.805 380.249c69.296 18.585 139.53 2.508 192.72-37.42l22.483-86.824c-.004-.001-71.739 1.343-71.739 1.343-59.343 29.26-113.292 73.7-143.464 122.901z" fill="#fb9c59"/><path d="m471.208 380.254-215.199-124.245 22.406 86.784c53.187 39.926 123.498 56.024 192.793 37.461z" fill="#fb8151"/><path d="m471.208 380.254c-18.553-69.304-67.593-122.09-128.767-148.191l-86.433 23.941c.001.004 37.033 61.456 37.033 61.456 55.012 36.764 120.472 61.265 178.167 62.794z" fill="#fb9c59"/><g fill="#e44c53"><path d="m155.111 197.751c9.509 35.49 32.471 63.746 61.927 80.753l38.97-67.499c-29.456-17.006-65.407-22.763-100.897-13.254z"/><path d="m256 372.497c25.98-25.98 38.971-59.994 38.971-94.007h-77.941c-.001 34.013 12.99 68.026 38.97 94.007z"/><path d="m356.889 197.752c-35.49-9.51-71.441-3.753-100.897 13.254l38.971 67.499c29.456-17.007 52.417-45.264 61.926-80.753z"/></g><path d="m256 139.503c-25.98 25.98-38.971 59.994-38.971 94.007h77.941c.001-34.014-12.989-68.027-38.97-94.007z" fill="#fb6449"/><path d="m155.111 314.248c35.49 9.51 71.441 3.753 100.897-13.254l-38.971-67.499c-29.456 17.007-52.417 45.263-61.926 80.753z" fill="#fb6449"/><path d="m356.889 314.248c-9.509-35.49-32.471-63.746-61.927-80.753l-38.97 67.499c29.456 17.007 65.407 22.764 100.897 13.254z" fill="#fb6449"/><circle cx="256" cy="256" fill="#fb8151" r="45"/><circle cx="256" cy="256" fill="#fbcf72" r="15"/><path d="m256 233.5c-12.407 0-22.5 10.093-22.5 22.5s10.093 22.5 22.5 22.5c12.406 0 22.5-10.093 22.5-22.5s-10.094-22.5-22.5-22.5zm0 30c-4.136 0-7.5-3.364-7.5-7.5s3.364-7.5 7.5-7.5 7.5 3.364 7.5 7.5-3.364 7.5-7.5 7.5z"/><path d="m509.804 250.696c-18.902-18.902-40.553-34.164-64.451-45.48 14.941-21.65 26.214-45.833 33.098-71.525.516-1.921.246-3.968-.749-5.691-.994-1.723-2.633-2.979-4.554-3.495-25.698-6.885-52.28-9.214-78.496-7.099 2.148-26.362-.242-52.743-7.159-78.555-1.071-4.001-5.183-6.373-9.186-5.303-25.769 6.905-49.769 17.994-71.484 32.986-11.206-23.539-26.487-45.303-45.521-64.337-2.93-2.929-7.678-2.928-10.607 0-19.036 19.036-34.317 40.802-45.52 64.344-21.723-14.998-45.723-26.089-71.486-32.993-1.92-.514-3.968-.245-5.691.75s-2.979 2.633-3.495 4.554c-6.913 25.799-9.306 52.158-7.167 78.488-26.224-2.108-52.763.274-78.486 7.166-1.921.515-3.56 1.772-4.554 3.495s-1.264 3.77-.75 5.691c6.886 25.698 18.16 49.883 33.1 71.529-23.905 11.321-45.556 26.581-64.451 45.477-2.929 2.929-2.929 7.678 0 10.606 18.865 18.866 40.468 34.105 64.309 45.414-14.783 21.474-25.99 45.59-32.957 71.592-1.072 4.001 1.302 8.113 5.304 9.186 19.953 5.346 40.187 7.976 60.268 7.975 6.091 0 12.166-.245 18.215-.727-2.127 26.312.268 52.643 7.171 78.405.515 1.921 1.772 3.56 3.495 4.554 1.15.664 2.445 1.005 3.75 1.005.65 0 1.303-.084 1.941-.255 25.821-6.919 49.864-18.039 71.612-33.076 11.279 23.764 26.585 45.619 45.393 64.427 1.407 1.406 3.315 2.196 5.304 2.196s3.896-.79 5.304-2.197c18.812-18.812 34.12-40.668 45.396-64.43 21.755 15.041 45.796 26.162 71.608 33.079.639.171 1.291.255 1.941.255 1.305 0 2.6-.341 3.75-1.005 1.723-.995 2.979-2.632 3.494-4.554 6.906-25.771 9.302-52.1 7.176-78.401 6.041.48 12.108.724 18.191.724 20.084 0 40.33-2.63 60.287-7.978 4.001-1.072 6.375-5.185 5.303-9.186-6.967-26.003-18.177-50.12-32.963-71.593 23.85-11.314 45.455-26.553 64.316-45.413 2.93-2.927 2.93-7.676.001-10.605zm-47.948-113.547c-13.371 43.632-40.382 82.162-76.87 109.61-10.112-6.846-20.838-12.943-32.11-18.219 4.78-9.138 8.571-18.814 11.259-28.846.515-1.921.246-3.969-.749-5.691-.994-1.723-2.633-2.979-4.554-3.495-10.023-2.686-20.289-4.24-30.583-4.671 1.063-12.4 1.143-24.736.268-36.916 41.993-17.882 88.859-22.012 133.339-11.772zm-205.856 224.404c-10.772-12.187-19.088-26.367-24.435-41.637 8.378-2.642 16.557-6.09 24.442-10.334 7.881 4.244 16.057 7.686 24.43 10.328-5.347 15.272-13.665 29.455-24.437 41.643zm-91.411-158.329c15.94-3.234 32.378-3.347 48.276-.343-1.901 8.576-3.004 17.384-3.272 26.334-7.615 4.703-14.688 10.058-21.163 15.989-10.55-12.267-18.672-26.561-23.841-41.98zm91.482 90.274c-.021 0-.042-.004-.063-.004-.022 0-.045.004-.067.004-20.651-.032-37.441-16.84-37.441-37.498 0-20.678 16.822-37.5 37.5-37.5s37.5 16.822 37.5 37.5c0 20.654-16.784 37.459-37.429 37.498zm-.071-89.998c-11.047 0-21.302 3.438-29.768 9.288 3.827-23.113 14.037-44.6 29.768-62.35 15.732 17.75 25.942 39.237 29.769 62.351-8.467-5.851-18.722-9.289-29.769-9.289zm-52.32 48.339c-.108 1.374-.18 2.759-.18 4.161 0 20.876 12.249 38.941 29.936 47.395-21.923 8.235-45.626 10.133-68.855 5.385 7.505-22.499 21.003-42.078 39.099-56.941zm74.886 51.555c17.686-8.455 29.934-26.519 29.934-47.394 0-1.402-.072-2.787-.18-4.161 18.096 14.863 31.594 34.443 39.099 56.942-23.234 4.749-46.936 2.85-68.853-5.387zm45.004-58.189c-6.475-5.931-13.549-11.287-21.163-15.99-.267-8.95-1.371-17.759-3.272-26.335 15.901-3.004 32.341-2.89 48.277.343-5.169 15.42-13.291 29.714-23.842 41.982zm51.284-195.066c5.259 22.736 6.796 45.885 4.594 68.996-17.953 2.647-35.615 7.402-52.579 14.229-2.545-18.159-7.236-35.862-13.949-52.791 18.877-13.417 39.654-23.633 61.934-30.434zm-118.854-31.847c42.298 45.323 62.909 105.737 57.187 167.728-6.077.396-12.125 1.19-18.103 2.377-6.829-20.18-18.262-38.681-33.78-54.198-1.407-1.407-3.314-2.197-5.304-2.197s-3.897.79-5.303 2.197c-15.518 15.518-26.951 34.019-33.78 54.198-5.969-1.185-12.006-1.978-18.073-2.375-5.745-61.988 14.857-122.405 57.156-167.73zm-95.706 122.246c3.972 1.182 8.146-1.079 9.328-5.049s-1.079-8.146-5.049-9.328c-10.531-3.134-21.234-5.493-32.029-7.087-2.193-23.082-.653-46.212 4.603-68.935 22.275 6.801 43.053 17.019 61.937 30.441-13.057 32.944-18.436 68.826-15.302 105.254-10.303.429-20.578 1.984-30.611 4.672-4.001 1.072-6.375 5.185-5.303 9.186 2.685 10.023 6.472 19.69 11.246 28.82-11.27 5.28-21.994 11.378-32.104 18.226-36.481-27.425-63.491-65.95-76.864-109.591 36.441-8.405 74.359-7.26 110.148 3.391zm-142.001 115.462c17.06-15.922 36.34-28.827 57.454-38.476 11.268 14.224 24.218 27.143 38.612 38.42-14.453 11.284-27.439 24.197-38.743 38.475-21.057-9.638-40.293-22.524-57.323-38.419zm31.847 118.853c18.102-59.293 60.117-107.35 116.664-133.389 3.381 5.064 7.092 9.904 11.11 14.488-14.061 16.001-24.366 35.153-30.047 56.354-1.072 4.001 1.302 8.113 5.303 9.186 21.198 5.68 42.937 6.331 63.828 2.155 1.958 5.762 4.29 11.387 6.979 16.839-50.811 35.971-113.434 48.339-173.837 34.367zm87.007 87.008c-5.248-22.687-6.788-45.786-4.608-68.847 18.013-2.654 35.686-7.446 52.679-14.323 2.576 18.108 7.293 35.783 13.979 52.655-18.906 13.456-39.724 23.699-62.05 30.515zm118.853 31.84c-31.1-33.395-50.962-76.051-56.489-121.374 10.986-5.335 21.631-11.572 31.837-18.696 5.523 8.706 12.006 16.826 19.349 24.169 1.464 1.464 3.384 2.197 5.303 2.197s3.839-.732 5.304-2.197c7.335-7.335 13.812-15.446 19.331-24.142 10.208 7.121 20.854 13.354 31.841 18.686-5.511 45.305-25.368 87.956-56.476 121.357zm118.854-31.84c-22.319-6.814-43.135-17.058-62.048-30.519 6.683-16.867 11.395-34.537 13.965-52.637 16.999 6.875 34.677 11.666 52.695 14.317 2.179 23.049.638 46.147-4.612 68.839zm-86.843-121.347c2.696-5.462 5.033-11.098 6.994-16.871 8.944 1.788 18.042 2.705 27.191 2.704 12.213 0 24.515-1.607 36.635-4.854 4.001-1.072 6.375-5.185 5.303-9.186-5.68-21.201-15.985-40.353-30.045-56.354 4.01-4.577 7.716-9.409 11.093-14.464 56.557 26.019 98.578 74.069 116.68 133.364-60.404 13.971-123.028 1.612-173.851-34.339zm148.365-46.096c-11.304-14.272-24.288-27.181-38.74-38.458 14.397-11.286 27.348-24.211 38.618-38.44 21.108 9.645 40.388 22.552 57.453 38.479-17.026 15.892-36.265 28.776-57.331 38.419z"/></g></svg>