<svg width="63" height="136" viewBox="0 0 63 136" fill="none" xmlns="http://www.w3.org/2000/svg">
<path d="M45.5605 55.2196L31.0006 30.0009L28.1896 40.1212C31.2479 47.2896 37.4404 53.0432 45.5605 55.2196Z" fill="#6D985C"/>
<path d="M45.5605 55.2196C47.7385 47.0989 45.8544 38.8684 41.1754 32.6352L31.0008 30.0004C31.0007 30.0009 31.1581 38.4074 31.1581 38.4074C34.587 45.3617 39.7948 51.6838 45.5605 55.2196Z" fill="#83AE60"/>
<path d="M60.121 30.0008H31.0012L38.3601 37.4955C46.0971 38.4309 54.176 35.9449 60.121 30.0008Z" fill="#6D985C"/>
<path d="M60.121 30.0008C54.1774 24.0543 46.1075 21.5707 38.3698 22.5063L31.0008 30.0004C31.0011 30.0008 38.36 34.0675 38.36 34.0675C46.0971 34.5752 54.176 33.2261 60.121 30.0008Z" fill="#83AE60"/>
<path d="M45.5612 4.78165L31.0012 30.0003L41.1713 27.3746C45.85 21.1419 47.7365 12.9022 45.5612 4.78165Z" fill="#6D985C"/>
<path d="M45.5612 4.78165C37.4397 6.95584 31.2539 12.7027 28.1952 19.8716L31.0008 30.0004C31.0012 30.0003 38.2026 25.6606 38.2026 25.6606C42.5108 19.2139 45.382 11.5428 45.5612 4.78165Z" fill="#83AE60"/>
<path d="M16.441 4.7813L31.0009 30L33.812 19.8796C30.7536 12.7113 24.5612 6.95771 16.441 4.7813Z" fill="#6D985C"/>
<path d="M16.441 4.7813C14.2631 12.9019 16.1471 21.1325 20.8261 27.3657L31.0008 30.0004C31.0009 30 30.8434 21.5935 30.8434 21.5935C27.4145 14.6391 22.2067 8.31709 16.441 4.7813Z" fill="#83AE60"/>
<path d="M1.88063 30.0001H31.0004L23.6415 22.5053C15.9045 21.5698 7.82552 24.056 1.88063 30.0001Z" fill="#6D985C"/>
<path d="M1.88063 30.0001C7.82424 35.9465 15.8942 38.4302 23.6318 37.4946L31.0009 30.0004C31.0005 30.0001 23.6417 25.9333 23.6417 25.9333C15.9045 25.4257 7.82552 26.7746 1.88063 30.0001Z" fill="#83AE60"/>
<path d="M16.4404 55.2192L31.0003 30.0005L20.8302 32.6263C16.1517 38.859 14.2652 47.0987 16.4404 55.2192Z" fill="#6D985C"/>
<path d="M16.4404 55.2192C24.5619 53.045 30.7478 47.2981 33.8065 40.1293L31.0009 30.0004C31.0004 30.0005 23.799 34.3402 23.799 34.3402C19.4908 40.7868 16.6196 48.4581 16.4404 55.2192Z" fill="#83AE60"/>
<path d="M5.78237 15.4401L31.0009 30.0001L28.3752 19.83C22.1425 15.1512 13.9028 13.2647 5.78237 15.4401Z" fill="#E44C53"/>
<path d="M5.78237 15.4401C7.95654 23.5617 13.7034 29.7475 20.8722 32.8063L31.001 30.0007C31.0009 30.0002 26.6612 22.7988 26.6612 22.7988C20.2146 18.4905 12.5435 15.6193 5.78237 15.4401Z" fill="#FB6449"/>
<path d="M31.0006 59.1209V30.0009L23.506 37.3598C22.5706 45.097 25.0566 53.1759 31.0006 59.1209Z" fill="#E44C53"/>
<path d="M31.0006 59.1209C36.9471 53.1772 39.4307 45.1072 38.4951 37.3695L31.001 30.0004C31.0006 30.0008 26.9339 37.3597 26.9339 37.3597C26.4263 45.097 27.7753 53.1759 31.0006 59.1209Z" fill="#FB6449"/>
<path d="M56.22 15.4407L31.0016 30.0007L41.1219 32.8118C48.2901 29.7534 54.0436 23.5609 56.22 15.4407Z" fill="#E44C53"/>
<path d="M56.22 15.4407C48.0994 13.2628 39.8689 15.1468 33.6357 19.8258L31.001 30.0005C31.0015 30.0007 39.4079 29.8432 39.4079 29.8432C46.3622 26.4143 52.6842 21.2064 56.22 15.4407Z" fill="#FB6449"/>
<path d="M31.0014 0.880241V30.0002L38.496 22.6413C39.4316 14.9041 36.9454 6.82517 31.0014 0.880241Z" fill="#FB8151"/>
<path d="M31.0013 0.880241C25.0549 6.82388 22.5713 14.8939 23.5069 22.6316L31.001 30.0007C31.0014 30.0003 35.0681 22.6414 35.0681 22.6414C35.5757 14.9041 34.2268 6.82517 31.0013 0.880241Z" fill="#FB9C59"/>
<path d="M5.78202 44.5604L31.0005 30.0004L20.8803 27.1893C13.7119 30.2477 7.95842 36.4402 5.78202 44.5604Z" fill="#FB8151"/>
<path d="M5.78202 44.5604C13.9026 46.7383 22.1331 44.8543 28.3663 40.1753L31.001 30.0005C31.0005 30.0004 22.5941 30.1579 22.5941 30.1579C15.6399 33.5868 9.31779 38.7947 5.78202 44.5604Z" fill="#FB9C59"/>
<path d="M56.2196 44.561L31.0011 30.001L33.6268 40.171C39.8596 44.8499 48.0992 46.7364 56.2196 44.561Z" fill="#FB8151"/>
<path d="M56.2196 44.561C54.0455 36.4394 48.2986 30.2536 41.1298 27.1948L31.001 30.0004C31.0011 30.0009 35.3408 37.2023 35.3408 37.2023C41.7875 41.5106 49.4585 44.3818 56.2196 44.561Z" fill="#FB9C59"/>
<path d="M19.1772 23.1739C20.2915 27.3329 22.9824 30.6441 26.4342 32.6372L31.001 24.7271C27.5491 22.7342 23.3362 22.0596 19.1772 23.1739Z" fill="#E44C53"/>
<path d="M31.0001 43.652C34.0446 40.6074 35.567 36.6214 35.567 32.6355H26.4333C26.4332 36.6214 27.9555 40.6073 31.0001 43.652Z" fill="#E44C53"/>
<path d="M42.8229 23.174C38.664 22.0596 34.451 22.7342 30.9991 24.7272L35.566 32.6373C39.0179 30.6443 41.7086 27.3329 42.8229 23.174Z" fill="#E44C53"/>
<path d="M31.0001 16.348C27.9555 19.3925 26.4332 23.3785 26.4332 27.3644H35.5668C35.567 23.3784 34.0447 19.3925 31.0001 16.348Z" fill="#FB6449"/>
<path d="M19.1772 36.8259C23.3362 37.9404 27.5491 37.2657 31.001 35.2727L26.4341 27.3627C22.9823 29.3557 20.2915 32.6669 19.1772 36.8259Z" fill="#FB6449"/>
<path d="M42.8229 36.8259C41.7086 32.6669 39.0178 29.3557 35.5659 27.3627L30.9991 35.2727C34.451 37.2657 38.664 37.9404 42.8229 36.8259Z" fill="#FB6449"/>
<path d="M31.0001 35.2734C33.9125 35.2734 36.2735 32.9124 36.2735 30C36.2735 27.0875 33.9125 24.7265 31.0001 24.7265C28.0876 24.7265 25.7267 27.0875 25.7267 30C25.7267 32.9124 28.0876 35.2734 31.0001 35.2734Z" fill="#FB8151"/>
<path d="M31.0001 31.7578C31.9709 31.7578 32.7579 30.9708 32.7579 30C32.7579 29.0291 31.9709 28.2421 31.0001 28.2421C30.0293 28.2421 29.2423 29.0291 29.2423 30C29.2423 30.9708 30.0293 31.7578 31.0001 31.7578Z" fill="#FBCF72"/>
<path d="M31.0001 27.3632C29.5461 27.3632 28.3634 28.546 28.3634 30C28.3634 31.4539 29.5461 32.6367 31.0001 32.6367C32.4539 32.6367 33.6368 31.4539 33.6368 30C33.6368 28.546 32.4539 27.3632 31.0001 27.3632ZM31.0001 30.8789C30.5154 30.8789 30.1212 30.4847 30.1212 30C30.1212 29.5153 30.5154 29.1211 31.0001 29.1211C31.4847 29.1211 31.879 29.5153 31.879 30C31.879 30.4847 31.4847 30.8789 31.0001 30.8789Z" fill="black"/>
<path d="M60.7426 29.3784C58.5275 27.1633 55.9903 25.3748 53.1898 24.0487C54.9407 21.5116 56.2617 18.6776 57.0684 15.6669C57.1289 15.4417 57.0972 15.2019 56.9806 14.9999C56.8642 14.798 56.6721 14.6508 56.447 14.5904C53.4355 13.7835 50.3204 13.5106 47.2483 13.7585C47.5 10.6692 47.2199 7.57763 46.4093 4.55278C46.2838 4.08392 45.8019 3.80595 45.3329 3.93134C42.3131 4.74052 39.5006 6.04001 36.9559 7.79689C35.6427 5.03841 33.8519 2.48794 31.6214 0.257388C31.278 -0.0858546 30.7216 -0.0857374 30.3784 0.257388C28.1476 2.48817 26.3569 5.03888 25.044 7.79771C22.4984 6.04013 19.6859 4.7404 16.6668 3.93134C16.4418 3.8711 16.2018 3.90263 15.9999 4.01923C15.798 4.13583 15.6508 4.32778 15.5903 4.5529C14.7802 7.57622 14.4998 10.6652 14.7505 13.7507C11.6773 13.5037 8.56732 13.7828 5.55292 14.5905C5.3278 14.6508 5.13573 14.7981 5.01925 15.0001C4.90277 15.202 4.87112 15.4419 4.93136 15.667C5.73831 18.6785 7.05947 21.5126 8.81025 24.0493C6.00889 25.376 3.47168 27.1643 1.25743 29.3786C0.91419 29.7219 0.91419 30.2784 1.25743 30.6215C3.46816 32.8324 5.99975 34.6182 8.79361 35.9435C7.06123 38.46 5.74792 41.2861 4.93148 44.3332C4.80585 44.8021 5.08405 45.2839 5.55304 45.4097C7.89127 46.0362 10.2624 46.3444 12.6157 46.3442C13.3294 46.3442 14.0414 46.3155 14.7502 46.259C14.501 49.3425 14.7816 52.4282 15.5906 55.4471C15.6509 55.6723 15.7982 55.8643 16.0001 55.9808C16.1349 56.0586 16.2867 56.0986 16.4396 56.0986C16.5158 56.0986 16.5923 56.0887 16.667 56.0687C19.6929 55.2579 22.5105 53.9548 25.059 52.1926C26.3808 54.9775 28.1745 57.5386 30.3785 59.7427C30.5434 59.9074 30.767 60 31.0001 60C31.2331 60 31.4566 59.9074 31.6216 59.7425C33.8261 57.538 35.62 54.9767 36.9414 52.1921C39.4908 53.9548 42.3081 55.258 45.333 56.0686C45.4079 56.0886 45.4843 56.0985 45.5604 56.0985C45.7134 56.0985 45.8651 56.0585 45.9999 55.9807C46.2018 55.8641 46.349 55.6723 46.4093 55.447C47.2186 52.427 47.4994 49.3416 47.2503 46.2594C47.9582 46.3157 48.6692 46.3442 49.382 46.3442C51.7356 46.3442 54.1082 46.036 56.4469 45.4093C56.9157 45.2837 57.1939 44.8017 57.0683 44.3328C56.2519 41.2856 54.9382 38.4594 53.2055 35.943C56.0004 34.6172 58.5322 32.8313 60.7425 30.6212C61.0858 30.2782 61.0858 29.7216 60.7426 29.3784ZM55.1237 16.0721C53.5568 21.1852 50.3915 25.7005 46.1155 28.917C44.9305 28.1148 43.6736 27.4003 42.3527 26.782C42.9128 25.7111 43.3571 24.5772 43.6721 23.4016C43.7324 23.1765 43.7009 22.9365 43.5843 22.7347C43.4678 22.5328 43.2757 22.3856 43.0506 22.3251C41.8761 22.0103 40.673 21.8282 39.4667 21.7777C39.5913 20.3246 39.6007 18.879 39.4981 17.4516C44.4191 15.3561 49.9112 14.8721 55.1237 16.0721ZM31.0001 42.3695C29.7377 40.9413 28.7632 39.2796 28.1366 37.4901C29.1184 37.1805 30.0769 36.7765 31.0009 36.2791C31.9244 36.7765 32.8826 37.1798 33.8638 37.4894C33.2372 39.2791 32.2624 40.9412 31.0001 42.3695ZM20.2879 23.8153C22.1558 23.4363 24.0822 23.423 25.9452 23.7751C25.7224 24.7801 25.5932 25.8123 25.5618 26.8611C24.6694 27.4122 23.8405 28.0398 23.0817 28.7348C21.8454 27.2973 20.8936 25.6222 20.2879 23.8153ZM31.0084 34.3943C31.0059 34.3943 31.0035 34.3938 31.001 34.3938C30.9984 34.3938 30.9957 34.3943 30.9932 34.3943C28.5731 34.3905 26.6056 32.4208 26.6056 30C26.6056 27.5768 28.5769 25.6054 31.0001 25.6054C33.4233 25.6054 35.3946 27.5768 35.3946 30C35.3946 32.4204 33.4277 34.3897 31.0084 34.3943ZM31.0001 23.8476C29.7055 23.8476 28.5037 24.2505 27.5116 24.9361C27.9601 22.2275 29.1566 19.7095 31.0001 17.6294C32.8436 19.7095 34.0401 22.2275 34.4886 24.9362C33.4964 24.2505 32.2946 23.8476 31.0001 23.8476ZM24.8688 29.5123C24.8562 29.6734 24.8478 29.8357 24.8478 30C24.8478 32.4464 26.2832 34.5634 28.3559 35.5541C25.7868 36.5191 23.0091 36.7415 20.287 36.1851C21.1664 33.5485 22.7482 31.2541 24.8688 29.5123ZM33.6445 35.554C35.7171 34.5631 37.1524 32.4463 37.1524 30C37.1524 29.8357 37.1439 29.6734 37.1313 29.5123C39.2519 31.2541 40.8337 33.5486 41.7132 36.1852C38.9905 36.7418 36.2129 36.5192 33.6445 35.554ZM38.9184 28.7349C38.1596 28.0399 37.3306 27.4122 36.4384 26.8611C36.4071 25.8123 36.2777 24.78 36.0549 23.775C37.9183 23.4229 39.8449 23.4363 41.7124 23.8152C41.1066 25.6222 40.1548 27.2973 38.9184 28.7349ZM44.9282 5.8756C45.5445 8.53998 45.7246 11.2528 45.4666 13.9611C43.3627 14.2713 41.2929 14.8285 39.305 15.6285C39.0067 13.5005 38.457 11.426 37.6703 9.44209C39.8825 7.86978 42.3173 6.67259 44.9282 5.8756ZM31.0001 2.14352C35.9568 7.45482 38.3722 14.5346 37.7016 21.7992C36.9895 21.8456 36.2807 21.9386 35.5802 22.0777C34.7799 19.7129 33.4401 17.5448 31.6216 15.7264C31.4567 15.5615 31.2333 15.4689 31.0001 15.4689C30.7669 15.4689 30.5434 15.5615 30.3786 15.7264C28.5601 17.5449 27.2203 19.713 26.42 22.0777C25.7206 21.9389 25.0131 21.8459 24.3021 21.7994C23.6289 14.5352 26.0432 7.45505 31.0001 2.14352ZM19.7846 16.4692C20.25 16.6078 20.7392 16.3428 20.8777 15.8776C21.0162 15.4123 20.7512 14.923 20.286 14.7844C19.0519 14.4172 17.7977 14.1407 16.5326 13.9539C16.2756 11.249 16.4561 8.53845 17.072 5.8756C19.6824 6.67259 22.1173 7.87001 24.3303 9.44291C22.8001 13.3035 22.1698 17.5085 22.5371 21.7774C21.3297 21.8276 20.1256 22.0099 18.9499 22.3249C18.481 22.4505 18.2028 22.9325 18.3284 23.4014C18.6431 24.5759 19.0868 25.7088 19.6463 26.7787C18.3256 27.3975 17.0689 28.1121 15.8841 28.9146C11.609 25.7007 8.4438 21.186 6.87666 16.0719C11.1471 15.0869 15.5906 15.2211 19.7846 16.4692ZM3.14391 30C5.14312 28.1341 7.40248 26.6218 9.87677 25.4911C11.1972 27.1579 12.7148 28.6719 14.4016 29.9934C12.7079 31.3157 11.1861 32.829 9.86141 34.5022C7.39381 33.3727 5.1396 31.8627 3.14391 30ZM6.87596 43.9281C8.99728 36.9797 13.9209 31.348 20.5475 28.2965C20.9437 28.89 21.3785 29.4571 21.8494 29.9943C20.2016 31.8695 18.994 34.1138 18.3283 36.5983C18.2027 37.0672 18.4809 37.5491 18.9497 37.6748C21.4339 38.3404 23.9814 38.4167 26.4295 37.9274C26.659 38.6026 26.9323 39.2618 27.2474 39.9007C21.293 44.116 13.9544 45.5654 6.87596 43.9281ZM17.072 54.1243C16.457 51.4657 16.2766 48.7588 16.532 46.0563C18.6429 45.7453 20.714 45.1837 22.7053 44.3778C23.0072 46.4999 23.56 48.5712 24.3435 50.5484C22.128 52.1252 19.6884 53.3256 17.072 54.1243ZM31.0001 57.8556C27.3556 53.9421 25.028 48.9433 24.3803 43.632C25.6677 43.0069 26.9152 42.276 28.1112 41.4411C28.7584 42.4613 29.5181 43.4129 30.3786 44.2734C30.5502 44.445 30.7752 44.5309 31.0001 44.5309C31.2249 44.5309 31.4499 44.4451 31.6216 44.2734C32.4812 43.4138 33.2402 42.4633 33.887 41.4443C35.0832 42.2788 36.3308 43.0092 37.6183 43.634C36.9725 48.9432 34.6455 53.9414 31.0001 57.8556ZM44.9282 54.1243C42.3127 53.3258 39.8733 52.1253 37.657 50.5479C38.4401 48.5713 38.9923 46.5006 39.2935 44.3795C41.2856 45.1851 43.3572 45.7466 45.4687 46.0573C45.724 48.7583 45.5434 51.4651 44.9282 54.1243ZM34.7513 39.904C35.0673 39.2639 35.3411 38.6034 35.5709 37.9269C36.6191 38.1364 37.6852 38.2439 38.7574 38.2438C40.1886 38.2438 41.6302 38.0554 43.0505 37.6749C43.5194 37.5493 43.7976 37.0673 43.672 36.5984C43.0063 34.114 41.7987 31.8696 40.1511 29.9945C40.621 29.4581 41.0553 28.8918 41.451 28.2995C48.0788 31.3486 53.0031 36.9794 55.1244 43.9281C48.0458 45.5653 40.7071 44.117 34.7513 39.904ZM52.1378 34.5021C50.8131 32.8296 49.2915 31.3168 47.598 29.9953C49.2851 28.6727 50.8028 27.158 52.1235 25.4906C54.5971 26.6209 56.8564 28.1334 58.8562 29.9998C56.861 31.8622 54.6064 33.372 52.1378 34.5021Z" fill="black"/>
<g clip-path="url(#clip0)">
<path d="M0.0508361 77.4214C0.155794 77.1664 0.405342 77 0.680839 77C27.1354 77 29.999 87.9664 29.999 92.6818C29.999 98.7991 25.3408 102.909 18.4081 102.909C9.65221 102.909 7.81807 94.5772 6.83357 90.1004C5.8763 85.5432 3.56359 81.3827 0.199453 78.1632C0.0044322 77.9682 -0.0541844 77.6763 0.0508361 77.4214Z" fill="#1B8833"/>
<path d="M29.3182 107C29.6945 107 30 106.695 30 106.318C30 102.264 22.9705 89.2563 11.8882 83.8863C11.5486 83.7227 11.1409 83.8631 10.9773 84.2027C10.8136 84.5422 10.9541 84.95 11.2936 85.1136C22.4849 90.5368 28.6363 103.131 28.6363 106.318C28.6363 106.695 28.9418 107 29.3182 107Z" fill="#388E3C"/>
<path d="M18.4081 102.909C25.3409 102.909 29.999 98.7991 29.999 92.6818C29.999 87.9664 27.1422 77 0.680843 77C0.40266 77 0.151771 77.1705 0.0480914 77.4282C-0.0555234 77.6873 0.00852537 77.9832 0.20898 78.1755C3.58807 81.3991 5.87764 85.5214 6.83082 90.0937C7.81673 94.5773 9.64946 102.909 18.4081 102.909ZM2.31855 78.3814C11.3772 78.5737 28.6354 80.54 28.6354 92.6818C28.6354 97.9836 24.5254 101.545 18.4081 101.545C11.3377 101.545 9.41353 95.4868 8.16446 89.8086C7.2699 85.5173 5.25991 81.5968 2.31855 78.3814Z" fill="black"/>
<path d="M29.3182 107.382C29.6945 107.382 30 107.076 30 106.7C30 102.646 22.9705 89.6382 11.8882 84.2683C11.5486 84.1046 11.1423 84.2451 10.9773 84.5833C10.8136 84.9228 10.9541 85.3306 11.2936 85.4942C22.4849 90.9188 28.6363 103.513 28.6363 106.7C28.6363 107.077 28.9418 107.382 29.3182 107.382Z" fill="black"/>
</g>
<path d="M33.6818 95C33.3055 95 33 94.6945 33 94.3182C33 90.2641 40.0295 77.2563 51.1118 71.8863C51.4514 71.7227 51.8591 71.8631 52.0227 72.2027C52.1864 72.5422 52.0459 72.95 51.7064 73.1136C40.5151 78.5368 34.3637 91.1314 34.3637 94.3182C34.3637 94.6946 34.0582 95 33.6818 95Z" fill="#388E3C"/>
<path d="M62.9492 65.4214C62.8442 65.1664 62.5947 65 62.3192 65C35.8646 65 33.001 75.9664 33.001 80.6818C33.001 86.7991 37.6592 90.9091 44.5919 90.9091C53.3478 90.9091 55.1819 82.5772 56.1664 78.1004C57.1237 73.5432 59.4364 69.3827 62.8005 66.1632C62.9956 65.9682 63.0542 65.6763 62.9492 65.4214Z" fill="#1B8833"/>
<path d="M33.6818 95.3819C33.3055 95.3819 33 95.0764 33 94.7001C33 90.646 40.0295 77.6382 51.1118 72.2683C51.4514 72.1046 51.8577 72.2451 52.0227 72.5833C52.1864 72.9228 52.0459 73.3306 51.7064 73.4942C40.5151 78.9188 34.3637 91.5133 34.3637 94.7001C34.3637 95.0765 34.0582 95.3819 33.6818 95.3819Z" fill="black"/>
<path d="M44.5919 90.9091C37.6591 90.9091 33.001 86.7991 33.001 80.6818C33.001 75.9664 35.8578 65 62.3192 65C62.5973 65 62.8482 65.1705 62.9519 65.4282C63.0555 65.6873 62.9915 65.9832 62.791 66.1755C59.4119 69.3991 57.1224 73.5214 56.1692 78.0937C55.1833 82.5773 53.3505 90.9091 44.5919 90.9091ZM60.6814 66.3814C51.6228 66.5737 34.3646 68.54 34.3646 80.6818C34.3646 85.9836 38.4746 89.5455 44.5919 89.5455C51.6623 89.5455 53.5865 83.4868 54.8355 77.8086C55.7301 73.5173 57.7401 69.5968 60.6814 66.3814Z" fill="black"/>
<path d="M31 58L31 136" stroke="black" stroke-width="5"/>
<line x1="31" y1="136" x2="31" y2="57" stroke="#1B8833" stroke-width="2"/>
<defs>
<clipPath id="clip0">
<rect width="30" height="30" fill="white" transform="matrix(-1 0 0 1 30 77)"/>
</clipPath>
</defs>
</svg>
