<svg id="Capa_1" enable-background="new 0 0 512.045 512.045" height="512" viewBox="0 0 512.045 512.045" width="512" xmlns="http://www.w3.org/2000/svg"><g><g><g><path d="m159.414 158.473 75.09 65.846-16.697 28.919-94.569-32.107c-52.849-20.731-80.3-48.251-93.316-65.624-.016-.021-.032-.043-.048-.064-2.034-2.719.127-6.582 3.517-6.39l41.421 2.346-22.742-34.698c-1.861-2.84.404-6.642 3.775-6.241.027.003.053.006.08.01 21.552 2.586 59.111 12.6 103.489 48.003z" fill="#eaf6ff"/></g><g><path d="m388.808 290.914-94.569-32.107-16.697 28.919 75.09 65.846c44.378 35.403 81.937 45.417 103.49 48.002.027.003.053.006.08.01 3.372.402 5.637-3.401 3.775-6.241l-22.742-34.698 41.421 2.346c3.39.192 5.551-3.671 3.517-6.39-.016-.021-.032-.043-.048-.064-13.017-17.373-40.469-44.892-93.317-65.623z" fill="#eaf6ff"/></g></g><g><g><path d="m217.803 253.242-94.56-32.11c-52.85-20.73-80.31-48.25-93.32-65.62-.02-.03-.03-.05-.05-.07-2.03-2.72.13-6.58 3.52-6.39l15.2.86c15.36 16.62 41.41 37.61 83.79 54.24l94.57 32.1z" fill="#d8ecfe"/></g><g><path d="m459.973 395.342c1.86 2.84-.4 6.64-3.77 6.24-.03 0-.05-.01-.08-.01-21.55-2.58-59.11-12.6-103.49-48l-75.09-65.85 9.58-16.59 74.65 65.46c35.98 28.7 67.47 40.71 89.59 45.61z" fill="#d8ecfe"/></g></g><g><path d="m292.199 123.582-19.479 97.953h-33.393l-19.479-97.953c-8.471-56.134 1.636-93.668 10.174-113.626.01-.025.021-.049.031-.074 1.338-3.121 5.763-3.181 7.292-.149l18.678 37.044 18.678-37.044c1.529-3.032 5.954-2.972 7.292.149.011.025.021.049.031.074 8.538 19.958 18.645 57.492 10.175 113.626z" fill="#eaf6ff"/></g><g><path d="m292.199 388.463-19.479-97.953h-33.393l-19.479 97.953c-8.471 56.134 1.636 93.668 10.174 113.626.01.025.021.049.031.074 1.338 3.121 5.763 3.181 7.292.149l18.678-37.044 18.678 37.044c1.529 3.032 5.954 2.972 7.292-.149.011-.025.021-.049.031-.074 8.538-19.958 18.645-57.492 10.175-113.626z" fill="#eaf6ff"/></g><g><g><path d="m292.203 123.582-19.48 97.95h-20.39l19.48-97.95c6.69-44.31 1.79-77.03-4.76-98.67l7.65-15.18c1.53-3.03 5.95-2.97 7.29.15.01.02.02.05.03.07 8.54 19.96 18.65 57.5 10.18 113.63z" fill="#d8ecfe"/></g><g><path d="m282.023 502.092c-.01.02-.02.05-.03.07-1.34 3.12-5.76 3.18-7.29.15l-7.65-15.18c6.55-21.64 11.45-54.36 4.76-98.67l-19.48-97.95h20.39l19.48 97.95c8.47 56.13-1.64 93.67-10.18 113.63z" fill="#d8ecfe"/></g></g><g><g><path d="m123.238 290.914 94.569-32.107 16.697 28.919-75.09 65.846c-44.378 35.403-81.937 45.417-103.49 48.002-.027.003-.053.006-.08.01-3.372.402-5.637-3.401-3.775-6.241l22.742-34.698-41.421 2.346c-3.39.192-5.551-3.671-3.517-6.39.016-.021.032-.043.048-.064 13.016-17.373 40.468-44.892 93.317-65.623z" fill="#eaf6ff"/></g><g><path d="m352.632 158.473-75.09 65.846 16.697 28.919 94.569-32.107c52.849-20.731 80.3-48.251 93.316-65.624.016-.021.032-.043.048-.064 2.034-2.719-.127-6.582-3.517-6.39l-41.421 2.346 22.742-34.698c1.861-2.84-.404-6.642-3.775-6.241-.027.003-.053.006-.08.01-21.553 2.586-59.111 12.6-103.489 48.003z" fill="#eaf6ff"/></g></g><g><g><path d="m234.503 287.722-75.09 65.85c-44.38 35.4-81.94 45.42-103.49 48-.03 0-.05.01-.08.01-3.37.4-5.63-3.4-3.77-6.24l12.92-19.72c21.4-5.91 49.65-18.25 81.4-43.57l75.09-65.85z" fill="#d8ecfe"/></g><g><path d="m482.173 155.442c-.02.02-.03.04-.05.07-13.01 17.37-40.47 44.89-93.32 65.62l-94.56 32.11-12.53-21.69 94.07-31.94c38.21-14.99 63.14-33.52 78.94-49.2l23.93-1.36c3.39-.19 5.55 3.67 3.52 6.39z" fill="#d8ecfe"/></g></g><g><g><path d="m54.969 394.135c-.004 0-.008.001-.012.001.003 0 .007-.001.012-.001z"/><path d="m29.922 356.537h.01z"/></g><path d="m457.088 117.909c-.003 0-.007.001-.012.001.004 0 .008-.001.012-.001z"/></g><g><g><path d="m221.132 123.237 32.107 94.569-28.919 16.697-65.846-75.09c-35.403-44.378-45.417-81.937-48.002-103.49-.003-.027-.006-.053-.01-.08-.402-3.372 3.401-5.637 6.241-3.775l34.697 22.743-2.346-41.421c-.192-3.39 3.671-5.551 6.39-3.517.021.016.043.032.064.048 17.373 13.016 44.893 40.468 65.624 93.316z" fill="#c4e2ff"/></g><g><path d="m353.572 352.632-65.846-75.09-28.919 16.697 32.107 94.569c20.731 52.849 48.251 80.3 65.624 93.316.021.016.043.032.064.048 2.719 2.034 6.582-.127 6.39-3.517l-2.346-41.421 34.698 22.742c2.84 1.861 6.642-.404 6.241-3.775-.003-.027-.006-.053-.01-.08-2.586-21.553-12.6-59.112-48.003-103.489z" fill="#c4e2ff"/></g></g><g><g><path d="m123.582 219.847 97.953 19.479v33.393l-97.953 19.479c-56.134 8.471-93.668-1.636-113.626-10.174-.025-.01-.049-.021-.074-.031-3.121-1.338-3.181-5.763-.149-7.292l37.044-18.678-37.043-18.679c-3.032-1.529-2.972-5.954.149-7.292.025-.011.049-.021.074-.031 19.957-8.538 57.491-18.645 113.625-10.174z" fill="#c4e2ff"/></g><g><path d="m388.463 219.847-97.953 19.479v33.393l97.953 19.479c56.134 8.471 93.668-1.636 113.626-10.174.025-.01.049-.021.074-.031 3.121-1.338 3.181-5.763.149-7.292l-37.044-18.678 37.044-18.678c3.032-1.529 2.972-5.954-.149-7.292-.025-.011-.049-.021-.074-.031-19.958-8.539-57.492-18.646-113.626-10.175z" fill="#c4e2ff"/></g></g><g><g><path d="m158.473 352.632 65.846-75.09 28.919 16.697-32.107 94.569c-20.731 52.849-48.251 80.3-65.624 93.316-.021.016-.043.032-.064.048-2.719 2.034-6.582-.127-6.39-3.517l2.346-41.421-34.698 22.742c-2.84 1.861-6.642-.404-6.241-3.775.003-.027.006-.053.01-.08 2.586-21.553 12.601-59.112 48.003-103.489z" fill="#c4e2ff"/></g><g><path d="m290.914 123.237-32.107 94.569 28.919 16.697 65.846-75.09c35.403-44.378 45.417-81.937 48.002-103.49.003-.027.006-.053.01-.08.402-3.372-3.401-5.637-6.241-3.775l-34.698 22.742 2.346-41.421c.192-3.39-3.671-5.551-6.39-3.517-.021.016-.043.032-.064.048-17.372 13.017-44.892 40.469-65.623 93.317z" fill="#c4e2ff"/></g></g><g><g><path d="m117.908 457.087.001-.008z"/><path d="m110.461 456.201h.01z"/></g><path d="m394.137 54.957-.001.009z"/></g><g><circle cx="256.023" cy="256.022" fill="#fed402" r="56.285"/></g><g><path d="m312.313 256.022c0 31.09-25.2 56.29-56.29 56.29-14.58 0-27.87-5.54-37.87-14.65 6.2 2.36 12.94 3.65 19.97 3.65 31.08 0 56.28-25.2 56.28-56.29 0-16.51-7.1-31.35-18.42-41.64 21.24 8.05 36.33 28.58 36.33 52.64z" fill="#fac600"/></g><path d="m505.689 268.004-23.763-11.981 23.763-11.981c4.059-2.046 6.492-6.147 6.351-10.702-.14-4.509-2.792-8.41-7-10.214-16.105-6.89-40.559-13.803-74.031-13.993 28.887-16.898 46.615-35.11 57.117-49.127.021-.028.041-.055.052-.068 2.691-3.598 3.038-8.302.904-12.277-2.154-4.015-6.321-6.358-10.851-6.093l-26.57 1.505 14.588-22.258c2.492-3.802 2.549-8.57.149-12.443-2.375-3.835-6.625-5.883-11.025-5.362-.021.002-.123.014-.145.017-17.392 2.087-42.036 8.352-71.12 24.93 16.557-29.049 22.808-53.675 24.911-71.121.005-.034.009-.068.013-.103.531-4.461-1.521-8.709-5.356-11.084-3.875-2.399-8.643-2.342-12.443.149l-22.258 14.588 1.506-26.571c.256-4.539-2.079-8.696-6.095-10.851-3.974-2.133-8.677-1.786-12.345.957-7.871 5.897-15.576 12.983-22.899 21.06-2.782 3.069-2.55 7.812.52 10.594 3.067 2.783 7.812 2.55 10.594-.519 4.794-5.289 9.748-10.096 14.813-14.374l-1.91 33.706c-.16 2.827 1.286 5.503 3.738 6.919 2.451 1.417 5.492 1.33 7.861-.223l28.245-18.512c-3.978 22.319-15.307 54.534-45.184 92.029l-48.179 54.942c-7.071-6.639-15.645-11.69-25.158-14.572l23.479-69.156c6.239-15.876 13.567-30.528 21.783-43.553 2.211-3.503 1.162-8.135-2.341-10.345-3.506-2.21-8.135-1.162-10.345 2.342-1.418 2.247-2.8 4.555-4.166 6.889-.173-33.52-7.073-58.019-13.963-74.123-.009-.021-.032-.076-.041-.097-1.771-4.13-5.672-6.782-10.182-6.921-4.522-.137-8.654 2.292-10.701 6.351l-11.982 23.762-11.982-23.763c-2.047-4.06-6.16-6.492-10.701-6.352-4.51.14-8.411 2.792-10.175 6.906-.003.007-.037.087-.04.095-6.889 16.104-13.789 40.574-13.975 74.05-16.908-28.909-35.143-46.647-49.214-57.189-3.596-2.69-8.302-3.038-12.275-.905-4.016 2.154-6.351 6.312-6.095 10.852l1.506 26.569-22.258-14.588c-3.802-2.492-8.569-2.549-12.443-.15-3.835 2.375-5.888 6.623-5.356 11.084.003.029.007.057.011.086 2.086 17.395 8.327 42.034 24.905 71.123-29.087-16.574-53.744-22.832-71.197-24.925-4.454-.531-8.709 1.52-11.085 5.355-2.399 3.874-2.343 8.642.149 12.443l14.588 22.258-26.57-1.505c-4.51-.256-8.695 2.078-10.851 6.093-2.134 3.975-1.787 8.679.893 12.261.016.021.039.052.063.084 10.502 14.018 28.232 32.229 57.12 49.128-33.471.188-57.916 7.098-73.989 13.973-.017.007-.107.046-.124.053-4.13 1.771-6.782 5.671-6.922 10.181-.142 4.555 2.292 8.656 6.351 10.702l23.763 11.981-23.763 11.984c-4.059 2.046-6.492 6.147-6.351 10.702.14 4.509 2.792 8.41 7 10.214 16.107 6.891 40.582 13.792 74.061 13.98-28.903 16.902-46.642 35.119-57.147 49.14-.021.028-.041.055-.052.068-2.691 3.598-3.038 8.302-.904 12.277 2.154 4.016 6.316 6.353 10.851 6.093l26.57-1.505-14.588 22.258c-2.492 3.802-2.549 8.57-.149 12.443 2.13 3.438 5.764 5.443 9.666 5.443.45 0 .904-.027 1.359-.081.021-.002.123-.014.145-.017 17.391-2.086 42.03-8.34 71.111-24.914-16.549 29.042-22.8 53.661-24.902 71.104-.005.034-.009.068-.013.103-.531 4.461 1.521 8.709 5.356 11.084 3.875 2.399 8.643 2.342 12.443-.149l22.258-14.588-1.506 26.571c-.256 4.539 2.079 8.696 6.095 10.851 1.722.924 3.58 1.383 5.433 1.383 2.423 0 4.834-.785 6.912-2.339 14.027-10.508 32.255-28.243 49.164-57.167.021 3.871.126 7.698.33 11.469.224 4.137 3.771 7.314 7.894 7.085 4.136-.224 7.309-3.758 7.085-7.894-.784-14.518-.133-29.899 1.92-45.802.468-1.145 19.127-55.716 26.098-76.111 1.168.064 5.89.064 7.06 0 7.695 22.518 25.643 75.011 26.096 76.118 5.734 44.256-.355 75.881-7.725 96.226l-15.206-30.158c-1.275-2.529-3.865-4.124-6.697-4.124s-5.422 1.595-6.697 4.124l-15.2 30.146c-1.951-5.421-3.64-11.175-5.041-17.188-.939-4.034-4.973-6.54-9.007-5.602-4.034.94-6.542 4.972-5.603 9.006 2.23 9.569 5.141 18.582 8.643 26.769.009.021.032.076.041.097 1.771 4.13 5.672 6.782 10.182 6.921 4.546.149 8.654-2.292 10.701-6.351l11.981-23.763 11.981 23.762c1.99 3.947 5.923 6.357 10.326 6.357.125 0 .25-.002.375-.006 4.51-.14 8.411-2.792 10.175-6.906.003-.007.037-.087.04-.095 6.889-16.104 13.791-40.572 13.979-74.045 16.907 28.906 35.14 46.642 49.211 57.183 2.031 1.52 4.416 2.292 6.823 2.292 1.854 0 3.723-.458 5.452-1.387 4.016-2.154 6.351-6.312 6.095-10.852l-1.506-26.569 22.258 14.588c3.802 2.492 8.569 2.549 12.443.15 3.835-2.375 5.888-6.623 5.356-11.084-.003-.029-.007-.057-.011-.086-2.086-17.395-8.327-42.035-24.906-71.125 29.087 16.574 53.745 22.834 71.198 24.927.467.056.931.083 1.392.083 3.938 0 7.566-2.004 9.693-5.438 2.399-3.874 2.343-8.642-.149-12.443l-14.588-22.258 26.57 1.505c4.527.268 8.695-2.077 10.851-6.093 2.134-3.975 1.787-8.679-.893-12.261-.016-.021-.039-.052-.063-.084-10.505-14.021-28.243-32.238-57.145-49.14 33.471-.187 57.941-7.085 74.013-13.961.017-.007.107-.046.124-.053 4.13-1.771 6.782-5.671 6.922-10.181.141-4.555-2.293-8.656-6.351-10.702zm-143.409-107.54c35.453-27.088 65.884-37.63 87.195-41.423l-18.514 28.248c-1.553 2.368-1.639 5.409-.223 7.861s4.101 3.908 6.919 3.738l33.717-1.91c-13.973 16.59-38.315 37.657-79.468 54.803-1.307.178-62.566 12.221-78.994 15.451-1.067-2.099-2.243-4.132-3.527-6.089 16.195-18.541 52.173-59.746 52.895-60.679zm-128.161-140.468 15.206 30.158c1.275 2.529 3.865 4.124 6.697 4.124s5.422-1.595 6.697-4.124l15.205-30.154c7.384 20.402 13.459 52.03 7.72 96.27-.464 1.133-18.95 55.183-26.092 76.07-1.169-.064-5.89-.064-7.058 0-7.188-21.031-25.634-74.98-26.098-76.115-5.734-44.257.354-75.884 7.723-96.229zm-115.078 42.573 28.248 18.515c2.37 1.554 5.411 1.639 7.861.223 2.452-1.416 3.898-4.092 3.738-6.919l-1.91-33.716c17.34 14.604 39.574 40.522 57.106 85.144l23.479 69.156c-9.513 2.882-18.087 7.933-25.157 14.572l-48.179-54.942c-29.899-37.525-41.222-69.756-45.186-92.033zm-78.366 94.409 33.713 1.909c2.824.162 5.503-1.287 6.919-3.738 1.416-2.452 1.33-5.493-.223-7.861l-18.512-28.244c21.353 3.806 51.768 14.353 87.193 41.42.753.973 38.429 44.125 52.89 60.684-1.283 1.957-2.458 3.988-3.524 6.086-17.569-3.456-77.704-15.277-78.993-15.453-41.117-17.131-65.454-38.179-79.463-54.803zm-20.671 120.944 30.15-15.203c2.528-1.275 4.123-3.865 4.123-6.697s-1.595-5.422-4.123-6.697l-30.154-15.203c21.318-7.716 54.881-14.01 102.292-6.885l71.637 14.246c-1.094 4.674-1.692 9.537-1.692 14.54s.597 9.866 1.692 14.54l-71.637 14.246c-47.37 7.119-80.919.839-102.288-6.887zm42.567 115.082 18.514-28.248c1.553-2.368 1.639-5.409.223-7.861-1.345-2.329-3.826-3.75-6.494-3.75-.141 0-.283.004-.425.012l-33.717 1.91c13.975-16.592 38.32-37.661 79.48-54.808 1.157-.157 54.341-10.614 78.974-15.461 1.068 2.103 2.245 4.139 3.531 6.1-14.725 16.861-52.142 59.716-52.891 60.683-35.454 27.088-65.885 37.63-87.195 41.423zm151.514-6.774c-17.519 44.585-39.729 70.497-57.106 85.14l1.91-33.712c.16-2.827-1.286-5.503-3.738-6.919-1.162-.671-2.457-1.005-3.75-1.005-1.434 0-2.865.411-4.111 1.228l-28.245 18.512c3.978-22.319 15.307-54.534 45.184-92.029l48.179-54.942c7.071 6.639 15.644 11.69 25.157 14.572zm-6.847-130.208c0-26.9 21.885-48.785 48.785-48.785s48.785 21.885 48.785 48.785-21.885 48.785-48.785 48.785-48.785-21.884-48.785-48.785zm185.766 193.454-28.248-18.515c-2.37-1.554-5.411-1.639-7.861-.223-2.452 1.416-3.898 4.092-3.738 6.919l1.91 33.716c-17.34-14.604-39.574-40.522-57.106-85.144l-23.479-69.156c9.513-2.882 18.087-7.933 25.158-14.572l48.179 54.942c29.898 37.525 41.221 69.756 45.185 92.033zm78.366-94.41-33.713-1.909c-2.837-.168-5.504 1.286-6.919 3.738-1.416 2.452-1.33 5.493.223 7.861l18.512 28.244c-21.353-3.806-51.768-14.353-87.193-41.42-.791-1.022-40.759-46.8-52.887-60.689 1.283-1.957 2.458-3.989 3.524-6.087 21.715 4.272 77.763 15.289 78.977 15.455 41.126 17.132 65.466 38.182 79.476 54.807zm-81.617-70.258-71.637-14.246c1.094-4.674 1.692-9.537 1.692-14.54s-.597-9.866-1.692-14.54l71.637-14.246c47.371-7.119 80.919-.84 102.288 6.886l-30.15 15.203c-2.528 1.275-4.123 3.865-4.123 6.697s1.595 5.422 4.123 6.697l30.154 15.204c-21.319 7.716-54.883 14.009-102.292 6.885z"/></g></svg>