<svg width="63" height="134" viewBox="0 0 63 134" fill="none" xmlns="http://www.w3.org/2000/svg">
<path d="M20.6797 18.5692L29.4785 26.2849L27.522 29.6735L16.4407 25.9113C10.248 23.4821 7.03137 20.2574 5.50619 18.2217C5.50432 18.2192 5.50244 18.2167 5.50057 18.2142C5.26223 17.8956 5.51545 17.4429 5.91268 17.4654L10.7663 17.7403L8.10143 13.6745C7.88336 13.3418 8.14877 12.8962 8.54377 12.9432C8.54694 12.9436 8.54999 12.9439 8.55315 12.9444C11.0785 13.2474 15.4796 14.4208 20.6797 18.5692Z" fill="#EAF6FF"/>
<path d="M47.5594 34.0882L36.4781 30.326L34.5216 33.7147L43.3204 41.4303C48.5205 45.5787 52.9215 46.7521 55.447 47.055C55.4502 47.0554 55.4533 47.0557 55.4564 47.0562C55.8515 47.1033 56.1169 46.6577 55.8988 46.3249L53.2339 42.2591L58.0875 42.534C58.4847 42.5565 58.738 42.1038 58.4996 41.7852C58.4978 41.7828 58.4959 41.7802 58.494 41.7777C56.9687 39.742 53.752 36.5174 47.5594 34.0882Z" fill="#EAF6FF"/>
<path d="M27.5215 29.674L16.4413 25.9114C10.2485 23.4823 7.03078 20.2576 5.5063 18.2223C5.50396 18.2188 5.50279 18.2164 5.50044 18.2141C5.26257 17.8954 5.51568 17.4431 5.91291 17.4653L7.694 17.5661C9.49384 19.5136 12.5463 21.9731 17.5123 23.9218L28.5937 27.6831L27.5215 29.674Z" fill="#D8ECFE"/>
<path d="M55.8983 46.3248C56.1162 46.6575 55.8514 47.1028 55.4565 47.056C55.453 47.056 55.4507 47.0548 55.4472 47.0548C52.922 46.7525 48.5208 45.5784 43.3205 41.4303L34.5217 33.7142L35.6442 31.7702L44.3915 39.4406C48.6075 42.8036 52.2974 44.2109 54.8894 44.7851L55.8983 46.3248Z" fill="#D8ECFE"/>
<path d="M36.239 14.4808L33.9565 25.9586H30.0436L27.7612 14.4808C26.7685 7.90324 27.9529 3.50512 28.9533 1.16651C28.9545 1.16358 28.9558 1.16077 28.9569 1.15784C29.1137 0.792132 29.6322 0.785101 29.8114 1.14038L32 5.48108L34.1887 1.14038C34.3678 0.785101 34.8863 0.792132 35.0431 1.15784C35.0444 1.16077 35.0456 1.16358 35.0468 1.16651C36.0472 3.50512 37.2315 7.90324 36.239 14.4808Z" fill="#EAF6FF"/>
<path d="M36.239 45.5187L33.9565 34.0409H30.0436L27.7612 45.5187C26.7685 52.0963 27.9529 56.4944 28.9533 58.833C28.9545 58.836 28.9558 58.8388 28.9569 58.8417C29.1137 59.2074 29.6322 59.2144 29.8114 58.8592L32 54.5185L34.1887 58.8592C34.3678 59.2144 34.8863 59.2074 35.0431 58.8417C35.0444 58.8388 35.0456 58.836 35.0468 58.833C36.0472 56.4944 37.2315 52.0963 36.239 45.5187Z" fill="#EAF6FF"/>
<path d="M36.2395 14.4808L33.9569 25.9583H31.5676L33.8503 14.4808C34.6342 9.28873 34.06 5.45471 33.2925 2.919L34.1889 1.14026C34.3682 0.785215 34.8861 0.792245 35.0431 1.15784C35.0443 1.16018 35.0455 1.1637 35.0466 1.16604C36.0473 3.50489 37.232 7.9037 36.2395 14.4808Z" fill="#D8ECFE"/>
<path d="M35.0466 58.8334C35.0455 58.8357 35.0443 58.8392 35.0431 58.8416C34.8861 59.2072 34.3682 59.2142 34.1889 58.8592L33.2925 57.0804C34.06 54.5447 34.6342 50.7107 33.8503 45.5186L31.5676 34.0411H33.9569L36.2395 45.5186C37.232 52.0957 36.0473 56.4945 35.0466 58.8334Z" fill="#D8ECFE"/>
<path d="M16.4407 34.0882L27.522 30.326L29.4785 33.7147L20.6797 41.4303C15.4796 45.5787 11.0785 46.7521 8.55303 47.055C8.54986 47.0554 8.54682 47.0557 8.54365 47.0562C8.14853 47.1033 7.88313 46.6577 8.10131 46.3249L10.7661 42.2591L5.91256 42.534C5.51533 42.5565 5.26211 42.1038 5.50045 41.7852C5.50232 41.7828 5.5042 41.7802 5.50607 41.7777C7.03125 39.742 10.248 36.5174 16.4407 34.0882Z" fill="#EAF6FF"/>
<path d="M43.3204 18.5692L34.5216 26.2849L36.4781 29.6735L47.5594 25.9113C53.7521 23.4821 56.9687 20.2574 58.4939 18.2217C58.4958 18.2192 58.4976 18.2167 58.4995 18.2142C58.7378 17.8956 58.4846 17.4429 58.0874 17.4654L53.2338 17.7403L55.8986 13.6745C56.1167 13.3418 55.8513 12.8962 55.4563 12.9432C55.4531 12.9436 55.4501 12.9439 55.4469 12.9444C52.9214 13.2474 48.5205 14.4208 43.3204 18.5692Z" fill="#EAF6FF"/>
<path d="M29.4784 33.7142L20.6796 41.4303C15.4792 45.5784 11.0781 46.7525 8.5529 47.0548C8.54939 47.0548 8.54705 47.056 8.54353 47.056C8.14864 47.1028 7.88382 46.6576 8.10177 46.3248L9.6157 44.014C12.1233 43.3215 15.4335 41.8756 19.1539 38.9087L27.9527 31.1926L29.4784 33.7142Z" fill="#D8ECFE"/>
<path d="M58.4996 18.2141C58.4973 18.2164 58.4961 18.2188 58.4938 18.2223C56.9693 20.2576 53.7516 23.4823 47.5588 25.9114L36.4785 29.674L35.0103 27.1324L46.0332 23.3898C50.5105 21.6333 53.4317 19.462 55.2831 17.6247L58.0872 17.4653C58.4844 17.4431 58.7375 17.8954 58.4996 18.2141Z" fill="#D8ECFE"/>
<path d="M8.44135 46.1833C8.44081 46.1833 8.44026 46.1835 8.43971 46.1835C8.44012 46.1835 8.44067 46.1833 8.44135 46.1833Z" fill="black"/>
<path d="M55.5605 13.8161C55.5601 13.8161 55.5595 13.8162 55.5588 13.8162C55.5594 13.8162 55.5599 13.8161 55.5605 13.8161Z" fill="black"/>
<path d="M27.9116 14.4404L31.6738 25.5217L28.2852 27.4782L20.5695 18.6794C16.4211 13.4793 15.2477 9.07828 14.9448 6.55277C14.9445 6.54961 14.9441 6.54656 14.9436 6.5434C14.8965 6.14828 15.3422 5.88287 15.6749 6.10105L19.7406 8.766L19.4657 3.91243C19.4432 3.5152 19.8959 3.26198 20.2145 3.50032C20.217 3.50219 20.2195 3.50407 20.222 3.50594C22.2577 5.03111 25.4824 8.24785 27.9116 14.4404Z" fill="#C4E2FF"/>
<path d="M43.4305 41.3202L35.7149 32.5214L32.3263 34.4779L36.0885 45.5591C38.5177 51.7518 41.7424 54.9684 43.7781 56.4936C43.7805 56.4955 43.7831 56.4973 43.7856 56.4992C44.1042 56.7376 44.5568 56.4843 44.5343 56.0871L44.2594 51.2335L48.3253 53.8984C48.658 54.1164 49.1035 53.851 49.0566 53.456C49.0562 53.4529 49.0559 53.4498 49.0554 53.4467C48.7524 50.9211 47.579 46.5201 43.4305 41.3202Z" fill="#C4E2FF"/>
<path d="M16.481 25.7608L27.9588 28.0433V31.9562L16.481 34.2387C9.90336 35.2313 5.50524 34.047 3.16662 33.0465C3.16369 33.0454 3.16088 33.0441 3.15795 33.0429C2.79224 32.8861 2.78521 32.3676 3.14049 32.1885L7.4812 29.9998L3.14061 27.8111C2.78533 27.6319 2.79236 27.1134 3.15807 26.9566C3.16099 26.9553 3.16381 26.9542 3.16674 26.953C5.50524 25.9525 9.90336 24.7682 16.481 25.7608Z" fill="#C4E2FF"/>
<path d="M47.519 25.7608L36.0411 28.0433V31.9562L47.519 34.2387C54.0966 35.2313 58.4947 34.047 60.8333 33.0465C60.8363 33.0454 60.8391 33.0441 60.842 33.0429C61.2077 32.8861 61.2147 32.3676 60.8595 32.1884L56.5187 29.9998L60.8595 27.8112C61.2147 27.632 61.2077 27.1135 60.842 26.9567C60.8391 26.9555 60.8363 26.9543 60.8333 26.9531C58.4947 25.9525 54.0966 24.7682 47.519 25.7608Z" fill="#C4E2FF"/>
<path d="M20.5694 41.3202L28.285 32.5214L31.6737 34.4779L27.9115 45.5591C25.4823 51.7518 22.2576 54.9684 20.2219 56.4936C20.2194 56.4955 20.2168 56.4973 20.2144 56.4992C19.8958 56.7376 19.4431 56.4843 19.4656 56.0871L19.7405 51.2335L15.6747 53.8984C15.3419 54.1164 14.8964 53.851 14.9434 53.456C14.9437 53.4529 14.9441 53.4498 14.9446 53.4467C15.2476 50.9211 16.4211 46.5201 20.5694 41.3202Z" fill="#C4E2FF"/>
<path d="M36.0885 14.4404L32.3263 25.5217L35.7149 27.4782L43.4305 18.6794C47.579 13.4793 48.7524 9.07828 49.0553 6.55277C49.0556 6.54961 49.056 6.54656 49.0564 6.5434C49.1035 6.14828 48.6579 5.88287 48.3251 6.10105L44.2593 8.76589L44.5342 3.91231C44.5567 3.51508 44.1041 3.26186 43.7855 3.5002C43.783 3.50207 43.7804 3.50395 43.778 3.50582C41.7424 5.03111 38.5177 8.24785 36.0885 14.4404Z" fill="#C4E2FF"/>
<path d="M15.8161 53.56L15.8163 53.5589L15.8161 53.56Z" fill="black"/>
<path d="M48.1838 6.43958L48.1837 6.44081L48.1838 6.43958Z" fill="black"/>
<path d="M32 36.595C35.6425 36.595 38.5953 33.6422 38.5953 29.9997C38.5953 26.3572 35.6425 23.4044 32 23.4044C28.3575 23.4044 25.4047 26.3572 25.4047 29.9997C25.4047 33.6422 28.3575 36.595 32 36.595Z" fill="#FED402"/>
<path d="M38.5959 29.9997C38.5959 33.6427 35.6431 36.5956 32 36.5956C30.2916 36.5956 28.7343 35.9464 27.5625 34.8789C28.289 35.1555 29.0788 35.3066 29.9026 35.3066C33.5444 35.3066 36.4973 32.3538 36.4973 28.7108C36.4973 26.7762 35.6653 25.0373 34.3389 23.8315C36.8277 24.7748 38.5959 27.1804 38.5959 29.9997Z" fill="#FAC600"/>
<path d="M61.2552 31.4032L58.4708 29.9993L61.2552 28.5954C61.7309 28.3556 62.0159 27.8751 61.9994 27.3414C61.983 26.813 61.6723 26.3559 61.1792 26.1445C59.2921 25.3372 56.4266 24.5271 52.5045 24.5049C55.8894 22.5248 57.9667 20.3908 59.1973 18.7483C59.1997 18.745 59.2021 18.7419 59.2034 18.7404C59.5187 18.3188 59.5593 17.7676 59.3093 17.3018C59.0569 16.8313 58.5686 16.5568 58.0378 16.5878L54.9244 16.7642L56.6338 14.1561C56.9258 13.7106 56.9325 13.1519 56.6512 12.698C56.3729 12.2487 55.8749 12.0087 55.3594 12.0697C55.3569 12.07 55.3449 12.0714 55.3424 12.0717C53.3044 12.3163 50.4167 13.0504 47.0087 14.9929C48.9488 11.5891 49.6813 8.70347 49.9277 6.65921C49.9283 6.65522 49.9288 6.65124 49.9293 6.64714C49.9915 6.12441 49.751 5.62665 49.3017 5.34835C48.8476 5.06725 48.2889 5.07393 47.8436 5.36581L45.2355 7.07519L45.412 3.96168C45.442 3.42982 45.1684 2.94272 44.6978 2.6902C44.2321 2.44026 43.681 2.48092 43.2512 2.80234C42.3289 3.49333 41.4261 4.32364 40.568 5.27008C40.242 5.62969 40.2692 6.18546 40.6289 6.51145C40.9883 6.83755 41.5443 6.81025 41.8703 6.45063C42.432 5.83089 43.0125 5.26762 43.606 4.76634L43.3822 8.71589C43.3635 9.04715 43.5329 9.36072 43.8202 9.52664C44.1074 9.69268 44.4638 9.68248 44.7414 9.50051L48.051 7.33133C47.5849 9.9466 46.2574 13.7214 42.7565 18.115L37.111 24.5529C36.2825 23.775 35.2778 23.1831 34.1631 22.8454L36.9143 14.7419C37.6454 12.8816 38.504 11.1648 39.4668 9.63854C39.7258 9.22807 39.6029 8.68531 39.1924 8.42635C38.7816 8.16739 38.2392 8.29019 37.9802 8.70078C37.8141 8.96408 37.6521 9.23452 37.4921 9.50801C37.4718 5.58025 36.6633 2.70953 35.8559 0.82252C35.8549 0.820059 35.8522 0.813615 35.8511 0.811154C35.6436 0.327214 35.1865 0.0164615 34.658 0.00017389C34.1282 -0.0158793 33.644 0.268743 33.4041 0.744363L32.0001 3.52872L30.5961 0.744246C30.3562 0.268509 29.8743 -0.0164652 29.3422 -6.04637e-05C28.8137 0.0163443 28.3566 0.327097 28.1499 0.809162C28.1496 0.809982 28.1456 0.819356 28.1452 0.820294C27.338 2.70731 26.5295 5.57462 26.5077 9.49723C24.5264 6.10977 22.3897 4.03129 20.7409 2.79601C20.3196 2.4808 19.7681 2.44003 19.3026 2.68997C18.832 2.94236 18.5584 3.42958 18.5884 3.96157L18.7649 7.07483L16.1567 5.36546C15.7112 5.07346 15.1526 5.06678 14.6987 5.34788C14.2493 5.62618 14.0087 6.12395 14.0711 6.64667C14.0714 6.65007 14.0719 6.65335 14.0724 6.65675C14.3168 8.69504 15.0481 11.5822 16.9907 14.9907C13.5823 13.0486 10.6931 12.3153 8.64802 12.0701C8.12611 12.0079 7.62752 12.2482 7.34911 12.6976C7.068 13.1515 7.07456 13.7102 7.36657 14.1556L9.07595 16.7637L5.96255 16.5874C5.43408 16.5574 4.9437 16.8308 4.69107 17.3013C4.44101 17.7671 4.48167 18.3183 4.7957 18.738C4.79758 18.7405 4.80027 18.7441 4.80309 18.7479C6.03368 20.3904 8.11123 22.5243 11.4962 24.5045C7.57421 24.5265 4.70981 25.3362 2.82643 26.1418C2.82443 26.1426 2.81389 26.1472 2.8119 26.148C2.32796 26.3556 2.0172 26.8125 2.0008 27.341C1.98416 27.8748 2.26937 28.3553 2.74499 28.595L5.52947 29.9989L2.74499 31.4032C2.26937 31.6429 1.98428 32.1235 2.0008 32.6572C2.0172 33.1856 2.32796 33.6427 2.82104 33.854C4.70841 34.6615 7.57632 35.4701 11.4993 35.4922C8.11252 37.4727 6.03391 39.6073 4.80297 41.2502C4.80051 41.2535 4.79816 41.2567 4.79688 41.2582C4.48155 41.6798 4.44089 42.231 4.69095 42.6968C4.94335 43.1674 5.43104 43.4412 5.96244 43.4107L9.07583 43.2344L7.36645 45.8425C7.07445 46.288 7.06777 46.8467 7.34899 47.3005C7.59858 47.7034 8.0244 47.9383 8.48163 47.9383C8.53436 47.9383 8.58755 47.9352 8.64087 47.9288C8.64333 47.9286 8.65528 47.9272 8.65786 47.9269C10.6957 47.6824 13.5828 46.9496 16.9904 45.0075C15.0513 48.4106 14.3188 51.2953 14.0725 53.3392C14.0719 53.3432 14.0714 53.3472 14.071 53.3513C14.0087 53.874 14.2492 54.3718 14.6986 54.6501C15.1526 54.9312 15.7113 54.9245 16.1566 54.6326L18.7647 52.9233L18.5883 56.0368C18.5583 56.5686 18.8319 57.0557 19.3025 57.3083C19.5042 57.4165 19.722 57.4703 19.9391 57.4703C20.223 57.4703 20.5055 57.3783 20.749 57.1962C22.3927 55.9649 24.5286 53.8868 26.5099 50.4976C26.5124 50.9512 26.5247 51.3996 26.5486 51.8415C26.5748 52.3263 26.9904 52.6985 27.4736 52.6717C27.9582 52.6454 28.33 52.2313 28.3038 51.7467C28.2119 50.0455 28.2882 48.2432 28.5287 46.3798C28.5836 46.2456 30.77 39.8512 31.5868 37.4613C31.7237 37.4688 32.277 37.4688 32.4141 37.4613C33.3158 40.0999 35.4189 46.2509 35.472 46.3806C36.1438 51.5664 35.4304 55.2721 34.5668 57.656L32.785 54.1222C32.6356 53.8259 32.3321 53.639 32.0002 53.639C31.6684 53.639 31.3649 53.8259 31.2155 54.1222L29.4344 57.6546C29.2058 57.0194 29.0079 56.3452 28.8437 55.6406C28.7337 55.1679 28.261 54.8743 27.7883 54.9842C27.3156 55.0943 27.0217 55.5668 27.1318 56.0395C27.3931 57.1607 27.7342 58.2168 28.1445 59.1762C28.1456 59.1786 28.1483 59.1851 28.1493 59.1875C28.3568 59.6715 28.814 59.9822 29.3424 59.9985C29.8751 60.016 30.3565 59.7299 30.5963 59.2543L32.0002 56.4699L33.4041 59.2542C33.6373 59.7167 34.0982 59.9991 34.6141 59.9991C34.6287 59.9991 34.6434 59.9989 34.658 59.9984C35.1865 59.982 35.6436 59.6712 35.8503 59.1892C35.8507 59.1884 35.8547 59.179 35.855 59.178C36.6622 57.291 37.471 54.424 37.493 50.5017C39.4741 53.8888 41.6106 55.967 43.2594 57.2022C43.4974 57.3803 43.7769 57.4708 44.0589 57.4708C44.2762 57.4708 44.4952 57.4171 44.6978 57.3083C45.1684 57.0559 45.442 56.5686 45.412 56.0367L45.2355 52.9234L47.8436 54.6328C48.2891 54.9248 48.8477 54.9314 49.3017 54.6503C49.751 54.372 49.9916 53.8743 49.9293 53.3515C49.9289 53.3481 49.9284 53.3449 49.928 53.3415C49.6835 51.3032 48.9522 48.4159 47.0096 45.0073C50.4179 46.9494 53.3072 47.6829 55.3523 47.9281C55.407 47.9347 55.4614 47.9379 55.5154 47.9379C55.9769 47.9379 56.402 47.703 56.6512 47.3007C56.9323 46.8467 56.9258 46.288 56.6338 45.8426L54.9244 43.2345L58.0378 43.4109C58.5683 43.4423 59.0566 43.1675 59.3093 42.6969C59.5593 42.2311 59.5187 41.6799 59.2046 41.2602C59.2028 41.2577 59.2001 41.2541 59.1973 41.2504C57.9663 39.6074 55.8878 37.4728 52.5012 35.4923C56.4232 35.4704 59.2905 34.6621 61.1738 33.8564C61.1758 33.8556 61.1863 33.851 61.1883 33.8502C61.6723 33.6427 61.983 33.1857 61.9994 32.6572C62.0159 32.1235 61.7307 31.6429 61.2552 31.4032ZM44.451 18.802C48.6053 15.6279 52.1711 14.3926 54.6683 13.9482L52.4988 17.2582C52.3169 17.5357 52.3068 17.892 52.4727 18.1793C52.6386 18.4666 52.9532 18.6372 53.2835 18.6173L57.2343 18.3935C55.597 20.3375 52.7447 22.806 47.9225 24.8152C47.7693 24.836 40.5912 26.2472 38.6662 26.6257C38.5412 26.3797 38.4034 26.1415 38.2529 25.9122C40.1506 23.7396 44.3664 18.9113 44.451 18.802ZM29.4335 2.34242L31.2153 5.87623C31.3647 6.17257 31.6682 6.35947 32 6.35947C32.3318 6.35947 32.6353 6.17257 32.7847 5.87623L34.5664 2.34289C35.4316 4.73353 36.1435 8.43959 35.471 13.6235C35.4166 13.7562 33.2505 20.0897 32.4136 22.5371C32.2767 22.5296 31.7235 22.5296 31.5866 22.5371C30.7443 20.0728 28.5829 13.7512 28.5285 13.6182C27.8566 8.43233 28.57 4.72638 29.4335 2.34242ZM15.949 7.33098L19.259 9.50051C19.5367 9.6826 19.893 9.69256 20.1801 9.52664C20.4674 9.36072 20.6369 9.04715 20.6181 8.71589L20.3943 4.76516C22.4262 6.47641 25.0315 9.5134 27.0858 14.7421L29.837 22.8455C28.7223 23.1832 27.7176 23.7751 26.8892 24.553L21.2437 18.1151C17.7403 13.7181 16.4135 9.94133 15.949 7.33098ZM6.76627 18.3935L10.7167 18.6172C11.0476 18.6362 11.3615 18.4664 11.5274 18.1792C11.6933 17.8919 11.6833 17.5355 11.5013 17.2581L9.3321 13.9485C11.8342 14.3945 15.3981 15.6304 19.5491 18.802C19.6374 18.916 24.0521 23.9724 25.7466 25.9127C25.5963 26.1421 25.4586 26.38 25.3337 26.6259C23.275 26.2209 16.2286 24.8358 16.0775 24.8152C11.2595 22.8078 8.4078 20.3415 6.76627 18.3935ZM4.3441 32.5653L7.87699 30.7839C8.17322 30.6345 8.36011 30.331 8.36011 29.9992C8.36011 29.6673 8.17322 29.3638 7.87699 29.2144L4.34364 27.433C6.84162 26.5289 10.7744 25.7914 16.3299 26.6262L24.7241 28.2955C24.5959 28.8432 24.5259 29.4131 24.5259 29.9993C24.5259 30.5855 24.5958 31.1553 24.7241 31.703L16.3299 33.3723C10.7792 34.2065 6.84806 33.4706 4.3441 32.5653ZM9.33198 46.0503L11.5014 42.7403C11.6834 42.4628 11.6934 42.1064 11.5275 41.8191C11.3699 41.5462 11.0792 41.3797 10.7666 41.3797C10.7501 41.3797 10.7334 41.3802 10.7168 41.3811L6.76592 41.6049C8.40347 39.6607 11.2561 37.1919 16.0792 35.1827C16.2147 35.1643 22.4467 33.939 25.3331 33.371C25.4582 33.6175 25.5962 33.856 25.7468 34.0858C24.0214 36.0615 19.637 41.0831 19.5492 41.1965C15.3948 44.3705 11.829 45.6058 9.33198 46.0503ZM27.0859 45.2565C25.0331 50.4808 22.4306 53.5171 20.3944 55.2329L20.6182 51.2827C20.637 50.9514 20.4676 50.6379 20.1802 50.4719C20.0441 50.3933 19.8923 50.3542 19.7408 50.3542C19.5728 50.3542 19.4051 50.4023 19.2591 50.4981L15.9494 52.6672C16.4156 50.052 17.7431 46.2771 21.244 41.8836L26.8894 35.4457C27.718 36.2236 28.7226 36.8155 29.8373 37.1532L27.0859 45.2565ZM26.2836 29.9992C26.2836 26.8471 28.8481 24.2827 32.0001 24.2827C35.1522 24.2827 37.7166 26.8471 37.7166 29.9992C37.7166 33.1512 35.1522 35.7156 32.0001 35.7156C28.8481 35.7156 26.2836 33.1513 26.2836 29.9992ZM48.0511 52.6675L44.7411 50.4979C44.4634 50.3158 44.1071 50.3059 43.82 50.4718C43.5327 50.6377 43.3632 50.9513 43.382 51.2826L43.6058 55.2333C41.5739 53.522 38.9686 50.4851 36.9143 45.2564L34.1631 37.1529C35.2778 36.8152 36.2825 36.2234 37.111 35.4454L42.7565 41.8833C46.2599 46.2804 47.5867 50.0571 48.0511 52.6675ZM57.2338 41.6048L53.2835 41.3811C52.951 41.3614 52.6385 41.5318 52.4727 41.8191C52.3068 42.1064 52.3169 42.4628 52.4988 42.7403L54.668 46.0498C52.1659 45.6038 48.602 44.368 44.451 41.1963C44.3583 41.0766 39.675 35.7125 38.2539 34.085C38.4042 33.8557 38.5419 33.6176 38.6668 33.3717C41.2113 33.8723 47.7788 35.1633 47.9211 35.1827C52.7401 37.1902 55.5922 39.6568 57.2338 41.6048ZM47.6702 33.3722L39.276 31.7029C39.4042 31.1552 39.4743 30.5854 39.4743 29.9992C39.4743 29.4129 39.4043 28.8431 39.276 28.2954L47.6702 26.6261C53.221 25.7919 57.1521 26.5277 59.656 27.433L56.1231 29.2144C55.8269 29.3638 55.64 29.6673 55.64 29.9992C55.64 30.331 55.8269 30.6345 56.1231 30.7839L59.6565 32.5655C57.1584 33.4696 53.2254 34.207 47.6702 33.3722Z" fill="black"/>
<g clip-path="url(#clip0)">
<path d="M62.9492 65.4214C62.8442 65.1664 62.5947 65 62.3192 65C35.8646 65 33.001 75.9664 33.001 80.6818C33.001 86.7991 37.6592 90.9091 44.5919 90.9091C53.3478 90.9091 55.1819 82.5772 56.1664 78.1004C57.1237 73.5432 59.4364 69.3827 62.8005 66.1632C62.9956 65.9682 63.0542 65.6763 62.9492 65.4214Z" fill="#1B8833"/>
<path d="M33.6818 95C33.3055 95 33 94.6945 33 94.3182C33 90.2641 40.0295 77.2563 51.1118 71.8863C51.4514 71.7227 51.8591 71.8631 52.0227 72.2027C52.1864 72.5422 52.0459 72.95 51.7064 73.1136C40.5151 78.5368 34.3637 91.1314 34.3637 94.3182C34.3637 94.6946 34.0582 95 33.6818 95Z" fill="#388E3C"/>
<path d="M44.5919 90.9091C37.6591 90.9091 33.001 86.7991 33.001 80.6818C33.001 75.9664 35.8578 65 62.3192 65C62.5973 65 62.8482 65.1705 62.9519 65.4282C63.0555 65.6873 62.9915 65.9832 62.791 66.1755C59.4119 69.3991 57.1224 73.5214 56.1692 78.0937C55.1833 82.5773 53.3505 90.9091 44.5919 90.9091ZM60.6815 66.3814C51.6228 66.5737 34.3646 68.54 34.3646 80.6818C34.3646 85.9836 38.4746 89.5455 44.5919 89.5455C51.6623 89.5455 53.5865 83.4868 54.8355 77.8086C55.7301 73.5173 57.7401 69.5968 60.6815 66.3814Z" fill="black"/>
<path d="M33.6818 95.3819C33.3055 95.3819 33 95.0764 33 94.7001C33 90.646 40.0295 77.6382 51.1118 72.2683C51.4514 72.1046 51.8577 72.2451 52.0227 72.5833C52.1864 72.9228 52.0459 73.3306 51.7064 73.4942C40.5151 78.9188 34.3637 91.5133 34.3637 94.7001C34.3637 95.0765 34.0582 95.3819 33.6818 95.3819Z" fill="black"/>
</g>
<path d="M29.3182 102C29.6945 102 30 101.695 30 101.318C30 97.2641 22.9705 84.2563 11.8882 78.8863C11.5486 78.7227 11.1409 78.8631 10.9773 79.2027C10.8136 79.5422 10.9541 79.95 11.2936 80.1136C22.4849 85.5368 28.6363 98.1314 28.6363 101.318C28.6363 101.695 28.9418 102 29.3182 102Z" fill="#388E3C"/>
<path d="M0.0508366 72.4214C0.155794 72.1664 0.405342 72 0.68084 72C27.1354 72 29.999 82.9664 29.999 87.6818C29.999 93.7991 25.3408 97.9091 18.4081 97.9091C9.65221 97.9091 7.81807 89.5772 6.83357 85.1004C5.8763 80.5432 3.56359 76.3827 0.199453 73.1632C0.00443268 72.9682 -0.054184 72.6763 0.0508366 72.4214Z" fill="#1B8833"/>
<path d="M18.4081 97.9091C25.3409 97.9091 29.999 93.7991 29.999 87.6818C29.999 82.9664 27.1422 72 0.680843 72C0.40266 72 0.151772 72.1705 0.0480919 72.4282C-0.0555229 72.6873 0.00852585 72.9832 0.208981 73.1755C3.58807 76.3991 5.87764 80.5214 6.83082 85.0937C7.81673 89.5773 9.64946 97.9091 18.4081 97.9091ZM2.31855 73.3814C11.3772 73.5737 28.6354 75.54 28.6354 87.6818C28.6354 92.9836 24.5254 96.5455 18.4081 96.5455C11.3377 96.5455 9.41353 90.4868 8.16446 84.8086C7.2699 80.5173 5.25991 76.5968 2.31855 73.3814Z" fill="black"/>
<path d="M29.3182 102.382C29.6945 102.382 30 102.076 30 101.7C30 97.646 22.9705 84.6382 11.8882 79.2683C11.5486 79.1046 11.1423 79.2451 10.9773 79.5833C10.8136 79.9228 10.9541 80.3306 11.2936 80.4942C22.4849 85.9188 28.6363 98.5133 28.6363 101.7C28.6363 102.077 28.9418 102.382 29.3182 102.382Z" fill="black"/>
<path d="M32 56L32 134" stroke="black" stroke-width="5"/>
<line x1="32" y1="134" x2="32" y2="60" stroke="#1B8833" stroke-width="2"/>
<defs>
<clipPath id="clip0">
<rect width="30" height="30" fill="white" transform="translate(33 65)"/>
</clipPath>
</defs>
</svg>
