<svg id="Filled" height="512" viewBox="0 0 512 512" width="512" xmlns="http://www.w3.org/2000/svg"><g fill="#fdd14b"><path d="m256 256s-72-160 0-232c72 72 0 232 0 232z"/><path d="m256 256s62.225-164.049 164.049-164.049c0 101.824-164.049 164.049-164.049 164.049z"/><path d="m256 256s160-72 232 0c-72 72-232 0-232 0z"/><path d="m256 256s164.049 62.225 164.049 164.049c-101.824 0-164.049-164.049-164.049-164.049z"/><path d="m256 256s72 160 0 232c-72-72 0-232 0-232z"/><path d="m256 256s-62.225 164.049-164.049 164.049c0-101.824 164.049-164.049 164.049-164.049z"/><path d="m256 256s-160 72-232 0c72-72 232 0 232 0z"/><path d="m256 256s-164.049-62.225-164.049-164.049c101.824 0 164.049 164.049 164.049 164.049z"/><path d="m256 256s-127.749-120.268-88.783-214.34c94.073 38.966 88.783 214.34 88.783 214.34z"/><path d="m256 256s-5.29-175.374 88.783-214.34c38.966 94.072-88.783 214.34-88.783 214.34z"/><path d="m256 256s120.268-127.749 214.34-88.783c-38.966 94.073-214.34 88.783-214.34 88.783z"/><path d="m256 256s175.374-5.29 214.34 88.783c-94.072 38.966-214.34-88.783-214.34-88.783z"/><path d="m256 256s127.749 120.268 88.783 214.34c-94.073-38.966-88.783-214.34-88.783-214.34z"/><path d="m256 256s5.29 175.374-88.783 214.34c-38.966-94.072 88.783-214.34 88.783-214.34z"/><path d="m256 256s-120.268 127.749-214.34 88.783c38.966-94.073 214.34-88.783 214.34-88.783z"/><path d="m256 256s-175.374 5.29-214.34-88.783c94.072-38.966 214.34 88.783 214.34 88.783z"/></g><path d="m256 256s124.6-138.2 155.212-64.291-155.212 64.291-155.212 64.291z" fill="#e4bc43"/><path d="m256 256s185.826-9.62 155.212 64.291-155.212-64.291-155.212-64.291z" fill="#e4bc43"/><path d="m256 256s138.2 124.6 64.291 155.212-64.291-155.212-64.291-155.212z" fill="#e4bc43"/><path d="m256 256s9.62 185.826-64.291 155.212 64.291-155.212 64.291-155.212z" fill="#e4bc43"/><path d="m256 257.963s-124.6 138.2-155.212 64.291 155.212-64.291 155.212-64.291z" fill="#e4bc43"/><path d="m256 257.963s-185.826 9.62-155.212-64.29 155.212 64.29 155.212 64.29z" fill="#e4bc43"/><path d="m256 256s-138.2-124.6-64.291-155.212 64.291 155.212 64.291 155.212z" fill="#e4bc43"/><path d="m256 256s-9.62-185.826 64.291-155.212-64.291 155.212-64.291 155.212z" fill="#e4bc43"/><path d="m256 256s-72-112 0-112 0 112 0 112z" fill="#cda93c"/><path d="m256 256s28.284-130.108 79.2-79.2-79.2 79.2-79.2 79.2z" fill="#bd9c37"/><path d="m256 256s112-72 112 0-112 0-112 0z" fill="#cda93c"/><path d="m256 256s130.108 28.284 79.2 79.2-79.2-79.2-79.2-79.2z" fill="#bd9c37"/><path d="m256 256s72 112 0 112 0-112 0-112z" fill="#cda93c"/><path d="m256 256s-28.284 130.108-79.2 79.2 79.2-79.2 79.2-79.2z" fill="#bd9c37"/><path d="m256 256s-112 72-112 0 112 0 112 0z" fill="#cda93c"/><path d="m256 256s-130.108-28.284-79.2-79.2 79.2 79.2 79.2 79.2z" fill="#bd9c37"/><circle cx="256" cy="256" fill="#e4bc43" r="48"/><circle cx="256" cy="256" fill="#bd9c37" r="16"/><path d="m75.8 291.835c-19.546 13.74-33.478 30.455-41.527 49.886a8 8 0 0 0 4.33 10.452 107.306 107.306 0 0 0 41.442 8 135.019 135.019 0 0 0 23.177-2.084c-12.8 20.167-19.267 40.923-19.267 61.963a8 8 0 0 0 8 8c21.04 0 41.8-6.472 61.963-19.266-4.1 23.528-2.135 45.191 5.912 64.618a7.991 7.991 0 0 0 10.453 4.329c19.433-8.048 36.145-21.981 49.884-41.526 5.213 23.31 15.3 42.575 30.18 57.453a8 8 0 0 0 11.314 0c14.879-14.879 24.965-34.146 30.177-57.457 13.74 19.547 30.453 33.481 49.887 41.53a7.991 7.991 0 0 0 10.453-4.329c8.047-19.427 10.013-41.09 5.912-64.618 20.167 12.793 40.934 19.266 61.963 19.266a8 8 0 0 0 8-8c0-21.039-6.472-41.8-19.266-61.963a134.99 134.99 0 0 0 23.176 2.084 107.332 107.332 0 0 0 41.442-8 8 8 0 0 0 4.33-10.452c-8.049-19.431-22.006-36.138-41.554-49.878 23.322-5.21 42.6-15.3 57.48-30.186a8 8 0 0 0 0-11.314c-14.879-14.879-34.147-24.964-57.458-30.177 19.548-13.739 33.482-30.453 41.532-49.887a8 8 0 0 0 -4.33-10.452c-19.426-8.048-41.089-10.014-64.619-5.913 12.8-20.167 19.267-40.923 19.267-61.963a8 8 0 0 0 -8-8c-21.04 0-41.8 6.472-61.963 19.267 4.1-23.529 2.135-45.192-5.912-64.619a8 8 0 0 0 -10.453-4.329c-19.432 8.048-36.145 21.981-49.884 41.526-5.213-23.31-15.3-42.575-30.18-57.453a8 8 0 0 0 -11.314 0c-14.878 14.878-24.968 34.144-30.18 57.453-13.739-19.545-30.452-33.477-49.884-41.526a8 8 0 0 0 -10.457 4.33c-8.047 19.427-10.013 41.09-5.912 64.619-20.166-12.8-40.923-19.267-61.963-19.267a8 8 0 0 0 -8 8c0 21.041 6.471 41.8 19.266 61.964-23.529-4.1-45.191-2.136-64.618 5.912a8 8 0 0 0 -4.33 10.452c8.05 19.434 21.984 36.147 41.531 49.887-23.31 5.212-42.578 15.3-57.457 30.177a8 8 0 0 0 0 11.314c14.878 14.877 34.145 24.965 57.457 30.177zm-23.147 48.394c7.881-14.748 20.224-27.587 36.846-38.338-.524 6.725.766 13.9 3.9 21.462s7.289 13.54 12.412 17.925c-19.356 4.149-37.16 3.805-53.158-1.049zm104.9-134.514a33.6 33.6 0 0 0 4.679 11.439 32.391 32.391 0 0 0 -14.728 7.377 31.773 31.773 0 0 0 -8.378 12.453c-16.542-5.343-27.377-12.407-31.6-20.7-3.065-6.019-2.852-13.056.651-21.513 3.47-8.377 8.233-13.484 14.562-15.61 8.838-2.971 21.588-.322 37.158 7.641a30.9 30.9 0 0 0 -2.343 18.913zm98.447 10.285a40 40 0 1 1 -40 40 40.045 40.045 0 0 1 40-40zm-19.567-57.8c3.7-4.113 10.279-6.2 19.567-6.2s15.871 2.086 19.567 6.2c3.479 3.872 4.917 10.086 4.29 18.483a130.418 130.418 0 0 0 -13.964 24.211 55.26 55.26 0 0 0 -19.783 0 130.37 130.37 0 0 0 -13.968-24.217c-.626-8.395.813-14.607 4.291-18.477zm115.657 28.605c15.61-7.987 28.4-10.629 37.239-7.62 6.294 2.139 11.034 7.238 14.492 15.586 3.464 8.363 3.711 15.331.757 21.3-4.138 8.363-15.029 15.523-31.692 20.909a30.912 30.912 0 0 0 -11.716-15.037 33.567 33.567 0 0 0 -11.393-4.778 32.425 32.425 0 0 0 5.182-15.467 31.721 31.721 0 0 0 -2.869-14.893zm2.356 119.48a33.569 33.569 0 0 0 -4.675-11.432 32.379 32.379 0 0 0 14.767-7.423 31.792 31.792 0 0 0 8.336-12.416c16.669 5.386 27.565 12.548 31.7 20.913 2.954 5.971 2.707 12.939-.757 21.3s-8.233 13.484-14.562 15.61c-8.84 2.97-21.589.321-37.158-7.642a30.9 30.9 0 0 0 2.349-18.91zm-2.187-71.051c5.141 3.445 7.741 10.431 7.741 20.766 0 9.272-2.079 15.851-6.18 19.55-3.869 3.49-10.089 4.937-18.5 4.309a130.428 130.428 0 0 0 -24.215-13.967 55.59 55.59 0 0 0 -1.944-27.456c20.129-7.266 35.288-8.436 43.098-3.202zm-22.72 94.3c-6.553 6.553-12.67 9.742-18.184 9.454-5.207-.264-10.63-3.64-16.138-10.034a130.33 130.33 0 0 0 -7.253-27.017 56.368 56.368 0 0 0 18.042-20.781c19.382 9.1 30.922 18.99 32.743 28.22 1.196 6.073-1.902 12.855-9.21 20.163zm9.448-128.782c-.306 5.177-3.687 10.561-10.038 16.027a130.537 130.537 0 0 0 -27.007 7.251 56.383 56.383 0 0 0 -20.781-18.041c9.094-19.378 18.982-30.915 28.212-32.741 6.07-1.2 12.855 1.9 20.166 9.208 6.597 6.602 9.775 12.757 9.448 18.301zm-62.221 151.5c-3.444 5.148-10.431 7.748-20.766 7.748-9.287 0-15.871-2.086-19.567-6.2-3.479-3.872-4.918-10.086-4.29-18.483a130.417 130.417 0 0 0 13.965-24.211 55.59 55.59 0 0 0 27.456-1.944c7.266 20.128 8.436 35.285 3.202 43.097zm-45.927-46.253c-9.1 19.382-18.99 30.922-28.22 32.743-6.067 1.2-12.85-1.9-20.158-9.21-6.538-6.532-9.72-12.632-9.461-18.132.25-5.218 3.633-10.656 10.045-16.179a130.433 130.433 0 0 0 27.011-7.248 56.386 56.386 0 0 0 20.783 18.033zm-24.839-75.16c-19.383-9.1-30.924-18.99-32.744-28.22-1.2-6.068 1.9-12.85 9.21-20.158 7.29-7.291 14.056-10.4 20.112-9.219 9.229 1.789 19.158 13.343 28.269 32.751a56.355 56.355 0 0 0 -24.847 24.846zm-29.314 1.3a130.372 130.372 0 0 0 24.212 13.965 55.59 55.59 0 0 0 1.944 27.456c-20.127 7.266-35.286 8.441-43.095 3.2-5.147-3.439-7.747-10.425-7.747-20.76 0-9.287 2.086-15.871 6.2-19.567 3.871-3.478 10.083-4.917 18.481-4.291zm-25.85 57.913a33.615 33.615 0 0 0 11.408 4.762 32.353 32.353 0 0 0 -5.216 15.813 31.816 31.816 0 0 0 2.888 14.561c-15.623 7.991-28.427 10.632-37.263 7.618-6.282-2.146-11.015-7.242-14.469-15.58-3.464-8.364-3.711-15.333-.756-21.305 4.139-8.361 15.03-15.521 31.691-20.9a30.906 30.906 0 0 0 11.712 15.034zm11.194 92.893c-20.174 17.01-40.862 26.644-61.66 28.688 2.043-20.8 11.674-41.48 28.679-61.65.5.016 1 .028 1.513.028 11.058 0 23.905-3.847 38.379-11.483.71.776 1.439 1.55 2.211 2.323s1.552 1.506 2.33 2.217c-7.982 15.141-11.824 28.49-11.457 39.88zm9.746 76.4c-4.855-16-5.2-33.8-1.05-53.156 4.385 5.122 10.368 9.281 17.926 12.412a48.521 48.521 0 0 0 18.549 4.026c.978 0 1.944-.051 2.9-.126-10.752 16.62-23.585 28.967-38.33 36.846zm44.3-54.769c-5.97 2.953-12.939 2.707-21.3-.757s-13.466-8.217-15.6-14.529c-2.987-8.837-.35-21.6 7.622-37.187a31.969 31.969 0 0 0 13.09 2.916 30.007 30.007 0 0 0 5.83-.575 33.58 33.58 0 0 0 11.44-4.68 32.372 32.372 0 0 0 7.378 14.728 31.78 31.78 0 0 0 12.454 8.38c-5.39 16.672-12.552 27.568-20.917 31.706zm39.924 71.524c-13.257-16.149-21.075-37.59-23.313-63.876 8.318-7.8 15.052-19.945 20.113-36.3 1.048.046 2.11.078 3.2.078s2.162-.028 3.213-.075c5.058 16.349 11.787 28.5 20.1 36.3-2.235 26.287-10.053 47.725-23.313 63.873zm19.021-103.217a30.91 30.91 0 0 0 15.034-11.716 33.568 33.568 0 0 0 4.78-11.4 32.367 32.367 0 0 0 15.709 5.2q.756.037 1.511.038a32.16 32.16 0 0 0 13.145-2.922c7.98 15.6 10.617 28.37 7.626 37.21-2.135 6.309-7.237 11.059-15.6 14.522s-15.3 3.711-21.268.774c-8.37-4.118-15.545-15.024-20.937-31.704zm65.208 86.462c-14.746-7.879-27.578-20.227-38.329-36.845.96.075 1.926.126 2.905.126a48.528 48.528 0 0 0 18.548-4.025c7.558-3.131 13.541-7.29 17.926-12.413 4.148 19.355 3.805 37.16-1.05 53.159zm71.406-47.712c-20.717-2.038-41.345-11.593-61.436-28.48-.075-.063-.149-.129-.224-.193.371-11.394-3.466-24.748-11.452-39.892.778-.711 1.555-1.442 2.33-2.216s1.5-1.544 2.212-2.318c14.484 7.639 27.325 11.478 38.384 11.478.506 0 1.006-.012 1.5-.028 17.009 20.171 26.642 40.857 28.686 61.651zm47.712-71.406c-16 4.855-33.8 5.2-53.156 1.05 5.122-4.385 9.281-10.367 12.412-17.926s4.421-14.734 3.9-21.458c16.617 10.752 28.964 23.589 36.844 38.336zm16.753-84.227c-16.15 13.258-37.591 21.074-63.877 23.312-7.8-8.317-19.945-15.051-36.3-20.111.047-1.049.079-2.111.079-3.2s-.028-2.154-.074-3.2c16.359-5.061 28.506-11.8 36.3-20.115 26.29 2.236 47.725 10.056 63.872 23.314zm-16.755-84.229c-7.88 14.746-20.227 27.579-36.845 38.329.522-6.722-.768-13.893-3.9-21.453s-7.29-13.541-12.413-17.926c19.357-4.149 37.162-3.805 53.16 1.05zm-109.37-42.718c20.174-17.011 40.863-26.645 61.66-28.689-2.043 20.8-11.676 41.484-28.684 61.657-11.393-.369-24.745 3.468-39.883 11.453-.711-.777-1.442-1.554-2.215-2.328s-1.551-1.509-2.328-2.22c7.981-15.136 11.817-28.484 11.45-39.873zm-9.746-76.4c4.855 16 5.2 33.8 1.049 53.156-4.384-5.122-10.367-9.281-17.925-12.412s-14.731-4.421-21.453-3.9c10.751-16.617 23.583-28.965 38.329-36.844zm-44.3 54.769c5.972-2.953 12.941-2.706 21.3.757s13.466 8.217 15.6 14.529c2.987 8.838.349 21.6-7.625 37.195a30.922 30.922 0 0 0 -18.935-2.346 33.567 33.567 0 0 0 -11.422 4.677 32.372 32.372 0 0 0 -7.378-14.728 31.78 31.78 0 0 0 -12.454-8.38c5.385-16.67 12.547-27.565 20.911-31.704zm-39.929-71.522c13.258 16.149 21.075 37.59 23.313 63.876-8.318 7.8-15.052 19.946-20.112 36.305-1.049-.047-2.111-.079-3.2-.079s-2.159.032-3.211.079c-5.058-16.349-11.786-28.5-20.1-36.3 2.234-26.291 10.051-47.733 23.31-63.881zm-19.018 103.227a31.771 31.771 0 0 0 -12.45 8.379 32.382 32.382 0 0 0 -7.378 14.724 33.522 33.522 0 0 0 -11.535-4.7 30.928 30.928 0 0 0 -18.819 2.37c-7.974-15.59-10.612-28.355-7.625-37.193 2.133-6.312 7.236-11.064 15.6-14.529 8.346-3.456 15.3-3.71 21.266-.775 8.371 4.125 15.549 15.037 20.941 31.724zm-65.211-86.474c14.746 7.88 27.579 20.228 38.33 36.846-6.723-.522-13.894.768-21.454 3.9s-13.541 7.29-17.926 12.412c-4.148-19.355-3.805-37.159 1.05-53.158zm-71.406 47.711c20.8 2.044 41.486 11.679 61.66 28.688-.367 11.39 3.469 24.738 11.45 39.873-.777.711-1.553 1.447-2.328 2.221s-1.511 1.553-2.223 2.331c-15.139-7.981-28.487-11.816-39.876-11.448-17.013-20.176-26.639-40.865-28.683-61.665zm-47.712 71.407c16-4.854 33.8-5.2 53.156-1.049-5.123 4.384-9.281 10.367-12.412 17.925s-4.422 14.731-3.9 21.452c-16.618-10.751-28.965-23.583-36.844-38.328zm47.115 60.914c7.794 8.311 19.945 15.04 36.311 20.109-.047 1.05-.079 2.114-.079 3.206s.028 2.154.074 3.2c-16.357 5.06-28.5 11.794-36.3 20.112-26.289-2.236-47.726-10.052-63.874-23.312 16.147-13.258 37.582-21.077 63.868-23.315z"/><path d="m256 280a24 24 0 1 0 -24-24 24.027 24.027 0 0 0 24 24zm0-32a8 8 0 1 1 -8 8 8.009 8.009 0 0 1 8-8z"/></svg>