<svg width="63" height="134" viewBox="0 0 63 134" fill="none" xmlns="http://www.w3.org/2000/svg">
<g clip-path="url(#clip0)">
<path d="M62.9501 64.3823C62.8451 64.1235 62.5956 63.9545 62.3201 63.9545C35.8655 63.9545 33.0019 75.0871 33.0019 79.874C33.0019 86.0839 37.6601 90.2562 44.5928 90.2562C53.3487 90.2562 55.1828 81.7981 56.1673 77.2535C57.1246 72.6272 59.4373 68.4037 62.8014 65.1353C62.9965 64.9374 63.0551 64.6411 62.9501 64.3823Z" fill="#1B8833"/>
<path d="M33.6827 94.4091C33.3064 94.4091 33.0009 94.099 33.0009 93.7169C33.0009 89.6014 40.0304 76.3966 51.1127 70.9452C51.4523 70.7791 51.86 70.9217 52.0236 71.2664C52.1873 71.6111 52.0468 72.025 51.7073 72.1911C40.516 77.6965 34.3646 90.4819 34.3646 93.717C34.3646 94.0991 34.0591 94.4091 33.6827 94.4091Z" fill="#388E3C"/>
<path d="M44.5928 90.2562C37.66 90.2562 33.0019 86.0839 33.0019 79.874C33.0019 75.0871 35.8587 63.9545 62.3201 63.9545C62.5982 63.9545 62.8491 64.1276 62.9528 64.3892C63.0564 64.6522 62.9924 64.9527 62.7919 65.1479C59.4128 68.4203 57.1233 72.6051 56.1701 77.2466C55.1842 81.7982 53.3514 90.2562 44.5928 90.2562ZM60.6824 65.3569C51.6237 65.552 34.3655 67.5482 34.3655 79.874C34.3655 85.2561 38.4755 88.8719 44.5928 88.8719C51.6632 88.8719 53.5874 82.7215 54.8364 76.9573C55.731 72.6009 57.741 68.621 60.6824 65.3569Z" fill="black"/>
<path d="M33.6827 94.7968C33.3064 94.7968 33.0009 94.4867 33.0009 94.1046C33.0009 89.9891 40.0304 76.7843 51.1127 71.3329C51.4523 71.1668 51.8586 71.3094 52.0236 71.6527C52.1873 71.9974 52.0468 72.4113 51.7073 72.5775C40.516 78.0842 34.3646 90.8696 34.3646 94.1047C34.3646 94.4868 34.0591 94.7968 33.6827 94.7968Z" fill="black"/>
</g>
<path d="M29.3191 101.515C29.6954 101.515 30.0009 101.205 30.0009 100.823C30.0009 96.7075 22.9714 83.5026 11.8891 78.0513C11.5495 77.8852 11.1418 78.0277 10.9782 78.3724C10.8145 78.7171 10.955 79.131 11.2945 79.2972C22.4858 84.8025 28.6372 97.5879 28.6372 100.823C28.6372 101.205 28.9427 101.515 29.3191 101.515Z" fill="#388E3C"/>
<path d="M0.0517357 71.4884C0.156693 71.2295 0.40624 71.0606 0.681737 71.0606C27.1363 71.0606 29.9999 82.1932 29.9999 86.98C29.9999 93.19 25.3417 97.3623 18.409 97.3623C9.65311 97.3623 7.81897 88.9042 6.83447 84.3595C5.87719 79.7332 3.56449 75.5097 0.200352 72.2414C0.00533019 72.0435 -0.0532857 71.7472 0.0517357 71.4884Z" fill="#1B8833"/>
<path d="M18.409 97.3623C25.3418 97.3623 29.9999 93.19 29.9999 86.98C29.9999 82.1932 27.1431 71.0606 0.681741 71.0606C0.403559 71.0606 0.15267 71.2337 0.0489907 71.4953C-0.0546245 71.7583 0.00942377 72.0587 0.209878 72.2539C3.58897 75.5264 5.87854 79.7112 6.83172 84.3527C7.81763 88.9042 9.65036 97.3623 18.409 97.3623ZM2.31945 72.4629C11.3781 72.6581 28.6363 74.6542 28.6363 86.98C28.6363 92.3622 24.5263 95.978 18.409 95.978C11.3386 95.978 9.41443 89.8275 8.16536 84.0633C7.27079 79.7069 5.26081 75.7271 2.31945 72.4629Z" fill="black"/>
<path d="M29.3191 101.903C29.6954 101.903 30.0009 101.593 30.0009 101.211C30.0009 97.0952 22.9714 83.8903 11.8891 78.439C11.5495 78.2729 11.1432 78.4155 10.9782 78.7588C10.8145 79.1035 10.955 79.5174 11.2945 79.6835C22.4858 85.1903 28.6372 97.9757 28.6372 101.211C28.6372 101.593 28.9427 101.903 29.3191 101.903Z" fill="black"/>
<path d="M32.0009 54.8182L32.0009 134" stroke="black" stroke-width="5"/>
<line x1="32.0009" y1="134" x2="32.0009" y2="58.8788" stroke="#1B8833" stroke-width="2"/>
<path d="M32 30.4545C32 30.4545 23.5625 11.4205 32 2.85511C40.4375 11.4205 32 30.4545 32 30.4545Z" fill="#FDD14B"/>
<path d="M32 30.4545C32 30.4545 39.292 10.9388 51.2245 10.9388C51.2245 23.0521 32 30.4545 32 30.4545V30.4545Z" fill="#FDD14B"/>
<path d="M32 30.4545C32 30.4545 50.75 21.8892 59.1875 30.4545C50.75 39.0199 32 30.4545 32 30.4545Z" fill="#FDD14B"/>
<path d="M32 30.4545C32 30.4545 51.2245 37.857 51.2245 49.9703C39.292 49.9703 32 30.4545 32 30.4545V30.4545Z" fill="#FDD14B"/>
<path d="M32 30.4545C32 30.4545 40.4375 49.4886 32 58.054C23.5625 49.4886 32 30.4545 32 30.4545Z" fill="#FDD14B"/>
<path d="M32 30.4545C32 30.4545 24.708 49.9703 12.7755 49.9703C12.7755 37.857 32 30.4545 32 30.4545V30.4545Z" fill="#FDD14B"/>
<path d="M32 30.4545C32 30.4545 13.25 39.0199 4.8125 30.4545C13.25 21.8892 32 30.4545 32 30.4545Z" fill="#FDD14B"/>
<path d="M32 30.4545C32 30.4545 12.7755 23.0521 12.7755 10.9388C24.708 10.9388 32 30.4545 32 30.4545Z" fill="#FDD14B"/>
<path d="M32 30.4545C32 30.4545 17.0294 16.1471 21.5957 4.956C32.6199 9.59152 32 30.4545 32 30.4545Z" fill="#FDD14B"/>
<path d="M32 30.4545C32 30.4545 31.3801 9.59152 42.4043 4.956C46.9706 16.1471 32 30.4545 32 30.4545Z" fill="#FDD14B"/>
<path d="M32 30.4545C32 30.4545 46.0939 15.2571 57.118 19.8926C52.5516 31.0839 32 30.4545 32 30.4545Z" fill="#FDD14B"/>
<path d="M32 30.4545C32 30.4545 52.5516 29.8252 57.118 41.0164C46.0939 45.652 32 30.4545 32 30.4545Z" fill="#FDD14B"/>
<path d="M32 30.4545C32 30.4545 46.9706 44.762 42.4043 55.9531C31.3801 51.3176 32 30.4545 32 30.4545Z" fill="#FDD14B"/>
<path d="M32 30.4545C32 30.4545 32.6199 51.3176 21.5957 55.9531C17.0294 44.762 32 30.4545 32 30.4545Z" fill="#FDD14B"/>
<path d="M32 30.4545C32 30.4545 17.9061 45.652 6.88203 41.0164C11.4484 29.8252 32 30.4545 32 30.4545Z" fill="#FDD14B"/>
<path d="M32 30.4545C32 30.4545 11.4484 31.0839 6.88203 19.8926C17.9061 15.2571 32 30.4545 32 30.4545Z" fill="#FDD14B"/>
<path d="M32 30.4545C32 30.4545 46.6016 14.0139 50.1889 22.8063C53.7762 31.5987 32 30.4545 32 30.4545Z" fill="#E4BC43"/>
<path d="M32 30.4545C32 30.4545 53.7765 29.3101 50.1889 38.1028C46.6013 46.8955 32 30.4545 32 30.4545Z" fill="#E4BC43"/>
<path d="M32 30.4545C32 30.4545 48.1953 45.2773 39.5341 48.919C30.8729 52.5607 32 30.4545 32 30.4545Z" fill="#E4BC43"/>
<path d="M32 30.4545C32 30.4545 33.1273 52.561 24.4659 48.919C15.8045 45.2771 32 30.4545 32 30.4545Z" fill="#E4BC43"/>
<path d="M32 30.6881C32 30.6881 17.3984 47.1288 13.8111 38.3363C10.2237 29.5439 32 30.6881 32 30.6881Z" fill="#E4BC43"/>
<path d="M32 30.6881C32 30.6881 10.2235 31.8325 13.8111 23.0399C17.3987 14.2474 32 30.6881 32 30.6881Z" fill="#E4BC43"/>
<path d="M32 30.4545C32 30.4545 15.8047 15.6317 24.4659 11.99C33.1271 8.34835 32 30.4545 32 30.4545Z" fill="#E4BC43"/>
<path d="M32 30.4545C32 30.4545 30.8727 8.34812 39.5341 11.9901C48.1955 15.632 32 30.4545 32 30.4545Z" fill="#E4BC43"/>
<path d="M32 30.4545C32 30.4545 23.5625 17.1307 32 17.1307C40.4375 17.1307 32 30.4545 32 30.4545Z" fill="#CDA93C"/>
<path d="M32 30.4545C32 30.4545 35.3145 14.9765 41.2813 21.0327C47.248 27.0888 32 30.4545 32 30.4545Z" fill="#BD9C37"/>
<path d="M32 30.4545C32 30.4545 45.125 21.8892 45.125 30.4545C45.125 39.0199 32 30.4545 32 30.4545Z" fill="#CDA93C"/>
<path d="M32 30.4545C32 30.4545 47.247 33.8193 41.2813 39.8764C35.3155 45.9335 32 30.4545 32 30.4545Z" fill="#BD9C37"/>
<path d="M32 30.4545C32 30.4545 40.4375 43.7784 32 43.7784C23.5625 43.7784 32 30.4545 32 30.4545Z" fill="#CDA93C"/>
<path d="M32 30.4545C32 30.4545 28.6855 45.9326 22.7188 39.8764C16.752 33.8203 32 30.4545 32 30.4545Z" fill="#BD9C37"/>
<path d="M32 30.4545C32 30.4545 18.875 39.0199 18.875 30.4545C18.875 21.8892 32 30.4545 32 30.4545Z" fill="#CDA93C"/>
<path d="M32 30.4545C32 30.4545 16.753 27.0898 22.7188 21.0327C28.6845 14.9755 32 30.4545 32 30.4545Z" fill="#BD9C37"/>
<path d="M32 36.1648C35.1066 36.1648 37.625 33.6082 37.625 30.4545C37.625 27.3009 35.1066 24.7443 32 24.7443C28.8934 24.7443 26.375 27.3009 26.375 30.4545C26.375 33.6082 28.8934 36.1648 32 36.1648Z" fill="#E4BC43"/>
<path d="M32 32.358C33.0355 32.358 33.875 31.5058 33.875 30.4545C33.875 29.4033 33.0355 28.5511 32 28.5511C30.9645 28.5511 30.125 29.4033 30.125 30.4545C30.125 31.5058 30.9645 32.358 32 32.358Z" fill="#BD9C37"/>
<path d="M10.8828 34.7176C8.59227 36.3521 6.95961 38.3406 6.01637 40.6522C5.92124 40.8854 5.92125 41.1474 6.01641 41.3806C6.11157 41.6137 6.29408 41.799 6.52379 41.8956C8.06459 42.5361 9.71534 42.8596 11.3803 42.8473C12.291 42.8442 13.1997 42.7612 14.0963 42.5994C12.5963 44.9985 11.8385 47.4677 11.8385 49.9707C11.8385 50.2231 11.9372 50.4652 12.1131 50.6436C12.2889 50.8221 12.5273 50.9224 12.776 50.9224C15.2416 50.9224 17.6744 50.1525 20.0373 48.6304C19.5568 51.4294 19.7871 54.0065 20.7301 56.3176C20.7771 56.4332 20.8461 56.5382 20.9331 56.6266C21.0202 56.7151 21.1235 56.7852 21.2373 56.8331C21.3511 56.8809 21.4731 56.9055 21.5962 56.9054C21.7194 56.9053 21.8413 56.8806 21.955 56.8326C24.2323 55.8752 26.1908 54.2177 27.8008 51.8925C28.4117 54.6656 29.5938 56.9574 31.3375 58.7273C31.4246 58.8157 31.5279 58.8858 31.6417 58.9336C31.7554 58.9815 31.8773 59.0061 32.0005 59.0061C32.1236 59.0061 32.2455 58.9815 32.3592 58.9336C32.473 58.8858 32.5763 58.8157 32.6634 58.7273C34.407 56.9573 35.589 54.6652 36.1998 51.8921C37.8099 54.2174 39.7685 55.8751 42.0459 56.8326C42.1596 56.8806 42.2816 56.9053 42.4047 56.9054C42.5279 56.9055 42.6498 56.8809 42.7636 56.8331C42.8774 56.7852 42.9808 56.7151 43.0678 56.6266C43.1549 56.5382 43.2239 56.4332 43.2709 56.3176C44.2139 54.0065 44.4443 51.4294 43.9637 48.6304C46.327 50.1523 48.7606 50.9224 51.225 50.9224C51.4736 50.9224 51.7121 50.8221 51.8879 50.6436C52.0637 50.4652 52.1625 50.2231 52.1625 49.9707C52.1625 47.4678 51.404 44.998 49.9047 42.5994C50.8013 42.7612 51.71 42.8442 52.6207 42.8473C54.2856 42.8595 55.9363 42.536 57.4771 41.8956C57.7069 41.799 57.8894 41.6137 57.9845 41.3806C58.0797 41.1474 58.0797 40.8854 57.9846 40.6522C57.0413 38.3406 55.4057 36.3531 53.115 34.7185C55.848 34.0987 58.1072 32.8984 59.8509 31.1275C59.938 31.0391 60.007 30.9342 60.0541 30.8188C60.1013 30.7033 60.1255 30.5795 60.1255 30.4545C60.1255 30.3296 60.1013 30.2058 60.0541 30.0903C60.007 29.9749 59.938 29.8699 59.8509 29.7816C58.1073 28.0115 55.8493 26.8118 53.1175 26.1916C55.4083 24.5572 57.0412 22.5688 57.9846 20.2569C58.0797 20.0237 58.0797 19.7617 57.9845 19.5285C57.8894 19.2954 57.7069 19.1101 57.4771 19.0135C55.2007 18.0561 52.662 17.8222 49.9046 18.3101C51.4046 15.911 52.1625 13.4418 52.1625 10.9388C52.1625 10.6864 52.0637 10.4443 51.8879 10.2658C51.7121 10.0873 51.4736 9.98707 51.225 9.98707C48.7593 9.98707 46.3265 10.757 43.9637 12.2791C44.4441 9.48005 44.2139 6.90295 43.2709 4.59185C43.2237 4.47639 43.1547 4.37147 43.0676 4.2831C42.9806 4.19473 42.8772 4.12463 42.7634 4.07681C42.6497 4.02899 42.5278 4.00438 42.4047 4.00439C42.2816 4.0044 42.1596 4.02903 42.0459 4.07686C39.7687 5.03428 37.8102 6.69179 36.2001 9.01692C35.5892 6.24389 34.4071 3.95207 32.6634 2.18214C32.5763 2.09376 32.473 2.02365 32.3592 1.97582C32.2455 1.92799 32.1236 1.90337 32.0005 1.90337C31.8773 1.90337 31.7554 1.92799 31.6417 1.97582C31.5279 2.02365 31.4246 2.09376 31.3375 2.18214C29.594 3.95207 28.4116 6.24401 27.8008 9.01692C26.1908 6.69179 24.2322 5.0344 21.955 4.07686C21.8413 4.02896 21.7193 4.00428 21.5961 4.00424C21.473 4.0042 21.351 4.0288 21.2372 4.07664C21.1234 4.12448 21.02 4.19461 20.9329 4.28304C20.8458 4.37146 20.7767 4.47644 20.7296 4.59197C19.7866 6.90307 19.5562 9.48017 20.0368 12.2792C17.6736 10.7565 15.2411 9.98719 12.7755 9.98719C12.5269 9.98719 12.2884 10.0875 12.1126 10.2659C11.9368 10.4444 11.838 10.6865 11.838 10.9389C11.838 13.442 12.5963 15.9115 14.0957 18.3103C11.3384 17.8226 8.79992 18.0562 6.52332 19.0136C6.29361 19.1102 6.1111 19.2955 6.01595 19.5287C5.92079 19.7618 5.92077 20.0238 6.0159 20.257C6.95926 22.569 8.59215 24.5572 10.8828 26.1917C8.15117 26.8118 5.8932 28.0119 4.14957 29.7817C4.06251 29.8701 3.99345 29.975 3.94633 30.0905C3.89922 30.2059 3.87497 30.3297 3.87497 30.4547C3.87497 30.5797 3.89922 30.7034 3.94633 30.8189C3.99345 30.9343 4.06251 31.0393 4.14957 31.1276C5.89309 32.8975 8.15094 34.0976 10.8828 34.7176V34.7176ZM8.17027 40.4747C9.09383 38.7202 10.5403 37.1929 12.4882 35.9139C12.4268 36.7139 12.5779 37.5675 12.9452 38.4671C13.3125 39.3667 13.7994 40.0778 14.3997 40.5995C12.1314 41.0931 10.045 41.0521 8.17027 40.4747V40.4747ZM20.4632 24.4725C20.5616 24.9566 20.7475 25.418 21.0116 25.8333C20.3714 25.97 19.7768 26.2723 19.2856 26.7109C18.8465 27.118 18.5099 27.626 18.3038 28.1923C16.3653 27.5567 15.0956 26.7164 14.6007 25.7298C14.2415 25.0138 14.2665 24.1766 14.677 23.1706C15.0836 22.174 15.6418 21.5665 16.3835 21.3135C17.4192 20.9601 18.9133 21.2752 20.7379 22.2225C20.4152 22.9244 20.3191 23.7119 20.4634 24.4725H20.4632ZM32 25.696C32.9271 25.696 33.8334 25.9751 34.6042 26.498C35.3751 27.0209 35.9759 27.764 36.3307 28.6335C36.6855 29.503 36.7783 30.4598 36.5974 31.3829C36.4166 32.306 35.9701 33.1538 35.3146 33.8193C34.659 34.4848 33.8238 34.938 32.9145 35.1216C32.0052 35.3052 31.0627 35.211 30.2062 34.8508C29.3496 34.4907 28.6176 33.8808 28.1025 33.0982C27.5874 32.3157 27.3125 31.3957 27.3125 30.4545C27.3139 29.1929 27.8082 27.9834 28.687 27.0913C29.5658 26.1992 30.7572 25.6974 32 25.696V25.696ZM29.707 18.82C30.1406 18.3307 30.9116 18.0824 32 18.0824C33.0884 18.0824 33.8599 18.3305 34.293 18.82C34.7007 19.2806 34.8692 20.0198 34.7957 21.0188C34.1502 21.9165 33.6016 22.8822 33.1593 23.899C32.3929 23.7574 31.6075 23.7574 30.841 23.899C30.3987 22.8819 29.8499 21.916 29.2041 21.018C29.1308 20.0193 29.2994 19.2803 29.707 18.82V18.82ZM43.2605 22.2229C45.0898 21.2727 46.5887 20.9584 47.6245 21.3164C48.3621 21.5709 48.9175 22.1775 49.3228 23.1706C49.7287 24.1654 49.7577 24.9944 49.4115 25.7045C48.9266 26.6994 47.6503 27.5511 45.6976 28.1919C45.437 27.4636 44.9565 26.8376 44.3246 26.403C43.918 26.1313 43.4653 25.9386 42.9895 25.8346C43.3431 25.2838 43.5521 24.6505 43.5968 23.9946C43.6275 23.3851 43.5121 22.7772 43.2605 22.2229V22.2229ZM43.5366 36.4366C43.4385 35.9528 43.2527 35.4917 42.9888 35.0766C43.6312 34.9392 44.2274 34.6349 44.7193 34.1936C45.156 33.7871 45.4909 33.2807 45.6962 32.7165C47.6496 33.3572 48.9264 34.2093 49.411 35.2044C49.7572 35.9147 49.7282 36.7436 49.3223 37.7383C48.9164 38.733 48.3575 39.3424 47.6158 39.5953C46.5799 39.9486 45.0859 39.6335 43.2614 38.6862C43.5843 37.9845 43.6806 37.1972 43.5366 36.4366V36.4366ZM43.2804 27.9842C43.8828 28.394 44.1875 29.2251 44.1875 30.4545C44.1875 31.5576 43.9439 32.3402 43.4633 32.7803C43.0099 33.1955 42.281 33.3676 41.2953 33.2929C40.4108 32.6374 39.4594 32.0804 38.4576 31.6313C38.6526 30.5404 38.5743 29.4172 38.2298 28.3651C40.5887 27.5007 42.3651 27.3615 43.2804 27.9842V27.9842ZM40.6179 39.2024C39.8499 39.9819 39.1331 40.3613 38.4869 40.3271C37.8767 40.2957 37.2412 39.894 36.5957 39.1334C36.4268 38.0342 36.1419 36.9566 35.7458 35.9194C36.6409 35.2853 37.3673 34.4359 37.8601 33.4472C40.1314 34.5297 41.4838 35.7063 41.6971 36.8043C41.8373 37.5268 41.4743 38.3336 40.6179 39.203V39.2024ZM41.725 23.8821C41.6892 24.4979 41.293 25.1384 40.5487 25.7887C39.4664 25.9604 38.4053 26.2496 37.3838 26.6513C36.7592 25.7427 35.9225 25.0053 34.9486 24.5051C36.0143 22.1998 37.173 20.8273 38.2546 20.6101C38.966 20.4674 39.7611 20.8361 40.6179 21.7055C41.3909 22.4909 41.7634 23.2231 41.725 23.8827V23.8821ZM34.4335 41.905C34.0299 42.5174 33.2111 42.8267 32 42.8267C30.9117 42.8267 30.1401 42.5786 29.707 42.0891C29.2993 41.6285 29.1307 40.8893 29.2043 39.8903C29.8498 38.9926 30.3985 38.0269 30.8408 37.0101C31.9154 37.2081 33.0218 37.1285 34.0583 36.7789C34.9098 39.1734 35.0469 40.9765 34.4335 41.9058V41.905ZM29.0514 36.4026C27.985 38.7083 26.8261 40.0812 25.7444 40.2978C25.0334 40.4405 24.2386 40.0718 23.3821 39.2021C22.616 38.4251 22.2431 37.6994 22.2734 37.0451C22.3027 36.4244 22.6992 35.7774 23.4506 35.1204C24.5331 34.949 25.5943 34.6599 26.6159 34.2582C27.2408 35.1664 28.0776 35.9035 29.0514 36.4034V36.4026ZM26.1406 27.4613C23.8692 26.3788 22.5167 25.2022 22.3034 24.1042C22.1628 23.3823 22.5261 22.5755 23.3827 21.7061C24.237 20.8388 25.0299 20.4689 25.7396 20.6094C26.8211 20.8222 27.9847 22.1967 29.0524 24.5056C27.7963 25.1506 26.7761 26.1862 26.1406 27.4613V27.4613ZM22.7054 27.616C23.5898 28.2714 24.541 28.8283 25.5427 29.2773C25.3478 30.3682 25.4261 31.4914 25.7705 32.5435C23.4119 33.4079 21.6355 33.5477 20.7204 32.9242C20.1172 32.5151 19.8125 31.684 19.8125 30.4545C19.8125 29.3497 20.057 28.5665 20.5391 28.1268C20.9927 27.713 21.7207 27.5419 22.7048 27.6163L22.7054 27.616ZM19.6761 34.5055C20.0834 34.7766 20.5367 34.9687 21.013 35.072C20.651 35.6342 20.4403 36.2827 20.4017 36.9531C20.3784 37.5496 20.4944 38.1431 20.7402 38.6854C18.9093 39.636 17.4089 39.9502 16.3734 39.5916C15.6372 39.3363 15.0826 38.7301 14.6778 37.7382C14.2719 36.7432 14.2429 35.9141 14.5892 35.2037C15.0743 34.209 16.3505 33.3572 18.303 32.7173C18.5635 33.4454 19.0438 34.0713 19.6755 34.5058L19.6761 34.5055ZM20.9879 45.5563C18.6237 47.5799 16.1994 48.726 13.7621 48.9691C14.0015 46.4947 15.1302 44.0345 17.1229 41.6351C17.1815 41.637 17.2401 41.6384 17.3002 41.6384C18.5961 41.6384 20.1016 41.1807 21.7978 40.2723C21.881 40.3647 21.9664 40.4567 22.0569 40.5487C22.1473 40.6406 22.2387 40.7278 22.3299 40.8124C21.3945 42.6136 20.9443 44.2017 20.9873 45.5567L20.9879 45.5563ZM22.13 54.6451C21.5611 52.7417 21.5206 50.6241 22.007 48.3215C22.5208 48.9308 23.222 49.4256 24.1077 49.7981C24.7941 50.1014 25.5328 50.2642 26.2814 50.277C26.396 50.277 26.5092 50.2709 26.6212 50.262C25.3612 52.2392 23.8573 53.708 22.1294 54.6453L22.13 54.6451ZM27.3214 48.1296C26.6218 48.4809 25.8051 48.4516 24.8253 48.0396C23.8455 47.6275 23.2473 47.062 22.9972 46.3111C22.6471 45.2599 22.9562 43.7415 23.8904 41.8873C24.3718 42.1117 24.8946 42.2299 25.4244 42.2342C25.6538 42.234 25.8826 42.2111 26.1076 42.1657C26.5845 42.066 27.0391 41.8772 27.4482 41.609C27.5828 42.2589 27.8806 42.8625 28.3128 43.3611C28.7139 43.8069 29.2143 44.1488 29.7723 44.358C29.1406 46.3414 28.3013 47.6376 27.3211 48.1298L27.3214 48.1296ZM32 56.6383C30.4464 54.7172 29.5303 52.1665 29.268 49.0394C30.2428 48.1115 31.0319 46.6667 31.625 44.7211C31.7478 44.7266 31.8723 44.7304 32 44.7304C32.1277 44.7304 32.2534 44.727 32.3765 44.7214C32.9693 46.6664 33.7578 48.1119 34.732 49.0398C34.4701 52.167 33.5539 54.7173 32 56.6383V56.6383ZM34.229 44.3593C34.9463 44.0947 35.5628 43.6069 35.9908 42.9655C36.2586 42.5526 36.4486 42.0927 36.551 41.6094C37.1014 41.974 37.7358 42.1872 38.3919 42.228C38.4509 42.2309 38.51 42.2324 38.5689 42.2325C39.1008 42.2283 39.6258 42.1098 40.1094 41.8849C41.0445 43.7407 41.3536 45.2599 41.003 46.3115C40.7529 47.062 40.155 47.6271 39.1749 48.0391C38.1949 48.451 37.382 48.4805 36.6826 48.1312C35.7017 47.6413 34.8609 46.3439 34.229 44.3595V44.3593ZM41.8706 54.6451C40.1425 53.7078 38.6388 52.2388 37.3789 50.2619C37.4914 50.2708 37.6046 50.2769 37.7193 50.2769C38.4679 50.2641 39.2065 50.1014 39.8929 49.7981C40.7786 49.4256 41.4798 48.9308 41.9936 48.3214C42.4797 50.6239 42.4395 52.742 41.8706 54.6453V54.6451ZM50.2385 48.9691C47.8107 48.7267 45.3934 47.59 43.0389 45.5811C43.0302 45.5736 43.0215 45.5657 43.0127 45.5581C43.0562 44.2026 42.6065 42.614 41.6707 40.8124C41.7618 40.7278 41.8529 40.6409 41.9437 40.5488C42.0345 40.4567 42.1195 40.3651 42.2029 40.273C43.9003 41.1818 45.4051 41.6385 46.7011 41.6385C46.7604 41.6385 46.8189 41.6371 46.8768 41.6352C48.8701 44.0348 49.9989 46.4957 50.2385 48.9694V48.9691ZM55.8297 40.4745C53.9547 41.052 51.8688 41.0931 49.6005 40.5994C50.2007 40.0777 50.6881 39.3661 51.055 38.4668C51.422 37.5676 51.5731 36.714 51.5121 35.9141C53.4594 37.1932 54.9063 38.7203 55.8297 40.4747V40.4745ZM57.793 30.4545C55.9004 32.0318 53.3878 32.9616 50.3074 33.2278C49.3933 32.2384 47.9701 31.4373 46.0535 30.8353C46.059 30.7106 46.0627 30.5842 46.0627 30.4547C46.0627 30.3251 46.0595 30.1984 46.0541 30.074C47.9711 29.4719 49.3946 28.6702 50.308 27.681C53.3888 27.947 55.9007 28.8773 57.793 30.4545ZM55.8295 20.4344C54.9061 22.1886 53.4591 23.7153 51.5117 24.9941C51.5729 24.1945 51.4217 23.3414 51.0547 22.442C50.6877 21.5427 50.2004 20.8311 49.6 20.3095C51.8684 19.8159 53.955 19.8568 55.8297 20.4344H55.8295ZM43.0127 15.3525C45.3768 13.3289 47.8013 12.1828 50.2385 11.9396C49.9991 14.414 48.8702 16.8747 46.8771 19.2745C45.542 19.2306 43.9773 19.6871 42.2033 20.637C42.12 20.5446 42.0343 20.4521 41.9437 20.3601C41.8531 20.268 41.762 20.1805 41.6709 20.096C42.6062 18.2953 43.0557 16.7074 43.0127 15.3525V15.3525ZM41.8706 6.26376C42.4395 8.16717 42.48 10.2847 41.9935 12.5874C41.4798 11.978 40.7786 11.4833 39.8929 11.1108C39.0072 10.7383 38.1666 10.5849 37.3789 10.6468C38.6388 8.67003 40.1425 7.20107 41.8706 6.26376V6.26376ZM36.6792 12.7793C37.379 12.428 38.1957 12.4573 39.1753 12.8693C40.1548 13.2813 40.7533 13.8468 41.0034 14.5977C41.3534 15.6491 41.0443 17.1673 40.1098 19.0226C39.4177 18.6944 38.641 18.5967 37.8909 18.7435C37.4147 18.8433 36.9608 19.032 36.5524 19.2999C36.4178 18.6499 36.12 18.0463 35.6878 17.5478C35.2867 17.1019 34.7862 16.7601 34.2283 16.5509C34.8594 14.5677 35.6987 13.2716 36.6788 12.7793H36.6792ZM32 4.27077C33.5537 6.19191 34.4697 8.7426 34.732 11.8697C33.7572 12.7976 32.9681 14.2425 32.3751 16.1886C32.2522 16.183 32.1277 16.1792 32.0001 16.1792C31.8725 16.1792 31.7471 16.183 31.6238 16.1886C31.0311 14.2437 30.2427 12.7982 29.2684 11.8703C29.5302 8.7426 30.4462 6.19179 32 4.27077ZM29.7713 16.551C29.2136 16.7602 28.7133 17.102 28.3123 17.5478C27.8803 18.0462 27.5824 18.6496 27.4477 19.2994C27.0355 19.0289 26.577 18.8393 26.096 18.7403C25.3499 18.5974 24.5785 18.6961 23.8906 19.0222C22.9562 17.1676 22.647 15.649 22.9971 14.5976C23.247 13.8467 23.845 13.2814 24.8252 12.8692C25.8032 12.4581 26.6182 12.4278 27.3173 12.777C28.2983 13.2677 29.1395 14.5658 29.7713 16.551V16.551ZM22.1294 6.26376C23.8575 7.20119 25.3613 8.67015 26.6212 10.6471C25.8334 10.585 24.993 10.7384 24.1071 11.111C23.2211 11.4836 22.5202 11.9783 22.0064 12.5876C21.5203 10.2851 21.5605 8.16705 22.1294 6.26376ZM13.7615 11.9396C16.199 12.1828 18.6232 13.329 20.9873 15.3524C20.9443 16.7074 21.3938 18.2953 22.3291 20.0958C22.238 20.1804 22.1471 20.268 22.0563 20.3601C21.9655 20.4521 21.8792 20.5448 21.7958 20.6374C20.0217 19.6879 18.4575 19.2317 17.1228 19.2755C15.1291 16.8753 14.0011 14.414 13.7615 11.9396V11.9396ZM8.17027 20.4344C10.0453 19.857 12.1312 19.8158 14.3995 20.3096C13.7991 20.8311 13.3119 21.5429 12.945 22.442C12.578 23.3412 12.4268 24.1945 12.4879 24.994C10.5405 23.7151 9.09359 22.1885 8.17027 20.4344V20.4344ZM13.6916 27.6809C14.6049 28.6696 16.0289 29.4701 17.9468 30.0732C17.9412 30.1981 17.9375 30.3246 17.9375 30.4545C17.9375 30.5845 17.9408 30.7108 17.9462 30.8352C16.0293 31.4372 14.6063 32.2383 13.6923 33.2278C10.6115 32.9618 8.09938 32.032 6.20703 30.4545C8.09926 28.8773 10.6112 27.9472 13.6916 27.6809V27.6809Z" fill="black"/>
<path d="M32 33.3097C32.5563 33.3097 33.1 33.1422 33.5625 32.8285C34.0251 32.5148 34.3855 32.0689 34.5984 31.5471C34.8113 31.0254 34.867 30.4514 34.7585 29.8975C34.6499 29.3437 34.3821 28.835 33.9887 28.4357C33.5954 28.0364 33.0943 27.7645 32.5487 27.6543C32.0031 27.5441 31.4376 27.6007 30.9237 27.8168C30.4098 28.0329 29.9705 28.3988 29.6615 28.8683C29.3524 29.3379 29.1875 29.8899 29.1875 30.4545C29.1883 31.2115 29.4849 31.9372 30.0122 32.4725C30.5395 33.0077 31.2543 33.3088 32 33.3097V33.3097ZM32 29.5028C32.1854 29.5028 32.3667 29.5587 32.5208 29.6632C32.675 29.7678 32.7952 29.9164 32.8661 30.0903C32.9371 30.2642 32.9557 30.4556 32.9195 30.6402C32.8833 30.8248 32.794 30.9944 32.6629 31.1275C32.5318 31.2606 32.3648 31.3512 32.1829 31.388C32.001 31.4247 31.8125 31.4058 31.6412 31.3338C31.4699 31.2618 31.3235 31.1398 31.2205 30.9833C31.1175 30.8268 31.0625 30.6428 31.0625 30.4545C31.0628 30.2022 31.1616 29.9603 31.3374 29.7819C31.5132 29.6035 31.7514 29.5031 32 29.5028Z" fill="black"/>
<defs>
<clipPath id="clip0">
<rect width="30" height="30.4545" fill="white" transform="translate(33.0009 63.9545)"/>
</clipPath>
</defs>
</svg>
