<svg width="63" height="137" viewBox="0 0 63 137" fill="none" xmlns="http://www.w3.org/2000/svg">
<g clip-path="url(#clip0)">
<path d="M62.9501 67.3823C62.8451 67.1235 62.5956 66.9545 62.3201 66.9545C35.8655 66.9545 33.0019 78.0871 33.0019 82.874C33.0019 89.0839 37.6601 93.2562 44.5928 93.2562C53.3487 93.2562 55.1828 84.7981 56.1673 80.2535C57.1246 75.6272 59.4373 71.4037 62.8014 68.1353C62.9965 67.9374 63.0551 67.6411 62.9501 67.3823Z" fill="#1B8833"/>
<path d="M33.6827 97.4091C33.3064 97.4091 33.0009 97.099 33.0009 96.7169C33.0009 92.6014 40.0304 79.3966 51.1127 73.9452C51.4523 73.7791 51.86 73.9217 52.0236 74.2664C52.1873 74.6111 52.0468 75.025 51.7073 75.1911C40.516 80.6965 34.3646 93.4819 34.3646 96.717C34.3646 97.0991 34.0591 97.4091 33.6827 97.4091Z" fill="#388E3C"/>
<path d="M44.5928 93.2562C37.66 93.2562 33.0019 89.0839 33.0019 82.874C33.0019 78.0871 35.8587 66.9545 62.3201 66.9545C62.5982 66.9545 62.8491 67.1276 62.9528 67.3892C63.0564 67.6522 62.9924 67.9527 62.7919 68.1479C59.4128 71.4203 57.1233 75.6051 56.1701 80.2466C55.1842 84.7982 53.3514 93.2562 44.5928 93.2562ZM60.6824 68.3569C51.6237 68.552 34.3655 70.5482 34.3655 82.874C34.3655 88.2561 38.4755 91.8719 44.5928 91.8719C51.6632 91.8719 53.5874 85.7215 54.8364 79.9573C55.731 75.6009 57.741 71.621 60.6824 68.3569Z" fill="black"/>
<path d="M33.6827 97.7968C33.3064 97.7968 33.0009 97.4867 33.0009 97.1046C33.0009 92.9891 40.0304 79.7843 51.1127 74.3329C51.4523 74.1668 51.8586 74.3094 52.0236 74.6527C52.1873 74.9974 52.0468 75.4113 51.7073 75.5775C40.516 81.0842 34.3646 93.8696 34.3646 97.1047C34.3646 97.4868 34.0591 97.7968 33.6827 97.7968Z" fill="black"/>
</g>
<path d="M29.3191 104.515C29.6954 104.515 30.0009 104.205 30.0009 103.823C30.0009 99.7075 22.9714 86.5026 11.8891 81.0513C11.5495 80.8852 11.1418 81.0277 10.9782 81.3724C10.8145 81.7171 10.955 82.131 11.2945 82.2972C22.4858 87.8025 28.6372 100.588 28.6372 103.823C28.6372 104.205 28.9427 104.515 29.3191 104.515Z" fill="#388E3C"/>
<path d="M0.0517357 74.4884C0.156693 74.2295 0.40624 74.0606 0.681737 74.0606C27.1363 74.0606 29.9999 85.1932 29.9999 89.98C29.9999 96.19 25.3417 100.362 18.409 100.362C9.65311 100.362 7.81897 91.9042 6.83447 87.3595C5.87719 82.7332 3.56449 78.5097 0.200352 75.2414C0.00533019 75.0435 -0.0532857 74.7472 0.0517357 74.4884Z" fill="#1B8833"/>
<path d="M18.409 100.362C25.3418 100.362 29.9999 96.19 29.9999 89.98C29.9999 85.1932 27.1431 74.0606 0.681741 74.0606C0.403559 74.0606 0.15267 74.2337 0.0489907 74.4953C-0.0546245 74.7583 0.00942377 75.0587 0.209878 75.2539C3.58897 78.5264 5.87854 82.7112 6.83172 87.3527C7.81763 91.9042 9.65036 100.362 18.409 100.362ZM2.31945 75.4629C11.3781 75.6581 28.6363 77.6542 28.6363 89.98C28.6363 95.3622 24.5263 98.978 18.409 98.978C11.3386 98.978 9.41443 92.8275 8.16536 87.0633C7.27079 82.7069 5.26081 78.7271 2.31945 75.4629Z" fill="black"/>
<path d="M29.3191 104.903C29.6954 104.903 30.0009 104.593 30.0009 104.211C30.0009 100.095 22.9714 86.8903 11.8891 81.439C11.5495 81.2729 11.1432 81.4155 10.9782 81.7588C10.8145 82.1035 10.955 82.5174 11.2945 82.6835C22.4858 88.1903 28.6372 100.976 28.6372 104.211C28.6372 104.593 28.9427 104.903 29.3191 104.903Z" fill="black"/>
<path d="M32.0009 57.8182L32.0009 137" stroke="black" stroke-width="5"/>
<line x1="32.0009" y1="137" x2="32.0009" y2="61.8788" stroke="#1B8833" stroke-width="2"/>
<path d="M31.9995 31.463H21.0271C12.7178 31.463 5.87758 37.8758 5.49611 46.0236L5.10206 54.4336L8.35384 51.7131C10.6128 49.823 13.484 48.7848 16.4523 48.7848C25.039 48.7848 31.9995 41.9517 31.9995 33.5229V31.463Z" fill="#8E3395"/>
<path d="M31.9995 31.463H42.9725C51.2812 31.463 58.122 37.8758 58.5034 46.0236L58.8975 54.4336L55.6457 51.7131C53.3868 49.823 50.5155 48.7848 47.5473 48.7848C38.9606 48.7848 31.9995 41.9517 31.9995 33.5229V31.463Z" fill="#8E3395"/>
<path d="M22.4256 20.0143C22.4256 26.1571 26.1684 27.9314 31.9995 31.463C37.8306 27.9314 41.5739 26.1571 41.5739 20.0143C41.5739 13.8721 37.8306 4.70306 31.9995 1.17188C26.1689 4.70306 22.4256 13.8721 22.4256 20.0143V20.0143Z" fill="#F57CFF"/>
<path d="M22.4256 20.0143C22.4256 26.1571 26.1684 27.9314 31.9995 31.463C37.8306 27.9314 41.5739 26.1571 41.5739 20.0143C41.5739 13.8721 37.8306 4.70306 31.9995 1.17188C26.1689 4.70306 22.4256 13.8721 22.4256 20.0143V20.0143Z" fill="#8E3395"/>
<path d="M40.5648 42.9112C40.5648 36.7689 37.216 34.9947 31.9995 31.463C26.7835 34.9947 23.4348 36.7685 23.4348 42.9112C23.4348 49.054 26.7835 55.2965 31.9995 58.8281C37.216 55.2965 40.5648 49.054 40.5648 42.9112V42.9112Z" fill="#F57CFF"/>
<path d="M32 31.463L28.7221 21.9026C26.2402 14.6626 18.3978 10.6183 10.9164 12.7199L3.19426 14.8888L6.62558 16.9093C9.0095 18.3128 10.8058 20.5046 11.6928 23.0905C14.2577 30.5722 22.5156 34.5959 30.1374 32.0782L32 31.463Z" fill="#F57CFF"/>
<path d="M32 31.463L35.2774 21.9026C37.7597 14.6626 45.6022 10.6183 53.0836 12.7199L60.8057 14.8888L57.3744 16.9093C54.9905 18.3128 53.1942 20.5046 52.3072 23.0905C49.7423 30.5722 41.4844 34.5959 33.8626 32.0782L32 31.463Z" fill="#F57CFF"/>
<path d="M42.5803 21.5973C41.7418 20.7742 41.7418 19.4389 42.5803 18.6154L43.4948 17.7182C44.3333 16.8947 45.6936 16.8947 46.5325 17.7182C47.371 18.5417 47.371 19.8766 46.5325 20.7001L45.618 21.5973C44.7791 22.4208 43.4192 22.4208 42.5803 21.5973V21.5973Z" fill="white"/>
<path d="M31.9995 14.4054C30.8136 14.4054 29.8516 13.4615 29.8516 12.2969V11.028C29.8516 9.86343 30.8136 8.91953 31.9995 8.91953C33.1859 8.91953 34.1475 9.86343 34.1475 11.028V12.2969C34.1475 13.4615 33.1859 14.4054 31.9995 14.4054Z" fill="white"/>
<path d="M21.4188 21.5973C22.2577 20.7742 22.2577 19.4389 21.4188 18.6154L20.5048 17.7182C19.6663 16.8947 18.306 16.8947 17.467 17.7182C16.6285 18.5417 16.6285 19.8766 17.467 20.7001L18.381 21.5973C19.22 22.4208 20.5798 22.4208 21.4188 21.5973Z" fill="white"/>
<path d="M61.9898 14.7359C61.9273 14.2731 61.5915 13.8904 61.1345 13.7617L53.4119 11.5929C49.2741 10.4311 45.0454 10.9982 41.5371 12.8741C40.0621 8.28506 37.0686 2.86469 32.6268 0.174408C32.2425 -0.058136 31.757 -0.058136 31.3728 0.174408C26.9309 2.86469 23.9375 8.28506 22.4624 12.8737C18.9542 10.9982 14.7259 10.4311 10.5881 11.5933L2.86549 13.7622C2.40801 13.8904 2.07225 14.2731 2.01023 14.7359C1.9482 15.1987 2.17205 15.6537 2.57963 15.8936L6.01141 17.9141C8.14958 19.1734 9.76544 21.1446 10.561 23.4645C11.6364 26.6011 13.6444 29.1751 16.1781 30.9947C13.3572 31.8338 10.7844 33.4003 8.75395 35.5472C6.06551 38.3899 4.48462 42.0914 4.30321 45.97L3.90916 54.38C3.88724 54.8465 4.14932 55.2809 4.57649 55.4865C4.74344 55.5666 4.92298 55.6059 5.10159 55.6059C5.37999 55.6059 5.6556 55.5103 5.87617 55.3258L9.12795 52.6048C11.1691 50.8974 13.7699 49.9567 16.4518 49.9567C18.7471 49.9567 21.0285 49.4884 23.1214 48.5976C24.5008 53.0681 27.4229 57.1532 31.3219 59.7926C31.5257 59.9309 31.7626 60 31.9995 60C32.2364 60 32.4733 59.9309 32.6776 59.7926C36.5766 57.1532 39.4983 53.0681 40.8777 48.5976C42.9706 49.4884 45.2519 49.9567 47.5473 49.9567C50.2292 49.9567 52.8304 50.8974 54.8711 52.6048L58.1229 55.3258C58.3435 55.5103 58.6191 55.6059 58.8975 55.6059C59.0761 55.6059 59.2556 55.5666 59.4226 55.4865C59.8497 55.2809 60.1118 54.8465 60.0899 54.38L59.6959 45.97C59.5117 42.0328 57.8911 38.2896 55.1332 35.43C53.1163 33.3394 50.5887 31.8173 47.821 30.9947C50.3551 29.1751 52.3631 26.6011 53.4385 23.4645C54.2341 21.1446 55.8495 19.1734 57.9881 17.9141L61.4194 15.8936C61.828 15.6532 62.0518 15.1987 61.9898 14.7359V14.7359ZM31.9995 2.57767C35.7424 5.1915 38.2601 10.139 39.454 14.2072C37.0649 16.0144 35.1795 18.5143 34.1461 21.5286L33.1934 24.3073V15.3598C34.4483 14.8869 35.3413 13.6926 35.3413 12.2969V11.028C35.3413 9.2189 33.842 7.74765 31.9995 7.74765C30.157 7.74765 28.6578 9.2189 28.6578 11.028V12.2969C28.6578 13.6926 29.5513 14.8869 30.8057 15.3598V24.3059L29.8539 21.5286C28.82 18.5138 26.9346 16.0144 24.5456 14.2067C25.7399 10.1385 28.2567 5.1915 31.9995 2.57767V2.57767ZM32.9537 12.2969C32.9537 12.8133 32.526 13.2335 31.9995 13.2335C31.4735 13.2335 31.0454 12.8133 31.0454 12.2969V11.028C31.0454 10.5116 31.4735 10.0914 31.9995 10.0914C32.526 10.0914 32.9537 10.5116 32.9537 11.028V12.2969ZM12.8242 22.7165C11.8476 19.8692 9.8643 17.4495 7.23975 15.9041L6.16717 15.2724L11.2451 13.8464C18.1274 11.9133 25.3076 15.6161 27.5908 22.2762L29.9756 29.2323C27.0232 27.3441 24.54 24.8016 22.7446 21.8275C23.5383 20.5632 23.3783 18.8818 22.2633 17.7869L21.3493 16.8896C20.0463 15.6107 17.9264 15.6111 16.6234 16.8896C15.3205 18.1686 15.3205 20.2496 16.6234 21.5286L17.5374 22.4263C18.1889 23.0658 19.0446 23.3853 19.9004 23.3853C20.2156 23.3853 20.5304 23.3414 20.8354 23.2549C22.8243 26.4679 25.5426 29.2131 28.7641 31.2543C22.0656 32.9192 15.064 29.2502 12.8242 22.7165ZM20.4339 20.8823C20.0627 21.1285 19.5534 21.0905 19.2256 20.7687L18.3116 19.8715C17.9394 19.5062 17.9394 18.912 18.3116 18.5468C18.4976 18.3641 18.7415 18.273 18.9859 18.273C19.2302 18.273 19.4746 18.3641 19.6607 18.5468L20.5747 19.444C20.9394 19.8019 20.9454 20.3792 20.5957 20.7458C20.5369 20.787 20.4824 20.8328 20.4339 20.8823ZM16.4523 47.6129C13.2028 47.6129 10.0522 48.7523 7.57924 50.8209L6.42086 51.7905L6.68854 46.0776C7.00938 39.2226 12.2673 33.6172 19.1911 32.7489C19.2219 32.7452 19.2517 32.7393 19.2815 32.7333C20.6913 33.3284 22.1901 33.7253 23.7323 33.8979L23.0398 34.2096C19.587 35.7651 16.5287 37.9431 13.9513 40.6824C13.5041 41.158 13.5339 41.8991 14.018 42.3386C14.2479 42.5468 14.5379 42.6494 14.828 42.6494C15.1493 42.6494 15.4697 42.5226 15.7052 42.2726C18.0677 39.7618 20.8708 37.7655 24.0354 36.34L24.1846 36.2727C22.9577 37.9413 22.2414 39.9916 22.2414 42.9112C22.2414 44.0359 22.3496 45.163 22.5534 46.2785C20.6572 47.1519 18.562 47.6129 16.4523 47.6129ZM31.9995 57.3798C27.498 54.0015 24.6286 48.4126 24.6286 42.9112C24.6286 38.1285 26.8148 36.3776 30.8057 33.6855V42.9483C30.8057 43.5956 31.3406 44.1202 31.9995 44.1202C32.6589 44.1202 33.1934 43.5956 33.1934 42.9483V33.6855C37.1848 36.3776 39.3705 38.1285 39.3705 42.9112C39.3705 48.4126 36.5016 54.0015 31.9995 57.3798V57.3798ZM57.311 46.0776L57.5787 51.7905L56.4203 50.8209C53.9473 48.7523 50.7962 47.6129 47.5473 47.6129C45.4375 47.6129 43.3423 47.1519 41.4462 46.2785C41.6499 45.163 41.7586 44.0359 41.7586 42.9112C41.7586 39.9916 41.0418 37.9413 39.8149 36.2727L39.9641 36.34C43.1292 37.7655 45.9319 39.7618 48.2943 42.2726C48.5298 42.5226 48.8502 42.6494 49.172 42.6494C49.4616 42.6494 49.7521 42.5464 49.9816 42.3386C50.4656 41.8991 50.4959 41.158 50.0482 40.6824C47.4708 37.9431 44.413 35.7651 40.9598 34.2096L40.2677 33.8979C41.8057 33.7257 43.3008 33.3302 44.7077 32.7379C51.5886 33.5541 56.9916 39.2551 57.311 46.0776V46.0776ZM56.7603 15.9041C54.1352 17.4495 52.1519 19.8692 51.1758 22.717C48.9356 29.2502 41.9339 32.9187 35.2359 31.2543C38.4574 29.2131 41.1757 26.4679 43.1641 23.2549C43.4691 23.3414 43.7844 23.3853 44.0992 23.3853C44.9549 23.3853 45.8111 23.0653 46.4626 22.4258L47.3766 21.5286C48.6791 20.2496 48.6795 18.1686 47.3766 16.8896C46.0736 15.6107 43.9537 15.6107 42.6502 16.8896L41.7362 17.7869C40.6212 18.8814 40.4612 20.5632 41.255 21.8271C39.4596 24.8012 36.9772 27.3431 34.0244 29.2319L36.4092 22.2762C38.6924 15.6161 45.8726 11.9133 52.7553 13.8464L57.8328 15.2724L56.7603 15.9041ZM43.5652 20.8823C43.5167 20.8328 43.4621 20.7875 43.4043 20.7463C43.0536 20.3796 43.0602 19.8019 43.4248 19.444L44.3389 18.5468C44.5249 18.3641 44.7688 18.273 45.0132 18.273C45.2575 18.273 45.5019 18.3641 45.688 18.5468C46.0601 18.912 46.0601 19.5062 45.688 19.8715L44.7739 20.7687C44.4456 21.091 43.9359 21.1285 43.5652 20.8823Z" fill="black"/>
<path d="M31.9995 46.4639C31.3406 46.4639 30.8057 46.9885 30.8057 47.6358V47.6802C30.8057 48.327 31.3406 48.8521 31.9995 48.8521C32.6589 48.8521 33.1934 48.327 33.1934 47.6802V47.6358C33.1934 46.9885 32.6589 46.4639 31.9995 46.4639Z" fill="black"/>
<defs>
<clipPath id="clip0">
<rect width="30" height="30.4545" fill="white" transform="translate(33.0009 66.9545)"/>
</clipPath>
</defs>
</svg>
