<svg height="511pt" viewBox="-4 1 511 511.9995" width="511pt" xmlns="http://www.w3.org/2000/svg"><path d="m251.789062 268.484375h-91.910156c-69.601562 0-126.898437 54.722656-130.09375 124.25l-3.300781 71.765625 27.238281-23.214844c18.921875-16.128906 42.972656-24.988281 67.835938-24.988281 71.925781 0 130.230468-58.308594 130.230468-130.234375zm0 0" fill="#ffcb7c"/><path d="m251.789062 268.484375h91.914063c69.597656 0 126.898437 54.722656 130.09375 124.25l3.300781 71.765625-27.238281-23.214844c-18.921875-16.128906-42.972656-24.988281-67.835937-24.988281-71.925782 0-130.234376-58.308594-130.234376-130.234375zm0 0" fill="#ffcb7c"/><path d="m171.59375 170.789062c0 52.417969 31.351562 67.558594 80.195312 97.695313 48.84375-30.136719 80.199219-45.277344 80.199219-97.695313 0-52.414062-31.355469-130.65625-80.199219-160.789062-48.839843 30.132812-80.195312 108.375-80.195312 160.789062zm0 0" fill="#ffd89e"/><path d="m171.59375 170.789062c0 52.417969 31.351562 67.558594 80.195312 97.695313 48.84375-30.136719 80.199219-45.277344 80.199219-97.695313 0-52.414062-31.355469-130.65625-80.199219-160.789062-48.839843 30.132812-80.195312 108.375-80.195312 160.789062zm0 0" fill="#ffcb7c"/><g fill="#ffd89e"><path d="m323.535156 366.175781c0-52.414062-28.050781-67.554687-71.746094-97.691406-43.691406 30.136719-71.742187 45.273437-71.742187 97.691406s28.050781 105.6875 71.742187 135.824219c43.695313-30.136719 71.746094-83.40625 71.746094-135.824219zm0 0"/><path d="m251.792969 268.484375-27.457031-81.582031c-20.789063-61.78125-86.480469-96.292969-149.148438-78.359375l-64.683594 18.507812 28.742188 17.242188c19.96875 11.976562 35.015625 30.679687 42.445312 52.746093 21.484375 63.84375 90.65625 98.179688 154.5 76.695313zm0 0"/><path d="m251.792969 268.484375 27.453125-81.582031c20.792968-61.78125 86.484375-96.292969 149.152344-78.359375l64.683593 18.507812-28.742187 17.242188c-19.96875 11.976562-35.015625 30.679687-42.445313 52.746093-21.484375 63.84375-90.65625 98.179688-154.5 76.695313zm0 0"/></g><path d="m340.417969 184.296875c-7.023438-7.023437-7.023438-18.417969 0-25.445313l7.660156-7.65625c7.023437-7.027343 18.417969-7.027343 25.445313 0 7.023437 7.027344 7.023437 18.417969 0 25.445313l-7.660157 7.65625c-7.027343 7.027344-18.417969 7.027344-25.445312 0zm0 0" fill="#fff"/><path d="m251.789062 122.925781c-9.933593 0-17.992187-8.054687-17.992187-17.992187v-10.828125c0-9.9375 8.058594-17.992188 17.992187-17.992188 9.9375 0 17.992188 8.054688 17.992188 17.992188v10.828125c0 9.9375-8.054688 17.992187-17.992188 17.992187zm0 0" fill="#fff"/><path d="m163.160156 184.296875c7.027344-7.023437 7.027344-18.417969 0-25.445313l-7.65625-7.65625c-7.023437-7.027343-18.417968-7.027343-25.445312 0-7.023438 7.027344-7.023438 18.417969 0 25.445313l7.65625 7.65625c7.027344 7.027344 18.417968 7.027344 25.445312 0zm0 0" fill="#fff"/><path d="m503 125.746094c-.523438-3.949219-3.335938-7.214844-7.164062-8.3125l-64.6875-18.507813c-34.660157-9.914062-70.082032-5.074219-99.46875 10.933594-12.355469-39.160156-37.429688-85.414063-74.636719-108.371094-3.21875-1.984375-7.285157-1.984375-10.503907 0-37.207031 22.957031-62.28125 69.210938-74.636718 108.367188-29.386719-16.003907-64.804688-20.84375-99.464844-10.925781l-64.6875 18.507812c-3.832031 1.09375-6.644531 4.359375-7.164062 8.308594-.5195318 3.949218 1.355468 7.832031 4.769531 9.878906l28.746093 17.242188c17.910157 10.746093 31.445313 27.566406 38.109376 47.363281 9.007812 26.765625 25.828124 48.730469 47.050781 64.257812-23.628907 7.160157-45.179688 20.527344-62.1875 38.847657-22.519531 24.257812-35.761719 55.84375-37.28125 88.941406l-3.300781 71.765625c-.183594 3.980469 2.011718 7.6875 5.589843 9.441406 1.398438.683594 2.902344 1.019531 4.398438 1.019531 2.332031 0 4.640625-.816406 6.488281-2.390625l27.238281-23.21875c17.097657-14.570312 38.882813-22.597656 61.347657-22.597656 19.226562 0 38.335937-3.996094 55.867187-11.597656 11.554687 38.148437 36.03125 73.007812 68.691406 95.53125 1.707031 1.179687 3.691407 1.769531 5.675781 1.769531 1.984376 0 3.96875-.589844 5.679688-1.769531 32.660156-22.523438 57.132812-57.382813 68.6875-95.53125 17.53125 7.601562 36.640625 11.597656 55.867188 11.597656 22.464843 0 44.253906 8.027344 61.347656 22.597656l27.238281 23.21875c1.847656 1.574219 4.15625 2.390625 6.488281 2.390625 1.496094 0 3-.335937 4.398438-1.019531 3.578125-1.753906 5.773437-5.460937 5.589844-9.441406l-3.300782-71.765625c-1.542968-33.597656-15.117187-65.539063-38.21875-89.941406-16.894531-17.839844-38.066406-30.828126-61.25-37.847657 21.226563-15.527343 38.046875-37.492187 47.054688-64.257812 6.664062-19.796875 20.195312-36.617188 38.109375-47.363281l28.742187-17.242188c3.421875-2.050781 5.296875-5.929688 4.777344-9.878906zm-251.210938-103.75c31.351563 22.304687 52.441407 64.523437 62.441407 99.238281-20.011719 15.421875-35.804688 36.753906-44.460938 62.476563l-7.980469 23.710937v-76.351563c10.511719-4.035156 17.992188-14.226562 17.992188-26.136718v-10.828125c0-15.4375-12.558594-27.992188-27.992188-27.992188-15.433593 0-27.992187 12.554688-27.992187 27.992188v10.828125c0 11.910156 7.484375 22.101562 17.992187 26.136718v76.339844l-7.972656-23.699218c-8.660156-25.726563-24.453125-47.054688-44.464844-62.480469 10.003907-34.714844 31.085938-76.929688 62.4375-99.234375zm7.992188 82.9375c0 4.40625-3.582031 7.992187-7.992188 7.992187-4.40625 0-7.992187-3.585937-7.992187-7.992187v-10.828125c0-4.40625 3.585937-7.992188 7.992187-7.992188 4.410157 0 7.992188 3.585938 7.992188 7.992188zm-168.613281 88.914062c-8.179688-24.296875-24.792969-44.945312-46.777344-58.132812l-8.984375-5.390625 42.535156-12.167969c57.648438-16.496094 117.792969 15.101562 136.917969 71.933594l19.976563 59.359375c-24.730469-16.113281-45.53125-37.808594-60.570313-63.1875 6.648437-10.789063 5.308594-25.136719-4.03125-34.480469l-7.65625-7.65625c-10.914063-10.914062-28.671875-10.910156-39.585937 0-10.914063 10.914062-10.914063 28.671875 0 39.585938l7.65625 7.660156c5.457031 5.457031 12.625 8.183594 19.792968 8.183594 2.640625 0 5.277344-.375 7.832032-1.113282 16.660156 27.417969 39.429687 50.84375 66.414062 68.261719-56.109375 14.207031-114.757812-17.101563-133.519531-72.855469zm63.742187-15.652344c-3.109375 2.101563-7.375 1.777344-10.121094-.96875l-7.65625-7.65625c-3.117187-3.117187-3.117187-8.1875 0-11.304687 1.558594-1.558594 3.601563-2.335937 5.648438-2.335937s4.09375.777343 5.652344 2.335937l7.65625 7.65625c3.054687 3.054687 3.105468 7.980469.175781 11.109375-.492187.351562-.949219.742188-1.355469 1.164062zm-33.351562 228.101563c-27.21875 0-53.609375 9.722656-74.324219 27.375l-9.703125 8.273437 2.242188-48.75c2.6875-58.496093 46.730468-106.328124 104.726562-113.738281.257812-.03125.507812-.082031.757812-.132812 11.808594 5.078125 24.363282 8.464843 37.28125 9.9375l-5.800781 2.660156c-28.921875 13.273437-54.539062 31.859375-76.128906 55.234375-3.746094 4.058594-3.496094 10.382812.558594 14.132812 1.925781 1.777344 4.355469 2.652344 6.785156 2.652344 2.691406 0 5.375-1.082031 7.347656-3.214844 19.789063-21.425781 43.269531-38.460937 69.777344-50.625l1.25-.574218c-10.277344 14.238281-16.277344 31.734375-16.277344 56.648437 0 9.597657.90625 19.214844 2.613281 28.734375-15.882812 7.453125-33.433593 11.386719-51.105468 11.386719zm130.230468 83.34375c-37.707031-28.828125-61.742187-76.519531-61.742187-123.464844 0-40.8125 18.3125-55.753906 51.742187-78.726562v79.042969c0 5.523437 4.480469 10 10 10 5.523438 0 10-4.476563 10-10v-79.042969c33.433594 22.972656 51.742188 37.914062 51.742188 78.726562 0 46.945313-24.03125 94.636719-61.742188 123.464844zm212.019532-96.445313 2.242187 48.75-9.703125-8.273437c-20.714844-17.652344-47.109375-27.375-74.324218-27.375-17.671876 0-35.222657-3.933594-51.105469-11.386719 1.707031-9.519531 2.617187-19.136718 2.617187-28.734375 0-24.914062-6.003906-42.410156-16.28125-56.648437l1.25.574218c26.511719 12.164063 49.988282 29.199219 69.777344 50.625 1.972656 2.132813 4.65625 3.214844 7.351562 3.214844 2.425782 0 4.859376-.878906 6.78125-2.652344 4.054688-3.75 4.308594-10.074218.558594-14.132812-21.589844-23.375-47.203125-41.960938-76.128906-55.234375l-5.796875-2.660156c12.882813-1.46875 25.40625-4.84375 37.191406-9.898438 57.636719 6.964844 102.894531 55.613281 105.570313 113.832031zm-4.613282-257.480468c-21.988281 13.1875-38.601562 33.835937-46.777343 58.136718-18.765625 55.75-77.414063 87.054688-133.519531 72.851563 26.984374-17.417969 49.753906-40.84375 66.410156-68.261719 2.554687.738282 5.195312 1.113282 7.832031 1.113282 7.167969 0 14.339844-2.730469 19.796875-8.1875l7.65625-7.65625c10.910156-10.914063 10.914062-28.671876 0-39.585938s-28.671875-10.914062-39.589844 0l-7.65625 7.65625c-9.339844 9.339844-10.679687 23.691406-4.03125 34.476562-15.039062 25.378907-35.832031 47.070313-60.566406 63.1875l19.976562-59.355468c19.125-56.832032 79.269532-88.429688 136.921876-71.933594l42.53125 12.167969zm-110.527343 42.480468c-.40625-.421874-.863281-.808593-1.347657-1.160156-2.9375-3.128906-2.882812-8.058594.171876-11.113281l7.65625-7.65625c1.558593-1.558594 3.601562-2.335937 5.648437-2.335937s4.09375.777343 5.652344 2.335937c3.117187 3.117187 3.117187 8.1875 0 11.304687l-7.65625 7.65625c-2.75 2.75-7.019531 3.070313-10.125.96875zm0 0"/><path d="m251.789062 396.492188c-5.519531 0-10 4.476562-10 10v.378906c0 5.519531 4.480469 10 10 10 5.523438 0 10-4.480469 10-10v-.378906c0-5.523438-4.476562-10-10-10zm0 0"/></svg>