<?xml version="1.0" encoding="UTF-8" standalone="no"?>
<svg
   xmlns:dc="http://purl.org/dc/elements/1.1/"
   xmlns:cc="http://creativecommons.org/ns#"
   xmlns:rdf="http://www.w3.org/1999/02/22-rdf-syntax-ns#"
   xmlns:svg="http://www.w3.org/2000/svg"
   xmlns="http://www.w3.org/2000/svg"
   xmlns:sodipodi="http://sodipodi.sourceforge.net/DTD/sodipodi-0.dtd"
   xmlns:inkscape="http://www.inkscape.org/namespaces/inkscape"
   version="1.1"
   x="0"
   y="0"
   width="463.37256"
   height="774.37982"
   viewBox="0 0 463.37256 774.37982"
   id="svg2"
   inkscape:version="0.48.4 r9939"
   sodipodi:docname="carnations_bouquet.svg">
  <metadata
     id="metadata275">
    <rdf:RDF>
      <cc:Work
         rdf:about="">
        <dc:format>image/svg+xml</dc:format>
        <dc:type
           rdf:resource="http://purl.org/dc/dcmitype/StillImage" />
        <dc:title></dc:title>
      </cc:Work>
    </rdf:RDF>
  </metadata>
  <defs
     id="defs273" />
  <sodipodi:namedview
     pagecolor="#ffffff"
     bordercolor="#666666"
     borderopacity="1"
     objecttolerance="10"
     gridtolerance="10"
     guidetolerance="10"
     inkscape:pageopacity="0"
     inkscape:pageshadow="2"
     inkscape:window-width="1280"
     inkscape:window-height="749"
     id="namedview271"
     showgrid="false"
     inkscape:zoom="0.45008939"
     inkscape:cx="284.75284"
     inkscape:cy="378.49781"
     inkscape:window-x="0"
     inkscape:window-y="26"
     inkscape:window-maximized="1"
     inkscape:current-layer="svg2"
     fit-margin-top="0"
     fit-margin-left="0"
     fit-margin-right="0"
     fit-margin-bottom="0" />
  <g
     id="g6171"
     transform="translate(162.2931,246.55562)">
    <g
       transform="matrix(0.93300021,0.35987582,-0.35987582,0.93300021,-14.26536,-71.74473)"
       id="g5138">
      <g
         id="g3976"
         transform="matrix(2.8299717,0,0,2.8299717,85.333637,-242.43938)">
        <path
           d="m -1.84262,44.530106 c 0.505,-1.404 4.236,-6.115 4.236,-6.115 l 1.39,2.495 c 0,0 6.653,-1.16 6.545,-0.083 -0.106,1.083 -1.073,3.528 -1.073,3.528 0,0 3.039,0.486 3.525,1.074 0.484,0.594 -1.539,4.568 -2.725,5.548 -1.186,0.969 -9.525,4.503 -11.289,3.969 -1.765,-0.536 -0.609,-10.416 -0.609,-10.416"
           id="path3529"
           inkscape:connector-curvature="0"
           style="fill:#d8232a" />
        <path
           d="m -1.84262,44.530106 c 0.505,-1.404 4.236,-6.115 4.236,-6.115 l 1.39,2.495 c 0,0 6.653,-1.16 6.545,-0.083 -0.106,1.083 -1.073,3.528 -1.073,3.528 0,0 3.039,0.486 3.525,1.074 0.484,0.594 -1.539,4.568 -2.725,5.548 -1.186,0.969 -9.525,4.503 -11.289,3.969 -1.765,-0.536 -0.609,-10.416 -0.609,-10.416 z"
           id="path3531"
           inkscape:connector-curvature="0"
           style="fill-opacity:0;stroke:#1a1919;stroke-width:1.07599998;stroke-linecap:round;stroke-linejoin:round" />
        <path
           d="m -35.75762,58.261106 c -0.26,-0.82 1.313,-2.927 1.313,-2.927 -0.935,-0.888 -2.083,-5.309 -1.695,-5.835 0.943,-0.364 6.656,0.312 7.732,0.877 0.314,-0.88 2.667,-4.043 2.667,-4.043 0,0 6.364,9.008 8.068,13.596 0,0 -1.661,3.012 -2.03,3.316 -0.367,0.302 -16.055,-4.984 -16.055,-4.984"
           id="path3533"
           inkscape:connector-curvature="0"
           style="fill:#d8232a" />
        <path
           d="m -35.75762,58.261106 c -0.26,-0.82 1.313,-2.927 1.313,-2.927 -0.935,-0.888 -2.083,-5.309 -1.695,-5.835 0.943,-0.364 6.656,0.312 7.732,0.877 0.314,-0.88 2.667,-4.043 2.667,-4.043 0,0 6.364,9.008 8.068,13.596 0,0 -1.661,3.012 -2.03,3.316 -0.367,0.302 -16.055,-4.984 -16.055,-4.984 z"
           id="path3535"
           inkscape:connector-curvature="0"
           style="fill-opacity:0;stroke:#1a1919;stroke-width:1.07599998;stroke-linecap:round;stroke-linejoin:round" />
        <path
           d="m -8.73162,81.264106 c 0.61,1.149 5.173,8.323 8.666,9.752 3.491,1.438 7.484,1.468 7.678,-2.328 0.189,-3.793 1.861,-4.177 -1.525,-10.315 -3.392,-6.152 -6.365,-10.986 -6.365,-10.986 l -3.813,1.806 -4.235,6.118 z"
           id="path3537"
           inkscape:connector-curvature="0"
           style="fill:#3f9257" />
        <path
           d="m -8.73162,81.264106 c 0.61,1.149 5.173,8.323 8.666,9.752 3.491,1.438 7.484,1.468 7.678,-2.328 0.189,-3.793 1.861,-4.177 -1.525,-10.315 -3.392,-6.152 -6.365,-10.986 -6.365,-10.986 l -3.813,1.806 -4.235,6.118 -0.406,5.953 z"
           id="path3539"
           inkscape:connector-curvature="0"
           style="fill-opacity:0;stroke:#1a1919;stroke-width:1.07599998;stroke-linecap:round;stroke-linejoin:round" />
        <path
           d="m -18.69162,57.038106 c -2.015,-1.653 -5.957,-13.297 -3.605,-16.884 l 2.879,0.287 c 0.337,-1.604 4.883,-5.331999 4.883,-5.331999 l 1.065,2.102999 4.961,-2.417999 c 0,0 0.01,7.268999 -0.007,9.259999 -0.012,1.996 -0.131,8.705 -1.618,10.921 -1.492,2.214 -8.558,2.063 -8.558,2.063"
           id="path3541"
           inkscape:connector-curvature="0"
           style="fill:#d8232a" />
        <path
           d="m -18.69162,57.038106 c -2.015,-1.653 -5.957,-13.297 -3.605,-16.884 l 2.879,0.287 c 0.337,-1.604 4.883,-5.331999 4.883,-5.331999 l 1.065,2.102999 4.961,-2.417999 c 0,0 0.01,7.268999 -0.007,9.259999 -0.012,1.996 -0.131,8.705 -1.618,10.921 -1.492,2.214 -8.558,2.063 -8.558,2.063 z"
           id="path3543"
           inkscape:connector-curvature="0"
           style="fill-opacity:0;stroke:#1a1919;stroke-width:1.07599998;stroke-linecap:round;stroke-linejoin:round" />
        <path
           d="m -33.57762,72.983106 c -0.754,-0.416 -5.1,-1.186 -5.91,-2.17 -0.808,-0.985 0.848,-3.997 1.018,-4.549 -0.507,-0.614 -2.171,-2.14 -2.225,-2.711 -0.058,-0.575 3.854,-2.339 3.854,-2.339 -0.587,-0.965 -0.477,-4.352 -0.477,-4.352 0,0 3.814,0.379 8.78,2.904 4.961,2.526 5.857,8.395 5.857,8.395 z"
           id="path3553"
           inkscape:connector-curvature="0"
           style="fill:#d8232a" />
        <path
           d="m -33.57762,72.983106 c -0.754,-0.416 -5.1,-1.186 -5.91,-2.17 -0.808,-0.985 0.848,-3.997 1.018,-4.549 -0.507,-0.614 -2.171,-2.14 -2.225,-2.711 -0.058,-0.575 3.854,-2.339 3.854,-2.339 -0.587,-0.965 -0.477,-4.352 -0.477,-4.352 0,0 3.814,0.379 8.78,2.904 4.961,2.526 5.857,8.395 5.857,8.395 l -10.897,4.822 z"
           id="path3555"
           inkscape:connector-curvature="0"
           style="fill-opacity:0;stroke:#1a1919;stroke-width:1.07599998;stroke-linecap:round;stroke-linejoin:round" />
        <path
           d="m -22.87862,70.182106 c -0.29,0.648 -3.366,15.759 -3.21,16.457 0.158,0.691 -4.139,7.521 -4.612,7.702 -1.747,-0.622 -4.465,-6.449 -4.141,-8.566 l -2.3,-0.796 1.548,-1.884 c 0,0 -2.911,-1.537 -3.09,-2.005 -0.183,-0.472 2.349,-3.168 2.349,-3.168 -0.585,-0.967 -1.665,-3.79 -1.273,-4.321 0.392,-0.528 10.264,-4.084 11.978,-4.256 1.715,-0.173 2.751,0.837 2.751,0.837"
           id="path3557"
           inkscape:connector-curvature="0"
           style="fill:#d8232a" />
        <path
           d="m -22.87862,70.182106 c -0.29,0.648 -3.366,15.759 -3.21,16.457 0.158,0.691 -4.139,7.521 -4.612,7.702 -1.747,-0.622 -4.465,-6.449 -4.141,-8.566 l -2.3,-0.796 1.548,-1.884 c 0,0 -2.911,-1.537 -3.09,-2.005 -0.183,-0.472 2.349,-3.168 2.349,-3.168 -0.585,-0.967 -1.665,-3.79 -1.273,-4.321 0.392,-0.528 10.264,-4.084 11.978,-4.256 1.715,-0.173 2.751,0.837 2.751,0.837 z"
           id="path3559"
           inkscape:connector-curvature="0"
           style="fill-opacity:0;stroke:#1a1919;stroke-width:1.07599998;stroke-linecap:round;stroke-linejoin:round" />
        <path
           d="m -3.97662,58.849106 c 1.703,-0.738 12.616,-2.754 17.026,-1.408 0.847,0.633 5.543,2.729 6.658,2.472 1.113,-0.254 3.271,-3.676 2.171,-5.42 -1.101,-1.739 -3.117,-3.389 -4.429,-2.973 -0.474,-2.592 -1.446,-3.778 -1.446,-3.778 l -3.25,1.682 -1.16,-3.025 -3.877,2.525 c -1.801,-0.177 -7.084,1.846 -7.084,1.846 l -5.35,6.372 z"
           id="path3561"
           inkscape:connector-curvature="0"
           style="fill:#d8232a" />
        <path
           d="m -3.97662,58.849106 c 1.703,-0.738 12.616,-2.754 17.026,-1.408 0.847,0.633 5.543,2.729 6.658,2.472 1.113,-0.254 3.271,-3.676 2.171,-5.42 -1.101,-1.739 -3.117,-3.389 -4.429,-2.973 -0.474,-2.592 -1.446,-3.778 -1.446,-3.778 l -3.25,1.682 -1.16,-3.025 -3.877,2.525 c -1.801,-0.177 -7.084,1.846 -7.084,1.846 l -5.35,6.372 0.741,1.707 z"
           id="path3563"
           inkscape:connector-curvature="0"
           style="fill-opacity:0;stroke:#1a1919;stroke-width:1.07599998;stroke-linecap:round;stroke-linejoin:round" />
        <path
           d="m 1.55338,67.207106 c 0.289,0.756 5.803,7.474 7.06,5.783 1.255,-1.696 0.494,-5.037 0.494,-5.037 0,0 2.611,1.16 3.634,-0.008 1.025,-1.172 2.884,-8.977 1.099,-11.147 -1.784,-2.18 -14.643,-2.539 -14.643,-2.539 l -1.051,8.799 z"
           id="path3565"
           inkscape:connector-curvature="0"
           style="fill:#d8232a" />
        <path
           d="m 1.55338,67.207106 c 0.289,0.756 5.803,7.474 7.06,5.783 1.255,-1.696 0.494,-5.037 0.494,-5.037 0,0 2.611,1.16 3.634,-0.008 1.025,-1.172 2.884,-8.977 1.099,-11.147 -1.784,-2.18 -14.643,-2.539 -14.643,-2.539 l -1.051,8.799 3.407,4.149 z"
           id="path3567"
           inkscape:connector-curvature="0"
           style="fill-opacity:0;stroke:#1a1919;stroke-width:1.07599998;stroke-linecap:round;stroke-linejoin:round" />
        <path
           d="m -25.25062,75.642106 c 0.293,0.754 3.252,7.584 5.642,7.273 2.391,-0.305 5.265,-3.657 5.265,-3.657 0,0 4.183,5.501 5.689,4.92 1.512,-0.576 3.776,-1.443 3.917,-2.886 0.141,-1.435 0.313,-6.863 0.313,-6.863 0,0 1.531,1.054 1.963,0.372 0.43,-0.684 0.263,-4.514 0.263,-4.514 0,0 2.031,-0.344 3.322,-2.402 1.293,-2.048 2.956,-6.059 2.22,-7.765 -0.741,-1.709 -3.692,-4.906 -3.692,-4.906 l -15.636,7.539 -10.942,9.636 z"
           id="path3569"
           inkscape:connector-curvature="0"
           style="fill:#d8232a" />
        <path
           d="m -25.25062,75.642106 c 0.293,0.754 3.252,7.584 5.642,7.273 2.391,-0.305 5.265,-3.657 5.265,-3.657 0,0 4.183,5.501 5.689,4.92 1.512,-0.576 3.776,-1.443 3.917,-2.886 0.141,-1.435 0.313,-6.863 0.313,-6.863 0,0 1.531,1.054 1.963,0.372 0.43,-0.684 0.263,-4.514 0.263,-4.514 0,0 2.031,-0.344 3.322,-2.402 1.293,-2.048 2.956,-6.059 2.22,-7.765 -0.741,-1.709 -3.692,-4.906 -3.692,-4.906 l -15.636,7.539 -10.942,9.636 1.676,3.253 z"
           id="path3571"
           inkscape:connector-curvature="0"
           style="fill-opacity:0;stroke:#1a1919;stroke-width:1.07599998;stroke-linecap:round;stroke-linejoin:round" />
        <path
           d="m -1.88162,54.154106 c 2.652,-4.824 3.299,-7.668 1.998,-12.875 l -3.615,1.636 -3.046,-4.108 -3.788,3.432 -2.339,-2.043 -1.993,3.616 c -0.755,0.291 -3.26,-1.953 -3.69,-1.27 -0.429,0.682 -0.744,7.552 2.536,11.149 3.277,3.588 8.116,4.248 9.267,3.638 1.148,-0.618 4.67,-3.175 4.67,-3.175"
           id="path3573"
           inkscape:connector-curvature="0"
           style="fill:#d8232a" />
        <path
           d="m -1.88162,54.154106 c 2.652,-4.824 3.299,-7.668 1.998,-12.875 l -3.615,1.636 -3.046,-4.108 -3.788,3.432 -2.339,-2.043 -1.993,3.616 c -0.755,0.291 -3.26,-1.953 -3.69,-1.27 -0.429,0.682 -0.744,7.552 2.536,11.149 3.277,3.588 8.116,4.248 9.267,3.638 1.148,-0.618 4.67,-3.175 4.67,-3.175 z"
           id="path3575"
           inkscape:connector-curvature="0"
           style="fill-opacity:0;stroke:#1a1919;stroke-width:1.07599998;stroke-linecap:round;stroke-linejoin:round" />
        <g
           transform="translate(-53.53062,32.020107)"
           id="g3577">
          <path
             d="m 35.184,27.051 c -1.01,-0.827 -3.535,-4.708 -3.535,-4.708 l 3.566,0.711 2.222,-4.14 4.212,1.512 3.556,-2.922 2.202,3.487 c 0,0 3.447,-1.843 4.366,-1.932 0.915,-0.092 -0.852,8.634 -2.471,10.289 -1.614,1.657 -6.467,2.998 -6.467,2.998 l -8.047,-4.972"
             id="path3579"
             inkscape:connector-curvature="0"
             style="fill:#d8232a" />
          <path
             d="m 35.184,27.051 c -1.01,-0.827 -3.535,-4.708 -3.535,-4.708 l 3.566,0.711 2.222,-4.14 4.212,1.512 3.556,-2.922 2.202,3.487 c 0,0 3.447,-1.843 4.366,-1.932 0.915,-0.092 -0.852,8.634 -2.471,10.289 -1.614,1.657 -6.467,2.998 -6.467,2.998 l -8.047,-4.972"
             id="path3581"
             inkscape:connector-curvature="0"
             style="fill-opacity:0;stroke:#1a1919;stroke-width:1.07599998;stroke-linecap:round;stroke-linejoin:round" />
        </g>
        <path
           d="M 83.44114,233.8169 C 71.66643,200.17503 45.54038,153.4491 36.63038,136.9501 c -4.914,-9.11299 -19.752,-31.73399 -29.098,-41.912994 -1.733,-0.899 -8.279,-0.812 -10.561,-1.587 -2.284,-0.773 -3.555,-6.345 -4.131,-7.857 0,0 3.44,3.792 5.039,4.133 1.605,0.339 6.084,0.963 6.084,0.963 -0.647,-0.787 -2.79,-3.003 -4.144,-5.857 -1.356,-2.858 -1.109,-5.373 -1.109,-5.373 0,0 4.556,3.529 5.369,4.522 0.81,0.984 3.533,4.707 3.533,4.707 -0.418,-1.316 -0.044,-3.268 -0.158,-5.824 -0.112,-2.549 -1.918,-6.362 -1.918,-6.362 2.18,1.847 5.449,7.429 5.347,12.144 -0.1,4.712 0.044,3.273 0.044,3.273 11.528,15.666004 22.699,31.295004 29.475,43.587994 5.843,10.584 37.20102,62.01453 46.97776,97.0618 z"
           id="path3585"
           inkscape:connector-curvature="0"
           style="fill:#84bf41;fill-opacity:1;stroke:#1a1919;stroke-width:1.07599998;stroke-linecap:round;stroke-linejoin:round"
           sodipodi:nodetypes="cccccccccccccccccc" />
        <path
           d="m -30.41562,54.293106 c 1.527,-0.152 19.566,5.4 21.585,7.865 2.027,2.469 0.277,3.354 -0.351,3.591 -0.628,0.246 -19.888,8.614 -21.305,9.234 -0.573,-0.358 0.245,-4.051 1.049,-6.084 l -4.233,-1.481 c 0,0 2.717,-3.057 3.538,-3.728 -0.54,-0.658 -3.562,-0.655 -3.562,-0.655 0.058,-0.598 6.11,-5.293 6.682,-4.934 0.63,-0.237 -3.403,-3.808 -3.403,-3.808"
           id="path3595"
           inkscape:connector-curvature="0"
           style="fill:#d8232a" />
        <path
           d="m -30.41562,54.293106 c 1.527,-0.152 19.566,5.4 21.585,7.865 2.027,2.469 0.277,3.354 -0.351,3.591 -0.628,0.246 -19.888,8.614 -21.305,9.234 -0.573,-0.358 0.245,-4.051 1.049,-6.084 l -4.233,-1.481 c 0,0 2.717,-3.057 3.538,-3.728 -0.54,-0.658 -3.562,-0.655 -3.562,-0.655 0.058,-0.598 6.11,-5.293 6.682,-4.934 0.63,-0.237 -3.403,-3.808 -3.403,-3.808 z"
           id="path3597"
           inkscape:connector-curvature="0"
           style="fill-opacity:0;stroke:#1a1919;stroke-width:1.07599998;stroke-linecap:round;stroke-linejoin:round" />
      </g>
      <g
         id="g4075"
         transform="matrix(2.8299717,0,0,2.8299717,209.70486,-182.00408)">
        <path
           style="fill:#3f9257"
           inkscape:connector-curvature="0"
           id="path3549"
           d="m -16.649038,100.38641 c -1.569,-0.703996 -4.847,-4.293996 -5.859,-5.121996 -1.005,-0.822 -6.674,-4.104 -7.43,-3.815 -0.751,0.287 0.486,13.491996 1.285,16.472996 -0.813,-0.99 -3.81,-11.092996 -4.555,-12.804996 -0.737,-1.707 0.407,-5.948 0.945,-7.714999 0.537,-1.759 4.855,-1.338 9.339,2.919999 z" />
        <path
           style="fill-opacity:0;stroke:#1a1919;stroke-width:1.07599998;stroke-linecap:round;stroke-linejoin:round"
           inkscape:connector-curvature="0"
           id="path3551"
           d="m -16.649038,100.38641 c -1.569,-0.703996 -4.847,-4.293996 -5.859,-5.121996 -1.005,-0.822 -6.674,-4.104 -7.43,-3.815 -0.751,0.287 0.486,13.491996 1.285,16.472996 -0.813,-0.99 -3.81,-11.092996 -4.555,-12.804996 -0.737,-1.707 0.407,-5.948 0.945,-7.714999 0.537,-1.759 4.855,-1.338 9.339,2.919999 l 6.275,10.063996 z" />
      </g>
      <g
         transform="matrix(-2.5626898,-1.2005668,1.2005668,-2.5626898,-347.88657,674.44876)"
         id="g5051">
        <path
           style="fill:#3f9257"
           inkscape:connector-curvature="0"
           id="path5053"
           d="m -77.713166,264.09037 c 1.672,0.542 9.011,5.052 8.056,8.859 -0.952,3.81 -6.311,6.332 -8.317,6.392 -2.006,0.06 -6.886,-1.099 -6.886,-1.099 0,0 8.908,-2.505 10.052,-3.841 1.14,-1.334 -2.905,-10.311 -2.905,-10.311" />
        <path
           style="fill-opacity:0;stroke:#1a1919;stroke-width:1.07599998;stroke-linecap:round;stroke-linejoin:round"
           inkscape:connector-curvature="0"
           id="path5055"
           d="m -77.713166,264.09037 c 1.672,0.542 9.011,5.052 8.056,8.859 -0.952,3.81 -6.311,6.332 -8.317,6.392 -2.006,0.06 -6.886,-1.099 -6.886,-1.099 0,0 8.908,-2.505 10.052,-3.841 1.14,-1.334 -2.905,-10.311 -2.905,-10.311 z" />
      </g>
    </g>
    <g
       transform="matrix(-0.8116672,0.58412016,0.58412016,0.8116672,55.65908,-212.82123)"
       id="g5173">
      <g
         id="g4157"
         transform="matrix(2.8299717,0,0,2.8299717,-698.87663,-200.39597)">
        <g
           transform="translate(171.08051,21.716102)"
           id="g3715">
          <path
             d="M 179.98333,252.60143 C 169.01394,228.66835 97.875,144.768 97.048,144.216 l 2.965,-3.95 c 4.022,5.363 67.59889,74.53945 82.61033,109.73343"
             id="path3719"
             inkscape:connector-curvature="0"
             style="fill:#84bf41;fill-opacity:1;stroke:#1a1919;stroke-width:1.07599998;stroke-linecap:round;stroke-linejoin:round"
             sodipodi:nodetypes="cccc" />
        </g>
        <g
           id="g4133">
          <path
             style="fill:#d8232a"
             inkscape:connector-curvature="0"
             id="path3683"
             d="m 239.46851,118.4921 c -0.495,1.485 2.471,9.39 2.966,10.875 0.494,1.479 6.917,0.492 6.917,0.492 0,0 6.425,-4.941 6.918,-7.413 0.493,-2.469 -1.483,-7.907 -3.952,-10.379 l -2.471,2.472 c 0,0 -1.976,-2.472 -3.956,-2.965 0,0 0,2.469 -0.491,3.952 l -3.955,-2.469 0,4.448 c 0,1.482 -1.976,0.987 -1.976,0.987" />
          <path
             style="fill-opacity:0;stroke:#1a1919;stroke-width:1.07599998;stroke-linecap:round;stroke-linejoin:round"
             inkscape:connector-curvature="0"
             id="path3685"
             d="m 239.46851,118.4921 c -0.495,1.485 2.471,9.39 2.966,10.875 0.494,1.479 6.917,0.492 6.917,0.492 0,0 6.425,-4.941 6.918,-7.413 0.493,-2.469 -1.483,-7.907 -3.952,-10.379 l -2.471,2.472 c 0,0 -1.976,-2.472 -3.956,-2.965 0,0 0,2.469 -0.491,3.952 l -3.955,-2.469 0,4.448 c 0,1.482 -1.976,0.987 -1.976,0.987 z" />
          <path
             style="fill:#d8232a"
             inkscape:connector-curvature="0"
             id="path3687"
             d="m 230.57351,146.2901 c 0,0 -9.882,6.424 -8.894,16.801 l 3.458,-2.472 2.472,3.955 3.458,-5.438 c 0,1.483 1.484,5.438 1.484,5.438 0,0 5.93,-3.459 8.4,-6.918 2.47,-3.459 5.435,-10.873 5.435,-10.873 0,0 -6.918,-12.846 -15.813,-0.493" />
          <path
             style="fill-opacity:0;stroke:#1a1919;stroke-width:1.07599998;stroke-linecap:round;stroke-linejoin:round"
             inkscape:connector-curvature="0"
             id="path3689"
             d="m 230.57351,146.2901 c 0,0 -9.882,6.424 -8.894,16.801 l 3.458,-2.472 2.472,3.955 3.458,-5.438 c 0,1.483 1.484,5.438 1.484,5.438 0,0 5.93,-3.459 8.4,-6.918 2.47,-3.459 5.435,-10.873 5.435,-10.873 0,0 -6.918,-12.846 -15.813,-0.493 z" />
          <path
             style="fill:#d8232a"
             inkscape:connector-curvature="0"
             id="path3691"
             d="m 243.54551,134.4311 c 0.777,-3.877 -3.46,-12.849 -10.872,-12.849 l 0,3.952 -5.929,-0.493 c 0,0 1.481,3.459 1.481,4.938 l -3.953,0 2.472,5.439 c -1.977,-0.495 -3.953,0.989 -5.437,1.976 l 3.46,2.965 -3.46,3.462 c 3.954,3.457 9.389,5.432 13.343,4.938 3.953,-0.492 8.4,-11.859 8.895,-14.328" />
          <path
             style="fill-opacity:0;stroke:#1a1919;stroke-width:1.07599998;stroke-linecap:round;stroke-linejoin:round"
             inkscape:connector-curvature="0"
             id="path3693"
             d="m 243.54551,134.4311 c 0.777,-3.877 -3.46,-12.849 -10.872,-12.849 l 0,3.952 -5.929,-0.493 c 0,0 1.481,3.459 1.481,4.938 l -3.953,0 2.472,5.439 c -1.977,-0.495 -3.953,0.989 -5.437,1.976 l 3.46,2.965 -3.46,3.462 c 3.954,3.457 9.389,5.432 13.343,4.938 3.953,-0.492 8.4,-11.859 8.895,-14.328 z" />
          <path
             style="fill:#d8232a"
             inkscape:connector-curvature="0"
             id="path3695"
             d="m 243.56151,150.2301 -11.239,2.994 -4.464,-0.285 3.742,-4.625 c -2.961,0.14 -4.466,-0.287 -4.466,-0.287 -0.538,-0.965 4.167,-6.13 8.609,-6.338 4.443,-0.207 7.818,8.541 7.818,8.541" />
          <path
             style="fill-opacity:0;stroke:#1a1919;stroke-width:1.07599998;stroke-linecap:round;stroke-linejoin:round"
             inkscape:connector-curvature="0"
             id="path3697"
             d="m 243.56151,150.2301 -11.239,2.994 -4.464,-0.285 3.742,-4.625 c -2.961,0.14 -4.466,-0.287 -4.466,-0.287 -0.538,-0.965 4.167,-6.13 8.609,-6.338 4.443,-0.207 7.818,8.541 7.818,8.541 z" />
          <path
             style="fill:#d8232a"
             inkscape:connector-curvature="0"
             id="path3699"
             d="m 249.84651,140.2341 c 1.483,1.979 3.952,1.979 5.93,0.496 1.976,-1.483 8.893,-11.859 11.364,-14.332 l -5.434,0.494 c 0,-1.482 2.47,-4.939 2.47,-4.939 0,0 -4.447,0.493 -5.929,1.976 -0.989,-1.483 0.495,-5.437 0.495,-5.437 -1.979,-0.491 -8.896,8.4 -9.884,13.837 -0.99,5.435 -1.484,6.425 0.988,7.905" />
          <path
             style="fill-opacity:0;stroke:#1a1919;stroke-width:1.07599998;stroke-linecap:round;stroke-linejoin:round"
             inkscape:connector-curvature="0"
             id="path3701"
             d="m 249.84651,140.2341 c 1.483,1.979 3.952,1.979 5.93,0.496 1.976,-1.483 8.893,-11.859 11.364,-14.332 l -5.434,0.494 c 0,-1.482 2.47,-4.939 2.47,-4.939 0,0 -4.447,0.493 -5.929,1.976 -0.989,-1.483 0.495,-5.437 0.495,-5.437 -1.979,-0.491 -8.896,8.4 -9.884,13.837 -0.99,5.435 -1.484,6.425 0.988,7.905 z" />
          <path
             style="fill:#d8232a"
             inkscape:connector-curvature="0"
             id="path3703"
             d="m 255.07551,143.6511 c 3.97,-0.92 15.456,-7.635 17.927,-7.589 l -3.898,-3.035 c 0,0 5.965,-1.872 7.95,-2.33 0,0 -5.876,-3.067 -7.367,-2.602 l 2.532,-3.416 c 0,0 -3.919,-2.046 -6.415,-0.608 l 0.061,-3.459 c 0,0 -7.489,4.313 -10.579,11.177 -3.088,6.865 -5.117,9.793 -0.211,11.862" />
          <path
             style="fill-opacity:0;stroke:#1a1919;stroke-width:1.07599998;stroke-linecap:round;stroke-linejoin:round"
             inkscape:connector-curvature="0"
             id="path3705"
             d="m 255.07551,143.6511 c 3.97,-0.92 15.456,-7.635 17.927,-7.589 l -3.898,-3.035 c 0,0 5.965,-1.872 7.95,-2.33 0,0 -5.876,-3.067 -7.367,-2.602 l 2.532,-3.416 c 0,0 -3.919,-2.046 -6.415,-0.608 l 0.061,-3.459 c 0,0 -7.489,4.313 -10.579,11.177 -3.088,6.865 -5.117,9.793 -0.211,11.862 z" />
          <path
             style="fill:#d8232a"
             inkscape:connector-curvature="0"
             id="path3707"
             d="m 244.40951,123.4341 c 2.964,0.495 17.296,13.835 0.493,28.663 -3.952,-0.498 -8.4,-5.435 -9.881,-7.414 -1.483,-1.976 -6.425,-8.894 -6.425,-8.894 l 6.92,0.989 1.974,-7.41 3.953,1.976 z" />
          <path
             style="fill-opacity:0;stroke:#1a1919;stroke-width:1.07599998;stroke-linecap:round;stroke-linejoin:round"
             inkscape:connector-curvature="0"
             id="path3709"
             d="m 244.40951,123.4341 c 2.964,0.495 17.296,13.835 0.493,28.663 -3.952,-0.498 -8.4,-5.435 -9.881,-7.414 -1.483,-1.976 -6.425,-8.894 -6.425,-8.894 l 6.92,0.989 1.974,-7.41 3.953,1.976 2.966,-7.91 z" />
          <path
             style="fill:#3aab47"
             inkscape:connector-curvature="0"
             id="path3725"
             d="m 252.81151,152.5931 c 1.481,2.468 8.931,12.191 14.825,12.847 4.446,0.492 4.94,-2.47 3.457,-6.428 -1.482,-3.951 -11.364,-12.846 -12.352,-14.33 z" />
          <path
             style="fill-opacity:0;stroke:#1a1919;stroke-width:1.07599998;stroke-linecap:round;stroke-linejoin:round"
             inkscape:connector-curvature="0"
             id="path3727"
             d="m 252.81151,152.5931 c 1.481,2.468 8.931,12.191 14.825,12.847 4.446,0.492 4.94,-2.47 3.457,-6.428 -1.482,-3.951 -11.364,-12.846 -12.352,-14.33 l -5.93,7.911 z" />
          <path
             style="fill:#84bf41"
             inkscape:connector-curvature="0"
             id="path3729"
             d="m 266.15251,148.6351 c 0,0 -0.988,2.965 0.494,9.39 1.482,6.425 -0.494,3.953 -0.494,3.953 0,0 -5.93,-2.966 -8.402,0 0,0 6.92,5.436 10.873,5.436 3.953,0 3.953,-2.469 3.953,-5.928 0,-3.461 -6.916,-10.379 -6.424,-12.851" />
          <path
             style="fill-opacity:0;stroke:#1a1919;stroke-width:1.07599998;stroke-linecap:round;stroke-linejoin:round"
             inkscape:connector-curvature="0"
             id="path3731"
             d="m 266.15251,148.6351 c 0,0 -0.988,2.965 0.494,9.39 1.482,6.425 -0.494,3.953 -0.494,3.953 0,0 -5.93,-2.966 -8.402,0 0,0 6.92,5.436 10.873,5.436 3.953,0 3.953,-2.469 3.953,-5.928 0,-3.461 -6.916,-10.379 -6.424,-12.851 z" />
          <path
             style="fill:#d8232a"
             inkscape:connector-curvature="0"
             id="path3733"
             d="m 243.05051,144.1901 c -1.482,3.951 -0.989,17.296 4.449,21.25 l 3.953,1.481 -0.494,-7.909 4.446,2.472 0.497,-7.412 4.445,0.495 -2.964,-6.426 6.423,-2.962 -2.47,-1.483 5.436,-2.47 c -2.47,-1.978 -16.801,-10.379 -23.721,2.964" />
          <path
             style="fill-opacity:0;stroke:#1a1919;stroke-width:1.07599998;stroke-linecap:round;stroke-linejoin:round"
             inkscape:connector-curvature="0"
             id="path3735"
             d="m 243.05051,144.1901 c -1.482,3.951 -0.989,17.296 4.449,21.25 l 3.953,1.481 -0.494,-7.909 4.446,2.472 0.497,-7.412 4.445,0.495 -2.964,-6.426 6.423,-2.962 -2.47,-1.483 5.436,-2.47 c -2.47,-1.978 -16.801,-10.379 -23.721,2.964 z" />
        </g>
      </g>
      <g
         id="g4235"
         transform="matrix(-1.9634096,-2.0380782,2.0380782,-1.9634096,-600.23834,730.72473)">
        <path
           d="m -77.713166,264.09037 c 1.672,0.542 9.011,5.052 8.056,8.859 -0.952,3.81 -6.311,6.332 -8.317,6.392 -2.006,0.06 -6.886,-1.099 -6.886,-1.099 0,0 8.908,-2.505 10.052,-3.841 1.14,-1.334 -2.905,-10.311 -2.905,-10.311"
           id="path3679"
           inkscape:connector-curvature="0"
           style="fill:#3f9257" />
        <path
           d="m -77.713166,264.09037 c 1.672,0.542 9.011,5.052 8.056,8.859 -0.952,3.81 -6.311,6.332 -8.317,6.392 -2.006,0.06 -6.886,-1.099 -6.886,-1.099 0,0 8.908,-2.505 10.052,-3.841 1.14,-1.334 -2.905,-10.311 -2.905,-10.311 z"
           id="path3681"
           inkscape:connector-curvature="0"
           style="fill-opacity:0;stroke:#1a1919;stroke-width:1.07599998;stroke-linecap:round;stroke-linejoin:round" />
      </g>
      <g
         transform="matrix(-1.6886591,2.2709404,2.2709404,1.6886591,501.22354,-605.24193)"
         id="g5033">
        <path
           style="fill:#3f9257"
           inkscape:connector-curvature="0"
           id="path5035"
           d="m 309.39028,66.835307 c 1.982,2.007 25.573,24.308 29.245,27.583 3.674,3.266 6.05,4.95 6.05,4.95 0,0 2.716,0.086 2.819,-0.991 -0.179,-1.834 -3.421,-5.789 -4.27,-6.413 -0.843,-0.63 -32.186,-23.516 -33.844,-25.129" />
        <path
           style="fill-opacity:0;stroke:#1a1919;stroke-width:1.07599998;stroke-linecap:round;stroke-linejoin:round"
           inkscape:connector-curvature="0"
           id="path5037"
           d="m 309.39028,66.835307 c 1.982,2.007 25.573,24.308 29.245,27.583 3.674,3.266 6.05,4.95 6.05,4.95 0,0 2.716,0.086 2.819,-0.991 -0.179,-1.834 -3.421,-5.789 -4.27,-6.413 -0.843,-0.63 -32.186,-23.516 -33.844,-25.129 z" />
      </g>
    </g>
    <g
       transform="matrix(0.89370067,-0.44866371,0.44866371,0.89370067,-197.26053,241.29403)"
       id="g5126">
      <g
         id="g3737"
         transform="matrix(2.8299717,0,0,2.8299717,-140.00386,-477.72021)">
        <path
           d="m 122.042,102.747 c -0.463,1.253 8.04016,177.06411 9.38516,183.72011 l 5.1189,-0.12543 C 136.21606,283.37368 125.145,107.207 124.967,103.823 c -0.18,-3.386 -2.925,-1.076 -2.925,-1.076 z"
           id="path3739"
           inkscape:connector-curvature="0"
           style="fill:#84bf41;fill-opacity:1;stroke:#1a1919;stroke-width:1.07599998;stroke-linecap:round;stroke-linejoin:round"
           sodipodi:nodetypes="ccccc" />
        <path
           d="m 129.046,95.014 c 0.317,1.318 -2.554,5.866 -4.131,6.888 -1.573,1.022 -3.785,-0.593 -5.719,-7.309 -1.934,-6.714 5.219,-15.288 5.865,-17.053 1.914,3.507 5.518,10.033 3.985,17.474"
           id="path3741"
           inkscape:connector-curvature="0"
           style="fill:#d8232a" />
        <path
           d="m 129.046,95.014 c 0.317,1.318 -2.554,5.866 -4.131,6.888 -1.573,1.022 -3.785,-0.593 -5.719,-7.309 -1.934,-6.714 5.219,-15.288 5.865,-17.053 1.914,3.507 5.518,10.033 3.985,17.474 z"
           id="path3743"
           inkscape:connector-curvature="0"
           style="fill-opacity:0;stroke:#1a1919;stroke-width:1.07599998;stroke-linecap:round;stroke-linejoin:round" />
        <path
           d="m 118.916,92.092 c -0.556,2.599 -1.22,8.756 2.197,13.616 2.564,1.741 2.691,1.39 3.435,0.461 0.739,-0.927 5.775,-10.285 4.924,-13.397 l -5.448,7.202 z"
           id="path3745"
           inkscape:connector-curvature="0"
           style="fill:#84bf41" />
        <path
           d="m 118.916,92.092 c -0.556,2.599 -1.22,8.756 2.197,13.616 2.564,1.741 2.691,1.39 3.435,0.461 0.739,-0.927 5.775,-10.285 4.924,-13.397 l -5.448,7.202 -5.108,-7.882 z"
           id="path3747"
           inkscape:connector-curvature="0"
           style="fill-opacity:0;stroke:#1a1919;stroke-width:1.07599998;stroke-linecap:round;stroke-linejoin:round" />
        <path
           style="fill:#3f9257;fill-opacity:1;stroke:#1a1919;stroke-width:1.07599998;stroke-linecap:round;stroke-linejoin:round"
           inkscape:connector-curvature="0"
           id="path3749"
           d="m 126.91964,141.61619 c 1.21677,-2.4892 13.97268,-26.63278 14.33798,-31.57736 -3.15384,5.32532 -8.08417,14.75146 -10.89927,18.73296 -2.81715,3.99434 -3.49008,6.66129 -3.49008,6.66129 l 0.0514,6.18311 z" />
      </g>
      <g
         id="g4050"
         transform="matrix(2.7712706,-0.57340985,0.57340985,2.7712706,296.26002,-400.11288)">
        <path
           style="fill:#3f9257"
           inkscape:connector-curvature="0"
           id="path3587"
           d="m -52.457575,106.5932 3.38,-1.122 c 0,0 1.398,-3.132 0.855,-4.998 -0.543,-1.873999 -5.498,-14.070998 -6.971,-17.762998 -2.18,-5.48 -6.473,-13.529 -6.473,-13.529 1.592,5.965 2.824,11.896 3.94,15.283 1.121,3.376 4.036,12.561999 4.249,14.034999 0.216,1.475 -0.208,5.795999 1.02,8.093999" />
        <path
           style="fill-opacity:0;stroke:#1a1919;stroke-width:1.07599998;stroke-linecap:round;stroke-linejoin:round"
           inkscape:connector-curvature="0"
           id="path3589"
           d="m -52.457575,106.5932 3.38,-1.122 c 0,0 1.398,-3.132 0.855,-4.998 -0.543,-1.873999 -5.498,-14.070998 -6.971,-17.762998 -2.18,-5.48 -6.473,-13.529 -6.473,-13.529 1.592,5.965 2.824,11.896 3.94,15.283 1.121,3.376 4.036,12.561999 4.249,14.034999 0.216,1.475 -0.208,5.795999 1.02,8.093999 z" />
      </g>
    </g>
    <g
       transform="matrix(0.90376424,0.4280306,-0.4280306,0.90376424,-430.22886,-163.07777)"
       id="g5078">
      <g
         id="g4185"
         transform="matrix(2.5498009,1.2277033,-1.2277033,2.5498009,196.40067,-656.03863)">
        <path
           d="m 200.52051,131.4611 c 0,0 -0.289,-0.163 -0.768,-0.456 -2.313,-1.424 -9.08,-5.936 -9.63,-10.427 l 3.421,-0.101 0.251,-5.25 6.321,2.535 c 0,0 -1.525,-3.887 -1.46,-5.198 0,0 5.297,1.962 8.035,2.487 2.734,0.521 6.688,-2.313 7.549,-3.851 0,0 1.735,7.712 3.086,12.506 1.352,4.802 -2.209,10.55 -5.009,11.335 -2.797,0.79 -11.796,-3.58 -11.796,-3.58"
           id="path3635"
           inkscape:connector-curvature="0"
           style="fill:#d8232a" />
        <path
           d="m 200.52051,131.4611 c 0,0 -0.289,-0.163 -0.768,-0.456 -2.313,-1.424 -9.08,-5.936 -9.63,-10.427 l 3.421,-0.101 0.251,-5.25 6.321,2.535 c 0,0 -1.525,-3.887 -1.46,-5.198 0,0 5.297,1.962 8.035,2.487 2.734,0.521 6.688,-2.313 7.549,-3.851 0,0 1.735,7.712 3.086,12.506 1.352,4.802 -2.209,10.55 -5.009,11.335 -2.797,0.79 -11.796,-3.58 -11.796,-3.58 z"
           id="path3637"
           inkscape:connector-curvature="0"
           style="fill-opacity:0;stroke:#1a1919;stroke-width:1.07599998;stroke-linecap:round;stroke-linejoin:round" />
        <path
           d="m 216.83151,143.2451 c 2.758,1.55 9.446,3.846 11.4,7.484 1.956,3.634 5.698,5.369 3.343,10.213 -0.975,2.014 -11.134,1.74 -14.012,-0.235 -2.883,-1.98 -9.077,-5.817 -9.077,-5.817 z"
           id="path3639"
           inkscape:connector-curvature="0"
           style="fill:#3aab47" />
        <path
           d="m 216.83151,143.2451 c 2.758,1.55 9.446,3.846 11.4,7.484 1.956,3.634 5.698,5.369 3.343,10.213 -0.975,2.014 -11.134,1.74 -14.012,-0.235 -2.883,-1.98 -9.077,-5.817 -9.077,-5.817 l 8.346,-11.645 z"
           id="path3641"
           inkscape:connector-curvature="0"
           style="fill-opacity:0;stroke:#1a1919;stroke-width:1.07599998;stroke-linecap:round;stroke-linejoin:round" />
        <path
           d="m 232.79551,157.2021 c 1.647,0.925 92.81483,36.39405 108.20288,50.4928 l -1.005,4.196 C 321.45673,197.60388 243.00144,165.39793 231.22051,160.6491 z"
           id="path3643"
           inkscape:connector-curvature="0"
           style="fill:#84bf41;fill-opacity:1;stroke:#1a1919;stroke-width:1.07599998;stroke-linecap:round;stroke-linejoin:round"
           sodipodi:nodetypes="ccccc" />
        <path
           d="m 205.91651,141.9611 c 1.776,5.297 -2.642,10.05 -9.311,9.432 -6.668,-0.62 -13.476,-2.544 -13.476,-2.544 0,0 1.034,-2.748 2.517,-3.698 0,0 -4.69,-1.884 -6.718,-2.333 0,0 2.97,-1.896 5.178,-2.259 0,0 -5.915,-5.981 -7.534,-6.343 0,0 5.54,-0.052 7.162,0.305 -0.997,-3.198 -5.099,-5.801 -5.099,-5.801 1.483,-0.95 8.379,0.568 8.379,0.568 0,0 -1.809,-3.377 -3.251,-4.544 1.078,-1.041 5.769,0.846 7.388,1.202 1.623,0.358 10.143,2.235 14.765,16.015"
           id="path3659"
           inkscape:connector-curvature="0"
           style="fill:#d8232a" />
        <path
           d="m 205.91651,141.9611 c 1.776,5.297 -2.642,10.05 -9.311,9.432 -6.668,-0.62 -13.476,-2.544 -13.476,-2.544 0,0 1.034,-2.748 2.517,-3.698 0,0 -4.69,-1.884 -6.718,-2.333 0,0 2.97,-1.896 5.178,-2.259 0,0 -5.915,-5.981 -7.534,-6.343 0,0 5.54,-0.052 7.162,0.305 -0.997,-3.198 -5.099,-5.801 -5.099,-5.801 1.483,-0.95 8.379,0.568 8.379,0.568 0,0 -1.809,-3.377 -3.251,-4.544 1.078,-1.041 5.769,0.846 7.388,1.202 1.623,0.358 10.143,2.235 14.765,16.015 z"
           id="path3661"
           inkscape:connector-curvature="0"
           style="fill-opacity:0;stroke:#1a1919;stroke-width:1.07599998;stroke-linecap:round;stroke-linejoin:round" />
        <path
           d="m 177.56051,147.0331 c 0,0 9.542,-6.401 15.479,-6.046 5.937,0.356 10.712,1.162 10.288,5.787 -0.425,4.625 -5.083,8.68 -9.574,10.879 -4.494,2.205 -7.588,3.409 -7.588,3.409 0,0 -0.672,-2.855 0.574,-4.233 -1.465,-0.325 -3.314,-0.494 -4.475,-0.038 0,0 1.414,-3.227 2.81,-4.224 l -5.632,0.421 c 0,0 1.265,-3.615 2.812,-4.221 z"
           id="path3663"
           inkscape:connector-curvature="0"
           style="fill:#d8232a" />
        <path
           d="m 177.56051,147.0331 c 0,0 9.542,-6.401 15.479,-6.046 5.937,0.356 10.712,1.162 10.288,5.787 -0.425,4.625 -5.083,8.68 -9.574,10.879 -4.494,2.205 -7.588,3.409 -7.588,3.409 0,0 -0.672,-2.855 0.574,-4.233 -1.465,-0.325 -3.314,-0.494 -4.475,-0.038 0,0 1.414,-3.227 2.81,-4.224 l -5.632,0.421 c 0,0 1.265,-3.615 2.812,-4.221 l -4.694,-1.734 z"
           id="path3665"
           inkscape:connector-curvature="0"
           style="fill-opacity:0;stroke:#1a1919;stroke-width:1.07599998;stroke-linecap:round;stroke-linejoin:round" />
        <path
           d="m 186.60851,141.5151 c 0,0 3.435,-3.123 6.743,-3.625 -0.736,-1.087 -1.673,-9.021 -0.815,-10.562 1.942,0.755 3.814,2.814 6.265,3.847 -0.678,-2.399 0.482,-7.47 1.855,-8.722 0,0 3.127,3.435 3.866,4.526 0.462,-1.428 2.184,-4.503 2.184,-4.503 0,0 10.11,14.746 7.689,18.122 -4.643,6.486 -17.892,8.488 -27.787,0.917"
           id="path3667"
           inkscape:connector-curvature="0"
           style="fill:#d8232a" />
        <path
           d="m 186.60851,141.5151 c 0,0 3.435,-3.123 6.743,-3.625 -0.736,-1.087 -1.673,-9.021 -0.815,-10.562 1.942,0.755 3.814,2.814 6.265,3.847 -0.678,-2.399 0.482,-7.47 1.855,-8.722 0,0 3.127,3.435 3.866,4.526 0.462,-1.428 2.184,-4.503 2.184,-4.503 0,0 10.11,14.746 7.689,18.122 -4.643,6.486 -17.892,8.488 -27.787,0.917 z"
           id="path3669"
           inkscape:connector-curvature="0"
           style="fill-opacity:0;stroke:#1a1919;stroke-width:1.07599998;stroke-linecap:round;stroke-linejoin:round" />
        <path
           d="m 212.57451,140.2491 c 1.822,0.349 4.124,-3.751 7.959,-6.987 3.834,-3.24 4.985,-5.288 6.985,-5.852 0,0 -4.275,-1.385 -5.872,-0.934 0,0 2.696,-4.214 4.468,-5.575 0,0 -4.272,-1.388 -6.158,-0.423 0,0 0.297,-3.539 2.586,-4.613 0,0 -10.275,0.302 -12.635,5.711 -2.361,5.413 -2.385,11.463 -2.045,12.662 0.336,1.2 4.712,6.011 4.712,6.011"
           id="path3671"
           inkscape:connector-curvature="0"
           style="fill:#d8232a" />
        <path
           d="m 212.57451,140.2491 c 1.822,0.349 4.124,-3.751 7.959,-6.987 3.834,-3.24 4.985,-5.288 6.985,-5.852 0,0 -4.275,-1.385 -5.872,-0.934 0,0 2.696,-4.214 4.468,-5.575 0,0 -4.272,-1.388 -6.158,-0.423 0,0 0.297,-3.539 2.586,-4.613 0,0 -10.275,0.302 -12.635,5.711 -2.361,5.413 -2.385,11.463 -2.045,12.662 0.336,1.2 4.712,6.011 4.712,6.011 z"
           id="path3673"
           inkscape:connector-curvature="0"
           style="fill-opacity:0;stroke:#1a1919;stroke-width:1.07599998;stroke-linecap:round;stroke-linejoin:round" />
        <path
           d="m 216.70551,134.6841 c -3.391,-0.455 -8.575,5.555 -13.208,8.997 -4.635,3.443 -6.745,3.26 -8.165,5.51 -1.424,2.245 -2.887,11.605 -2.887,11.605 l 4.356,-2.159 c 0,0 3.443,4.631 4.501,6.607 1.188,-0.555 1.051,-5.554 1.694,-7.297 0,0 3.715,3.349 5.138,4.863 0,0 -0.642,-5.782 0.413,-7.572 0.917,0.734 6.929,2.159 8.941,1.511 2.02,-0.644 0.506,-2.984 0.323,-4.631 1.971,-1.059 3.622,-1.24 5.596,-2.293 1.972,-1.06 -1.559,-2.753 -2.113,-3.944 1.103,-1.382 1.789,-2.711 3.441,-2.891 0,0 -1.33,-4.452 -3.489,-5.05 0,0 1.058,-1.788 3.167,-1.605 0.23,-1.698 -0.459,-4.13 -7.708,-1.651"
           id="path3675"
           inkscape:connector-curvature="0"
           style="fill:#d8232a" />
        <path
           d="m 216.70551,134.6841 c -3.391,-0.455 -8.575,5.555 -13.208,8.997 -4.635,3.443 -6.745,3.26 -8.165,5.51 -1.424,2.245 -2.887,11.605 -2.887,11.605 l 4.356,-2.159 c 0,0 3.443,4.631 4.501,6.607 1.188,-0.555 1.051,-5.554 1.694,-7.297 0,0 3.715,3.349 5.138,4.863 0,0 -0.642,-5.782 0.413,-7.572 0.917,0.734 6.929,2.159 8.941,1.511 2.02,-0.644 0.506,-2.984 0.323,-4.631 1.971,-1.059 3.622,-1.24 5.596,-2.293 1.972,-1.06 -1.559,-2.753 -2.113,-3.944 1.103,-1.382 1.789,-2.711 3.441,-2.891 0,0 -1.33,-4.452 -3.489,-5.05 0,0 1.058,-1.788 3.167,-1.605 0.23,-1.698 -0.459,-4.13 -7.708,-1.651 z"
           id="path3677"
           inkscape:connector-curvature="0"
           style="fill-opacity:0;stroke:#1a1919;stroke-width:1.07599998;stroke-linecap:round;stroke-linejoin:round" />
      </g>
      <path
         style="fill:#3f9257;fill-opacity:1;stroke:#1a1919;stroke-width:3.04504943;stroke-linecap:round;stroke-linejoin:round"
         inkscape:connector-curvature="0"
         id="path3723"
         d="m 651.70711,0.61173779 c -2.79885,4.19685001 0.0396,85.58401021 8.43331,102.36291221 6.99569,2.79884 8.39653,11.18405 8.39653,11.18405 0,0 -16.82984,-107.9436122 -16.82984,-113.54696221 z" />
      <g
         id="g4104"
         transform="matrix(2.8299717,0,0,2.8299717,-217.61702,-145.87025)">
        <path
           d="m 308.31842,89.789071 c 0,0 -9.881,-8.895 -22.731,-6.921 3.954,1.486 19.272,7.413 23.225,10.38 3.954,2.964 3.954,0.987 3.954,0.987 z"
           id="path3711"
           inkscape:connector-curvature="0"
           style="fill:#3f9257" />
        <path
           d="m 308.31842,89.789071 c 0,0 -9.881,-8.895 -22.731,-6.921 3.954,1.486 19.272,7.413 23.225,10.38 3.954,2.964 3.954,0.987 3.954,0.987 l -4.448,-4.446 z"
           id="path3713"
           inkscape:connector-curvature="0"
           style="fill-opacity:0;stroke:#1a1919;stroke-width:1.07599998;stroke-linecap:round;stroke-linejoin:round" />
      </g>
    </g>
    <g
       transform="translate(-379.0617,2.15638)"
       id="g5100">
      <g
         id="g4079"
         transform="matrix(2.8299717,0,0,2.8299717,-348.8673,-277.19433)">
        <path
           d="m 277.79251,154.0681 c -0.275,-2.757 -2.131,-30 -4.422,-34.397 0.12,6.188 0.887,16.798 0.588,21.665 -0.294,4.879 0.537,7.501 0.537,7.501 z"
           id="path3545"
           inkscape:connector-curvature="0"
           style="fill:#3f9257" />
        <path
           d="m 277.79251,154.0681 c -0.275,-2.757 -2.131,-30 -4.422,-34.397 0.12,6.188 0.887,16.798 0.588,21.665 -0.294,4.879 0.537,7.501 0.537,7.501 l 3.297,5.231 z"
           id="path3547"
           inkscape:connector-curvature="0"
           style="fill-opacity:0;stroke:#1a1919;stroke-width:1.07599998;stroke-linecap:round;stroke-linejoin:round" />
      </g>
      <g
         id="g4005"
         transform="matrix(2.8299717,0,0,2.8299717,-399.39876,-291.19511)">
        <path
           d="m 276.54451,65.088101 c 0,0 -6.206,9.669 -5.732,15.598 0.477,5.929 1.382,10.685 5.999,10.169 4.613,-0.518 8.571,-5.257 10.682,-9.792 2.109,-4.539 3.253,-7.656 3.253,-7.656 0,0 -2.87,-0.614 -4.222,0.658 -0.351,-1.455 -0.558,-3.302 -0.128,-4.471 0,0 -3.199,1.478 -4.164,2.893 l 0.305,-5.639 c 0,0 -3.589,1.338 -4.163,2.895 z"
           id="path3599"
           inkscape:connector-curvature="0"
           style="fill:#d8232a" />
        <path
           d="m 276.54451,65.088101 c 0,0 -6.206,9.669 -5.732,15.598 0.477,5.929 1.382,10.685 5.999,10.169 4.613,-0.518 8.571,-5.257 10.682,-9.792 2.109,-4.539 3.253,-7.656 3.253,-7.656 0,0 -2.87,-0.614 -4.222,0.658 -0.351,-1.455 -0.558,-3.302 -0.128,-4.471 0,0 -3.199,1.478 -4.164,2.893 l 0.305,-5.639 c 0,0 -3.589,1.338 -4.163,2.895 l -1.83,-4.655 z"
           id="path3601"
           inkscape:connector-curvature="0"
           style="fill-opacity:0;stroke:#1a1919;stroke-width:1.07599998;stroke-linecap:round;stroke-linejoin:round" />
        <path
           d="m 253.94451,86.380101 c 0,0 -0.139,-0.301 -0.395,-0.801 -1.237,-2.416 -5.212,-9.516 -9.646,-10.413 l -0.367,3.405 -5.253,-0.159 2.038,6.501 c 0,0 -3.757,-1.824 -5.069,-1.862 0,0 1.541,5.432 1.851,8.203 0.311,2.769 -2.825,6.488 -4.424,7.227 0,0 7.55,2.330999 12.228,4.049999 4.681,1.719 10.689,-1.383 11.692,-4.111999 1.004,-2.729 -2.655,-12.039 -2.655,-12.039"
           id="path3603"
           inkscape:connector-curvature="0"
           style="fill:#d8232a" />
        <path
           d="m 253.94451,86.380101 c 0,0 -0.139,-0.301 -0.395,-0.801 -1.237,-2.416 -5.212,-9.516 -9.646,-10.413 l -0.367,3.405 -5.253,-0.159 2.038,6.501 c 0,0 -3.757,-1.824 -5.069,-1.862 0,0 1.541,5.432 1.851,8.203 0.311,2.769 -2.825,6.488 -4.424,7.227 0,0 7.55,2.330999 12.228,4.049999 4.681,1.719 10.689,-1.383 11.692,-4.111999 1.004,-2.729 -2.655,-12.039 -2.655,-12.039 z"
           id="path3605"
           inkscape:connector-curvature="0"
           style="fill-opacity:0;stroke:#1a1919;stroke-width:1.07599998;stroke-linecap:round;stroke-linejoin:round" />
        <path
           d="m 262.03151,101.4491 c 1.329,2.871 3.1,9.719 6.573,11.949 3.472,2.23 4.912,6.098 9.926,4.127 2.08,-0.817 2.599,-10.964 0.85,-13.991 -1.748,-3.027 -5.089,-9.498999 -5.089,-9.498999 z"
           id="path3607"
           inkscape:connector-curvature="0"
           style="fill:#3aab47" />
        <path
           d="m 262.03151,101.4491 c 1.329,2.871 3.1,9.719 6.573,11.949 3.472,2.23 4.912,6.098 9.926,4.127 2.08,-0.817 2.599,-10.964 0.85,-13.991 -1.748,-3.027 -5.089,-9.498999 -5.089,-9.498999 l -12.26,7.413999 z"
           id="path3609"
           inkscape:connector-curvature="0"
           style="fill-opacity:0;stroke:#1a1919;stroke-width:1.07599998;stroke-linecap:round;stroke-linejoin:round" />
        <path
           d="m 274.70451,118.4501 c 0.794,1.714 47.62849,113.83242 51.93349,134.38042 l 4.262,-0.672 C 331.36166,244.46791 282.31251,122.9061 278.26451,117.1491 z"
           id="path3613"
           inkscape:connector-curvature="0"
           style="fill:#84bf41;fill-opacity:1;stroke:#1a1919;stroke-width:1.07599998;stroke-linecap:round;stroke-linejoin:round"
           sodipodi:nodetypes="ccccc" />
        <path
           d="m 259.37351,96.972101 c 0.207,1.846 -4.06,3.819999 -7.583,7.392999 -3.527,3.572 -5.658,4.559 -6.375,6.509 0,0 -1.051,-4.371 -0.478,-5.928 0,0 -4.41,2.363 -5.905,4.024 0,0 -1.05,-4.369 0.056,-6.175 0,0 -3.548,0.022 -4.798,2.218 0,0 1.1,-10.216999 6.676,-12.147999 5.58,-1.934 11.613,-1.488 12.782,-1.056 1.17,0.428 5.625,5.163 5.625,5.163"
           id="path3615"
           inkscape:connector-curvature="0"
           style="fill:#d8232a" />
        <path
           d="m 259.37351,96.972101 c 0.207,1.846 -4.06,3.819999 -7.583,7.392999 -3.527,3.572 -5.658,4.559 -6.375,6.509 0,0 -1.051,-4.371 -0.478,-5.928 0,0 -4.41,2.363 -5.905,4.024 0,0 -1.05,-4.369 0.056,-6.175 0,0 -3.548,0.022 -4.798,2.218 0,0 1.1,-10.216999 6.676,-12.147999 5.58,-1.934 11.613,-1.488 12.782,-1.056 1.17,0.428 5.625,5.163 5.625,5.163 z"
           id="path3617"
           inkscape:connector-curvature="0"
           style="fill-opacity:0;stroke:#1a1919;stroke-width:1.07599998;stroke-linecap:round;stroke-linejoin:round" />
        <path
           d="m 262.57951,93.914101 c 4.473,3.349 10.372,0.643 11.876,-5.883 1.503,-6.527 1.81,-13.594 1.81,-13.594 0,0 -2.934,0.119 -4.301,1.231 0,0 -0.318,-5.044 -0.108,-7.112 0,0 -2.732,2.227 -3.77,4.208 0,0 -3.825,-7.49 -3.658,-9.143 0,0 -1.789,5.244 -1.959,6.898 -2.724,-1.952 -3.911,-6.663 -3.911,-6.663 -1.365,1.111 -2.085,8.137 -2.085,8.137 0,0 -2.64,-2.778 -3.298,-4.514 -1.324,0.698 -1.004,5.744 -1.175,7.394 -0.168,1.652 -1.057,10.331 10.579,19.041"
           id="path3619"
           inkscape:connector-curvature="0"
           style="fill:#d8232a" />
        <path
           d="m 262.57951,93.914101 c 4.473,3.349 10.372,0.643 11.876,-5.883 1.503,-6.527 1.81,-13.594 1.81,-13.594 0,0 -2.934,0.119 -4.301,1.231 0,0 -0.318,-5.044 -0.108,-7.112 0,0 -2.732,2.227 -3.77,4.208 0,0 -3.825,-7.49 -3.658,-9.143 0,0 -1.789,5.244 -1.959,6.898 -2.724,-1.952 -3.911,-6.663 -3.911,-6.663 -1.365,1.111 -2.085,8.137 -2.085,8.137 0,0 -2.64,-2.778 -3.298,-4.514 -1.324,0.698 -1.004,5.744 -1.175,7.394 -0.168,1.652 -1.057,10.331 10.579,19.041 z"
           id="path3621"
           inkscape:connector-curvature="0"
           style="fill-opacity:0;stroke:#1a1919;stroke-width:1.07599998;stroke-linecap:round;stroke-linejoin:round" />
        <path
           d="m 262.65651,71.185101 c 0,0 -3.382,3.182 -4.14,6.441 -1.025,-0.819 -8.864,-2.37 -10.464,-1.633 0.597,1.992 2.506,4.021 3.348,6.545 -2.338,-0.863 -7.487,-0.099 -8.84,1.171 0,0 3.183,3.385 4.209,4.206 -1.458,0.349 -4.658,1.827 -4.658,1.827 0,0 13.915,11.226999 17.469,9.076 6.828,-4.127 9.853,-17.18 3.076,-27.633"
           id="path3623"
           inkscape:connector-curvature="0"
           style="fill:#d8232a" />
        <path
           d="m 262.65651,71.185101 c 0,0 -3.382,3.182 -4.14,6.441 -1.025,-0.819 -8.864,-2.37 -10.464,-1.633 0.597,1.992 2.506,4.021 3.348,6.545 -2.338,-0.863 -7.487,-0.099 -8.84,1.171 0,0 3.183,3.385 4.209,4.206 -1.458,0.349 -4.658,1.827 -4.658,1.827 0,0 13.915,11.226999 17.469,9.076 6.828,-4.127 9.853,-17.18 3.076,-27.633 z"
           id="path3625"
           inkscape:connector-curvature="0"
           style="fill-opacity:0;stroke:#1a1919;stroke-width:1.07599998;stroke-linecap:round;stroke-linejoin:round" />
        <path
           d="m 255.84751,100.5441 c 0.367,-3.402999 7.443,-6.998999 11.891,-10.675999 4.449,-3.678 4.775,-5.771 7.298,-6.612 2.522,-0.846 11.96,-0.03 11.96,-0.03 l -3.136,3.715 c 0,0 3.674,4.448 5.339,5.946 -0.82,1.024 -5.642,-0.304 -7.487,-0.098 0,0 2.361,4.409 3.492,6.153 0,0 -5.459,-2.006 -7.449,-1.41 0.495,1.066 0.439,7.243999 -0.668,9.045999 -1.11,1.807 -3.019,-0.223 -4.577,-0.795 -1.498,1.662 -2.071,3.222 -3.565,4.886 -1.497,1.663 -2.299,-2.171 -3.325,-2.992 -1.601,0.74 -3.057,1.088 -3.629,2.648 0,0 -4.004,-2.355 -4.07,-4.592 0,0 -1.987,0.598 -2.314,2.692 -1.704,-0.186 -3.9,-1.434 0.24,-7.881"
           id="path3627"
           inkscape:connector-curvature="0"
           style="fill:#d8232a" />
        <path
           d="m 255.84751,100.5441 c 0.367,-3.402999 7.443,-6.998999 11.891,-10.675999 4.449,-3.678 4.775,-5.771 7.298,-6.612 2.522,-0.846 11.96,-0.03 11.96,-0.03 l -3.136,3.715 c 0,0 3.674,4.448 5.339,5.946 -0.82,1.024 -5.642,-0.304 -7.487,-0.098 0,0 2.361,4.409 3.492,6.153 0,0 -5.459,-2.006 -7.449,-1.41 0.495,1.066 0.439,7.243999 -0.668,9.045999 -1.11,1.807 -3.019,-0.223 -4.577,-0.795 -1.498,1.662 -2.071,3.222 -3.565,4.886 -1.497,1.663 -2.299,-2.171 -3.325,-2.992 -1.601,0.74 -3.057,1.088 -3.629,2.648 0,0 -4.004,-2.355 -4.07,-4.592 0,0 -1.987,0.598 -2.314,2.692 -1.704,-0.186 -3.9,-1.434 0.24,-7.881 z"
           id="path3629"
           inkscape:connector-curvature="0"
           style="fill-opacity:0;stroke:#1a1919;stroke-width:1.07599998;stroke-linecap:round;stroke-linejoin:round" />
        <path
           d="m 267.13951,111.8511 c 0.41,1.71 4.336,9.377 8.207,8.722 3.869,-0.653 6.8,-5.802 7.019,-7.795 0.215,-1.996 -0.56,-6.953 -0.56,-6.953 0,0 -3.192,8.687 -4.609,9.724 -1.42,1.034 -10.057,-3.698 -10.057,-3.698"
           id="path3631"
           inkscape:connector-curvature="0"
           style="fill:#84bf41" />
        <path
           d="m 267.13951,111.8511 c 0.41,1.71 4.336,9.377 8.207,8.722 3.869,-0.653 6.8,-5.802 7.019,-7.795 0.215,-1.996 -0.56,-6.953 -0.56,-6.953 0,0 -3.192,8.687 -4.609,9.724 -1.42,1.034 -10.057,-3.698 -10.057,-3.698 z"
           id="path3633"
           inkscape:connector-curvature="0"
           style="fill-opacity:0;stroke:#1a1919;stroke-width:1.07599998;stroke-linecap:round;stroke-linejoin:round" />
      </g>
      <g
         id="g4129"
         transform="matrix(2.8299717,0,0,2.8299717,-547.53464,-119.16262)">
        <path
           d="m 309.39028,66.835307 c 1.982,2.007 25.573,24.308 29.245,27.583 3.674,3.266 6.05,4.95 6.05,4.95 0,0 2.716,0.086 2.819,-0.991 -0.179,-1.834 -3.421,-5.789 -4.27,-6.413 -0.843,-0.63 -32.186,-23.516 -33.844,-25.129"
           id="path3591"
           inkscape:connector-curvature="0"
           style="fill:#3f9257" />
        <path
           d="m 309.39028,66.835307 c 1.982,2.007 25.573,24.308 29.245,27.583 3.674,3.266 6.05,4.95 6.05,4.95 0,0 2.716,0.086 2.819,-0.991 -0.179,-1.834 -3.421,-5.789 -4.27,-6.413 -0.843,-0.63 -32.186,-23.516 -33.844,-25.129 z"
           id="path3593"
           inkscape:connector-curvature="0"
           style="fill-opacity:0;stroke:#1a1919;stroke-width:1.07599998;stroke-linecap:round;stroke-linejoin:round" />
      </g>
    </g>
    <g
       transform="matrix(-0.94767842,0.3192266,0.3192266,0.94767842,707.00462,-313.83674)"
       id="g5063">
      <g
         transform="matrix(2.8299717,0,0,2.8299717,748.57032,-2.9059398)"
         id="g5039">
        <path
           d="m -16.649038,100.38641 c -1.569,-0.703996 -4.847,-4.293996 -5.859,-5.121996 -1.005,-0.822 -6.674,-4.104 -7.43,-3.815 -0.751,0.287 0.486,13.491996 1.285,16.472996 -0.813,-0.99 -3.81,-11.092996 -4.555,-12.804996 -0.737,-1.707 0.407,-5.948 0.945,-7.714999 0.537,-1.759 4.855,-1.338 9.339,2.919999 z"
           id="path5041"
           inkscape:connector-curvature="0"
           style="fill:#3f9257" />
        <path
           d="m -16.649038,100.38641 c -1.569,-0.703996 -4.847,-4.293996 -5.859,-5.121996 -1.005,-0.822 -6.674,-4.104 -7.43,-3.815 -0.751,0.287 0.486,13.491996 1.285,16.472996 -0.813,-0.99 -3.81,-11.092996 -4.555,-12.804996 -0.737,-1.707 0.407,-5.948 0.945,-7.714999 0.537,-1.759 4.855,-1.338 9.339,2.919999 l 6.275,10.063996 z"
           id="path5043"
           inkscape:connector-curvature="0"
           style="fill-opacity:0;stroke:#1a1919;stroke-width:1.07599998;stroke-linecap:round;stroke-linejoin:round" />
      </g>
      <g
         id="g3645"
         transform="matrix(2.268026,1.6925713,-1.6925713,2.268026,665.03439,-289.76304)">
        <path
           d="m 70.744,147.86528 c 1.285,-0.361 95.21045,19.77105 142.02305,70.55246 l -5.43955,1.63136 C 164.27358,175.92985 74.948,151.30628 71.589,150.86528 c -3.363,-0.444 -0.845,-3 -0.845,-3 z"
           id="path3647"
           inkscape:connector-curvature="0"
           style="fill:#84bf41;fill-opacity:1;stroke:#1a1919;stroke-width:1.07599998;stroke-linecap:round;stroke-linejoin:round"
           sodipodi:nodetypes="ccccc" />
        <g
           id="g3649">
          <path
             style="fill:#d8232a"
             inkscape:connector-curvature="0"
             id="path3651"
             d="m 62.488,154.955 c 1.291,0.417 6.05,-2.089 7.191,-3.582 1.138,-1.494 -0.299,-3.822 -6.844,-6.27 -6.543,-2.452 -15.647,4.015 -17.457,4.521 3.346,2.181 9.573,6.282 17.11,5.331" />
          <path
             style="fill-opacity:0;stroke:#1a1919;stroke-width:1.07599998;stroke-linecap:round;stroke-linejoin:round"
             inkscape:connector-curvature="0"
             id="path3653"
             d="m 62.488,154.955 c 1.291,0.417 6.05,-2.089 7.191,-3.582 1.138,-1.494 -0.299,-3.822 -6.844,-6.27 -6.543,-2.452 -15.647,4.015 -17.457,4.521 3.346,2.181 9.573,6.282 17.11,5.331 z" />
          <path
             style="fill:#84bf41"
             inkscape:connector-curvature="0"
             id="path3655"
             d="m 60.363,144.626 c 2.634,-0.349 8.825,-0.532 13.404,3.252 1.538,2.689 1.176,2.791 0.192,3.46 -0.983,0.664 -10.702,4.965 -13.738,3.868 l 7.604,-4.872 z" />
          <path
             style="fill-opacity:0;stroke:#1a1919;stroke-width:1.07599998;stroke-linecap:round;stroke-linejoin:round"
             inkscape:connector-curvature="0"
             id="path3657"
             d="m 60.363,144.626 c 2.634,-0.349 8.825,-0.532 13.404,3.252 1.538,2.689 1.176,2.791 0.192,3.46 -0.983,0.664 -10.702,4.965 -13.738,3.868 l 7.604,-4.872 -7.462,-5.708 z" />
        </g>
      </g>
      <g
         transform="matrix(-0.93468585,2.6711612,2.6711612,0.93468585,505.24215,-598.37735)"
         id="g5045">
        <path
           style="fill:#3f9257"
           inkscape:connector-curvature="0"
           id="path5047"
           d="m 277.79251,154.0681 c -0.275,-2.757 -2.131,-30 -4.422,-34.397 0.12,6.188 0.887,16.798 0.588,21.665 -0.294,4.879 0.537,7.501 0.537,7.501 z" />
        <path
           style="fill-opacity:0;stroke:#1a1919;stroke-width:1.07599998;stroke-linecap:round;stroke-linejoin:round"
           inkscape:connector-curvature="0"
           id="path5049"
           d="m 277.79251,154.0681 c -0.275,-2.757 -2.131,-30 -4.422,-34.397 0.12,6.188 0.887,16.798 0.588,21.665 -0.294,4.879 0.537,7.501 0.537,7.501 l 3.297,5.231 z" />
      </g>
    </g>
  </g>
</svg>
