<svg height="512" viewBox="0 0 60 60" width="512" xmlns="http://www.w3.org/2000/svg"><g id="Page-1" fill="none" fill-rule="evenodd"><g id="078---Orchid" fill="rgb(0,0,0)" fill-rule="nonzero" transform="translate(0 -1)"><path id="Shape" d="m6.543 36.758c-3.34543469 5.0480932-5.56189971 10.7587823-6.498 16.742-.14708909.8701881.09644041 1.7609981.66577054 2.4353316s1.40669807 1.0637742 2.28922946 1.0646684c.21937203-.0000069.43805834-.0244917.652-.073 4.7049387-.9991659 9.257072-2.6161854 13.538-4.809.3009304 1.40565 1.3011199 2.559076 2.65 3.056l1.454.517c.6372821.2483956 1.125324.7755103 1.324 1.43l.282.926c.3689918 1.2546795 1.3075669 2.2621748 2.533 2.719 1.1528942.4201366 2.436637.2695444 3.461-.406l.07-.047c.6249946-.4093733 1.4318935-.4144604 2.062-.013l.108.072c1.0214544.6665567 2.2973695.8125662 3.443.394 1.2272264-.4580713 2.1666659-1.4679224 2.535-2.725l.276-.908c.1963964-.657405.6837411-1.1882494 1.322-1.44l1.462-.52c1.3480705-.4969782 2.3474961-1.6500164 2.648-3.055 4.2806407 2.1926673 8.8324237 3.8096818 13.537 4.809.2143153.0481883.4333342.0723374.653.072.8816567-.0023623 1.7176404-.3924313 2.2858455-1.0665731.5682052-.6741417.811101-1.5640991.6641545-2.4334269-.9368766-5.98302-3.1540201-11.6933585-6.5-16.741 6.451-4.267 6.54-17.603 6.54-17.758 0-3.009 0-11-9-11-6.144 0-9.56 3.32-11.733 6.292-1.1325458-4.79276426-3.6504724-9.14627331-7.24-12.518-1.1573381-1.03612066-2.9097511-1.03267018-4.063.008-3.5857685 3.37003195-6.1005579 7.72074621-7.231 12.51-2.173-2.972-5.589-6.292-11.733-6.292-9 0-9 7.991-9 11 0 .155.089 13.491 6.543 17.758zm-3.332 18.217c-.3219471.0681857-.65683261-.0263931-.89554622-.2529213s-.35069301-.5560037-.29945378-.8810787c.89842156-5.8007662 3.06485159-11.3320769 6.345-16.2.49209396.1670093.99959895.2845897 1.515.351 1.6796074.1865069 3.3785102-.0804142 4.92-.773l-.59 1.911c-.1366886.4335271-.206161.8854348-.206 1.34-.0270675 1.8007416 1.0780736 3.425055 2.763 4.061 1.1668708.4903371 1.7378123 1.8150274 1.293 3l-.73 2.1c-.017.048-.02.1-.036.146-4.4121061 2.415021-9.15609054 4.1665113-14.079 5.198zm36.284-1.687-1.466.522c-1.2282827.4658402-2.1719438 1.4737411-2.556 2.73l-.278.914c-.1863487.656017-.6705129 1.1861157-1.307 1.431-.5508978.2051482-1.1664438.1368779-1.659-.184l-.11-.074c-1.2968806-.8389201-2.966664-.8334299-4.258.014l-.072.048c-.4942396.332663-1.118388.4070993-1.677.2-.6327734-.2449249-1.1140344-.772461-1.3-1.425l-.284-.932c-.3863313-1.2533571-1.3306956-2.2575287-2.558-2.72l-1.458-.519c-1.1668708-.4903371-1.7378123-1.8150274-1.293-3l.729-2.1c.8235019-2.2227154-.2941593-4.6943204-2.507-5.544-.8922203-.3492344-1.4689097-1.2212721-1.441-2.179.0001314-.2527437.038913-.503981.115-.745l1.193-3.865c1.8061521-1.2510102 3.5168609-2.6344849 5.118-4.139.547-.49 1.086-.969 1.62-1.43-.0294878.2352018-.0448487.4719598-.046.709v6c.0054296 2.9246159 2.1166966 5.4201335 5 5.91v3.09c0 .5522847.4477153 1 1 1s1-.4477153 1-1v-3.09c2.8833034-.4898665 4.9945704-2.9853841 5-5.91v-6c-.0011513-.2370402-.0165122-.4737982-.046-.709.534.461 1.073.94 1.62 1.43 1.6016313 1.5055753 3.3126516 2.8903687 5.119 4.143l1.193 3.865c.3985533 1.1691336-.1802489 2.4467014-1.322 2.918-1.6852498.6368396-2.7905727 2.2616323-2.764 4.063.0026991.5034614.0892156 1.0029593.256 1.478l.731 2.1c.4454898 1.1847133-.1251279 2.5096772-1.292 3zm-10.381-26.182h.011c.5752497-.1373381 1.1747503-.1373381 1.75 0h.011c.2436221.0619313.4828238.1401061.716.234 1.7360243.7576631 2.70262 2.6290961 2.3156253 4.4832991s-2.0214675 3.1827615-3.9156253 3.1827615-3.5286306-1.3285585-3.9156253-3.1827615.579601-3.725636 2.3156253-4.4832991c.2318735-.0937251.4697335-.1718982.712-.234zm.886 13.894c-2.209139 0-4-1.790861-4-4v-1.541c2.2708983 2.0546361 5.7291017 2.0546361 8 0v1.541c0 2.209139-1.790861 4-4 4zm27.984 12.84c.0521587.3262964-.06024.6572928-.3003069.8843561-.240067.2270633-.5768037.3208742-.8996931.2506439-4.9226082-1.0324371-9.6662219-2.7845887-14.078-5.2-.015-.047-.018-.1-.035-.144l-.729-2.095c-.0937874-.2657691-.1431155-.5451827-.146-.827-.0268584-.9570757.5483875-1.8285393 1.439-2.18 2.1462424-.8405388 3.2664959-3.2072717 2.556-5.4l-.589-1.906c1.2123429.5328973 2.5197961.8155439 3.844.831.3590591-.000518.7177429-.023228 1.074-.068.5154011-.0664103 1.022906-.1839907 1.515-.351 3.2822142 4.8690755 5.4500445 10.4021813 6.349 16.205zm-28.677-50.575c.3929266-.34630127.9810791-.34971579 1.378-.008 3.7416109 3.55946122 6.2101803 8.2496025 7.026 13.349-.19.3-.371.581-.543.839-1.816 2.725-3.491 3.555-7.168 3.555s-5.352-.83-7.168-3.555c-.172-.258-.353-.542-.543-.839.814449-5.0958106 3.2801523-9.78303605 7.018-13.341zm-20.307 6.735c6.7 0 9.628 4.587 11.564 7.621.212.333.413.647.6.934 2.192 3.282 4.503 4.445 8.836 4.445s6.644-1.163 8.832-4.445c.191-.287.392-.6.6-.934 1.94-3.034 4.868-7.621 11.568-7.621 6.152 0 7 4.325 7 9 0 .16-.221 16.02-8.124 17.008-3.952.489-7.523-2.693-10.967-5.778-.466-.417-.927-.829-1.387-1.23h6.478c6.682 0 11.051-3.221 11.986-8.836.0706036-.3575492-.058904-.7251962-.3380135-.9595552-.2791096-.234359-.6636175-.2983137-1.0035621-.1669211-.3399445.1313926-.5814873.4373234-.6304244.7984763-1.039 6.233-6.72 7.164-10.014 7.164h-8.952c-.9226697-.6927906-1.942256-1.2460492-3.026-1.642-1.3057408-.4773483-2.7382592-.4773483-4.044 0-1.083744.3959508-2.1033303.9492094-3.026 1.642h-8.952c-3.294 0-8.975-.931-10.014-7.164-.1047182-.5303114-.61190435-.881414-1.14513044-.7927233-.5332261.0886908-.89945231.5850668-.82686956 1.1207233.935 5.615 5.304 8.836 11.986 8.836h6.478c-.46.4-.921.813-1.387 1.23-1.5849727 1.4998081-3.2870352 2.8708211-5.09 4.1-.0110386.0064161-.021721.0134264-.032.021-1.6932573 1.2215041-3.7627063 1.8074644-5.845 1.655-7.903-.986-8.124-16.846-8.124-17.006 0-4.675.848-9 7-9z"/><path id="Shape" d="m30 49c-.5522847 0-1 .4477153-1 1v1c0 .5522847.4477153 1 1 1s1-.4477153 1-1v-1c0-.5522847-.4477153-1-1-1z"/></g></g></svg>