<svg width="63" height="134" viewBox="0 0 63 134" fill="none" xmlns="http://www.w3.org/2000/svg">
<g clip-path="url(#clip0)">
<path d="M62.9501 58.1563C62.8451 57.8743 62.5956 57.6903 62.3201 57.6903C35.8655 57.6903 33.0019 69.8185 33.0019 75.0334C33.0019 81.7987 37.6601 86.3441 44.5928 86.3441C53.3487 86.3441 55.1828 77.1296 56.1673 72.1786C57.1246 67.1385 59.4373 62.5373 62.8014 58.9767C62.9965 58.7611 63.0551 58.4383 62.9501 58.1563Z" fill="#1B8833"/>
<path d="M33.6827 90.8685C33.3064 90.8685 33.0009 90.5306 33.0009 90.1144C33.0009 85.6308 40.0304 71.245 51.1127 65.3062C51.4523 65.1252 51.86 65.2805 52.0236 65.656C52.1873 66.0316 52.0468 66.4825 51.7073 66.6635C40.516 72.6612 34.3646 86.59 34.3646 90.1144C34.3646 90.5307 34.0591 90.8685 33.6827 90.8685Z" fill="#388E3C"/>
<path d="M44.5928 86.3441C37.66 86.3441 33.0019 81.7987 33.0019 75.0334C33.0019 69.8185 35.8587 57.6903 62.3201 57.6903C62.5982 57.6903 62.8491 57.8789 62.9528 58.1639C63.0564 58.4504 62.9924 58.7777 62.7919 58.9903C59.4128 62.5555 57.1233 67.1145 56.1701 72.1711C55.1842 77.1297 53.3514 86.3441 44.5928 86.3441ZM60.6824 59.218C51.6237 59.4307 34.3655 61.6053 34.3655 75.0334C34.3655 80.8969 38.4755 84.8361 44.5928 84.8361C51.6632 84.8361 53.5874 78.1356 54.8364 71.8559C55.731 67.1099 57.741 62.7741 60.6824 59.218Z" fill="black"/>
<path d="M33.6827 91.2908C33.3064 91.2908 33.0009 90.953 33.0009 90.5368C33.0009 86.0532 40.0304 71.6674 51.1127 65.7286C51.4523 65.5476 51.8586 65.7029 52.0236 66.0769C52.1873 66.4525 52.0468 66.9034 51.7073 67.0844C40.516 73.0836 34.3646 87.0124 34.3646 90.5368C34.3646 90.9531 34.0591 91.2908 33.6827 91.2908Z" fill="black"/>
</g>
<path d="M29.3191 98.61C29.6954 98.61 30.0009 98.2722 30.0009 97.8559C30.0009 93.3724 22.9714 78.9866 11.8891 73.0477C11.5495 72.8668 11.1418 73.0221 10.9782 73.3976C10.8145 73.7731 10.955 74.2241 11.2945 74.405C22.4858 80.4028 28.6372 94.3316 28.6372 97.856C28.6372 98.2722 28.9427 98.61 29.3191 98.61Z" fill="#388E3C"/>
<path d="M0.0517357 65.8979C0.156693 65.6159 0.40624 65.4319 0.681737 65.4319C27.1363 65.4319 29.9999 77.56 29.9999 82.775C29.9999 89.5403 25.3417 94.0857 18.409 94.0857C9.65311 94.0857 7.81897 84.8712 6.83447 79.9202C5.87719 74.8801 3.56449 70.2789 0.200352 66.7183C0.00533019 66.5027 -0.0532857 66.1799 0.0517357 65.8979Z" fill="#1B8833"/>
<path d="M18.409 94.0857C25.3418 94.0857 29.9999 89.5403 29.9999 82.775C29.9999 77.56 27.1431 65.4319 0.681741 65.4319C0.403559 65.4319 0.15267 65.6204 0.0489907 65.9054C-0.0546245 66.192 0.00942377 66.5193 0.209878 66.7319C3.58897 70.2971 5.87854 74.8561 6.83172 79.9127C7.81763 84.8713 9.65036 94.0857 18.409 94.0857ZM2.31945 66.9596C11.3781 67.1722 28.6363 69.3469 28.6363 82.775C28.6363 88.6385 24.5263 92.5776 18.409 92.5776C11.3386 92.5776 9.41443 85.8772 8.16536 79.5974C7.27079 74.8515 5.26081 70.5157 2.31945 66.9596Z" fill="black"/>
<path d="M29.3191 99.0324C29.6954 99.0324 30.0009 98.6946 30.0009 98.2783C30.0009 93.7947 22.9714 79.409 11.8891 73.4701C11.5495 73.2892 11.1432 73.4445 10.9782 73.8185C10.8145 74.194 10.955 74.645 11.2945 74.8259C22.4858 80.8252 28.6372 94.754 28.6372 98.2784C28.6372 98.6946 28.9427 99.0324 29.3191 99.0324Z" fill="black"/>
<path d="M32.0009 47.7369L32.0009 134" stroke="black" stroke-width="5"/>
<line x1="32.0009" y1="134" x2="32.0009" y2="52.1606" stroke="#1B8833" stroke-width="2"/>
<g clip-path="url(#clip1)">
<path d="M28.0675 26.2747C28.6134 26.2968 29.1521 26.4063 29.6629 26.6C29.3154 26.736 28.9815 26.9051 28.6658 27.1041C28.4769 26.8417 28.2775 26.5688 28.0675 26.2747Z" fill="#00838F"/>
<path d="M4.49347 16.1152C3.19603 20.1041 6.19168 21.0815 5.54296 23.0791C4.89424 25.0767 1.05766 24.1647 1.05766 28.3636C1.05766 31.513 2.10714 34.6619 6.30605 35.7119C13.0748 37.4038 21.6327 34.4332 26.4327 32.8441C25.8989 30.8604 26.5851 28.7485 28.1828 27.4578C25.2362 23.3521 18.7413 15.2262 12.1061 13.0701C9.11092 12.0927 5.79188 12.122 4.49347 16.1152V16.1152Z" fill="#00BCD4"/>
<path d="M61.9427 28.3636C61.9427 31.513 60.8928 34.6619 56.6939 35.7119C54.6093 36.1891 52.4623 36.3347 50.3326 36.1424C45.1783 35.7537 39.9401 33.9589 36.5701 32.846C36.8238 31.8719 36.7983 30.846 36.497 29.8859C36.1828 28.9325 35.5994 28.0901 34.8171 27.4606C37.7671 23.3564 44.2543 15.221 50.8991 13.0686C51.2249 12.9639 51.5502 12.8692 51.8755 12.7962C54.5838 12.1451 57.3445 12.5545 58.5098 16.1133C59.801 20.1128 56.8092 21.0782 57.4603 23.0835C58.111 25.0882 61.9427 24.1647 61.9427 28.3636V28.3636Z" fill="#00838F"/>
<path d="M54.4892 52.434C52.1903 54.1139 50.5949 53.4839 49.2826 53.2845H49.272C48.6939 53.1389 48.0813 53.2418 47.582 53.568C47.5661 53.5704 47.5517 53.5776 47.5402 53.5887C45.8396 54.8275 47.4979 58.3441 44.0971 60.8111C42.7416 61.9913 40.8228 62.2744 39.1842 61.5353C37.9617 60.8919 36.9194 59.9539 36.1506 58.8063C32.0458 53.1586 31.7729 41.8002 31.8046 36.7407C32.806 36.6874 33.7714 36.3486 34.5864 35.7643C35.066 35.4077 35.4845 34.9747 35.8248 34.4836C36.0472 34.1473 36.2337 33.7883 36.3812 33.413C41.1995 34.9454 50.9308 38.609 55.0351 44.2567C56.8827 46.8074 57.8904 49.9674 54.4892 52.434V52.434Z" fill="#00838F"/>
<path d="M18.9032 60.8131C15.5063 58.3455 17.1565 54.8299 15.4578 53.593C13.7596 52.3566 11.9076 54.9073 8.51073 52.4383C5.11384 49.9693 6.11527 46.8055 7.96677 44.2577C12.0672 38.6133 21.8037 34.9464 26.6187 33.414C27.3525 35.3323 29.1487 36.6374 31.1996 36.7426C31.2294 41.8002 30.9521 53.1586 26.8517 58.8063C25.0002 61.3508 22.3001 63.2811 18.9032 60.8131V60.8131Z" fill="#00BCD4"/>
<path d="M37.7983 1.07019C37.177 1.06106 36.5576 1.14612 35.9612 1.32247C33.5365 2.06778 33.2323 4.21961 31.5 4.21961C30.7657 4.16531 30.0929 3.78857 29.6629 3.19079C28.6105 1.79916 26.9455 1.00772 25.2016 1.07019C24.5798 1.06058 23.9604 1.14564 23.3645 1.32247C20.6875 2.10959 19.9527 4.74436 19.9527 7.36855C19.9527 13.9086 24.9705 21.9393 28.0675 26.2747C28.6134 26.2968 29.1521 26.4063 29.6629 26.6C30.1737 26.4063 30.7128 26.2968 31.2587 26.2747C31.339 26.266 31.4192 26.2622 31.5 26.2641C32.5057 26.2655 33.4903 26.5572 34.3341 27.1041C37.3259 23.0311 43.0472 14.3497 43.0472 7.36855C43.0472 4.21961 41.9972 1.07019 37.7983 1.07019V1.07019Z" fill="#00838F"/>
<path d="M31.2587 26.2747C31.0487 26.5688 30.8493 26.8417 30.6605 27.1041C30.3443 26.9051 30.0103 26.736 29.6629 26.6C30.1737 26.4063 30.7128 26.2968 31.2587 26.2747Z" fill="#00BCD4"/>
<path d="M58.2686 28.3636C58.2686 31.513 57.2186 34.6619 53.0197 35.7119C52.1379 35.931 51.2388 36.0747 50.3326 36.1424C45.1784 35.7537 39.9401 33.9589 36.5701 32.846C36.8238 31.8719 36.7983 30.846 36.497 29.8859C36.1828 28.9325 35.5994 28.0901 34.8171 27.4606C37.7671 23.3564 44.2543 15.221 50.8991 13.0686C51.2249 12.9639 51.5502 12.8692 51.8755 12.7962C53.3556 13.3363 54.4671 14.5814 54.8356 16.1133C56.1268 20.1128 53.135 21.0782 53.7862 23.0834C54.4368 25.0882 58.2686 24.1647 58.2686 28.3636V28.3636Z" fill="#00BCD4"/>
<path d="M50.8155 52.434C50.3436 52.7833 49.8285 53.0692 49.2826 53.2845H49.272C48.7309 53.4825 48.1581 53.5786 47.582 53.568C46.0496 53.5363 44.9261 52.8227 43.866 53.5887C42.1654 54.8275 43.8242 58.3441 40.423 60.8111C40.0357 61.0946 39.621 61.3373 39.1842 61.5353C37.9617 60.8919 36.9194 59.9539 36.1506 58.8063C32.0458 53.1586 31.7729 41.8002 31.8046 36.7407C32.806 36.6874 33.7714 36.3486 34.5864 35.7643C35.066 35.4077 35.4845 34.9747 35.8248 34.4836C40.9372 36.3731 48.0125 39.659 51.3614 44.2567C53.2086 46.8074 54.2162 49.9674 50.8155 52.434Z" fill="#00BCD4"/>
<path d="M37.7983 31.513C37.7983 34.9916 34.9785 37.8113 31.5 37.8113C28.0214 37.8113 25.2016 34.9916 25.2016 31.513C25.2016 28.0344 28.0214 25.2146 31.5 25.2146C34.9785 25.2146 37.7983 28.0344 37.7983 31.513V31.513Z" fill="#AB9045"/>
<path d="M35.6989 31.513C35.6989 33.832 33.819 35.7119 31.5 35.7119C31.2357 35.7143 30.9718 35.6898 30.7128 35.6384C28.7306 35.2626 27.2958 33.5303 27.2958 31.513C27.2958 29.4952 28.7306 27.7634 30.7128 27.3876C30.9718 27.3362 31.2357 27.3112 31.5 27.3141C33.819 27.3141 35.6989 29.1939 35.6989 31.513V31.513Z" fill="#FFB301"/>
<path d="M34.1241 31.513C34.1241 29.2343 32.597 27.3876 30.7128 27.3876C28.8287 27.3876 27.301 29.2343 27.301 31.513C27.301 33.7912 28.8287 35.6384 30.7128 35.6384C32.597 35.6384 34.1241 33.7912 34.1241 31.513V31.513Z" fill="#FDD834"/>
<path d="M39.373 7.36855C39.373 13.9086 34.3553 21.9393 31.2587 26.2747C30.7128 26.2968 30.1737 26.4063 29.6629 26.6C29.1521 26.4063 28.6134 26.2968 28.0675 26.2747C24.9705 21.9393 19.9527 13.9086 19.9527 7.36855C19.9527 4.74436 20.6875 2.10959 23.3645 1.32247C23.9604 1.14564 24.5798 1.06058 25.2016 1.07019C26.9455 1.00772 28.6105 1.79916 29.6629 3.19079C30.093 3.78857 30.7657 4.16531 31.5 4.21961C33.2323 4.21961 33.5365 2.06778 35.9612 1.32247C38.6383 2.10959 39.373 4.74436 39.373 7.36855Z" fill="#00BCD4"/>
<path d="M59.6847 23.6055C58.9908 23.2903 58.5602 23.0808 58.4564 22.754C58.3378 22.3907 58.4709 22.0938 58.8836 21.3412C59.9581 19.6935 60.1888 17.6344 59.505 15.7901C58.2455 11.929 55.074 10.6085 50.5709 12.0708C47.099 13.1996 43.7084 15.829 40.7795 18.7401C42.644 15.0554 44.0971 11.017 44.0971 7.36781C44.0971 2.62927 41.8598 0.0199665 37.7983 0.0199665C35.8324 -0.0598022 33.9454 0.79699 32.7114 2.32941C32.1237 2.95891 31.882 3.1689 31.4999 3.1689C31.1179 3.1689 30.8767 2.95074 30.2885 2.32941C29.0545 0.79699 27.1674 -0.0598022 25.2016 0.0199665C21.1401 0.0199665 18.9032 2.62927 18.9032 7.36781C18.9032 11.017 20.3559 15.0554 22.2204 18.7387C19.2915 15.8281 15.9009 13.1981 12.4295 12.0698C7.93024 10.6066 4.75151 11.9271 3.49491 15.7892C2.81111 17.6335 3.04177 19.6925 4.11624 21.3403C4.52902 22.0928 4.66213 22.3898 4.54392 22.7521C4.43868 23.0741 4.00957 23.2865 3.31567 23.6046C1.24938 24.2403 -0.115817 26.2047 0.0076798 28.3628C0.0076798 34.0317 3.29453 36.0398 6.05231 36.7294C7.59531 37.1004 9.17819 37.281 10.7654 37.2666C12.404 37.2527 14.0388 37.1066 15.6543 36.8313C12.3492 38.4564 9.43671 40.7798 7.11766 43.6409C6.0379 44.985 5.37813 46.6178 5.22195 48.3352C5.17582 50.3419 6.19167 52.2242 7.89468 53.2871C9.43527 54.5106 11.466 54.9282 13.3646 54.4111C14.2046 54.2525 14.5289 54.217 14.8408 54.4419C15.1522 54.6663 15.267 55.2698 15.4021 56.2126C15.4972 58.3697 16.5558 60.3697 18.2857 61.6619C19.3501 62.497 20.6538 62.9699 22.006 63.0107C24.0219 63.0107 25.969 61.8012 27.7008 59.4183C29.6955 56.6763 30.8503 52.6706 31.4999 48.415C32.1496 52.6706 33.3067 56.6763 35.299 59.4183C37.0309 61.8012 38.9785 63.0107 40.9938 63.0107C42.3461 62.9699 43.6498 62.497 44.7141 61.6619C46.4441 60.3697 47.5027 58.3697 47.5978 56.2126C47.7333 55.2679 47.8318 54.6797 48.1596 54.4419C48.4868 54.2035 48.7944 54.2535 49.6353 54.4111C51.5339 54.9267 53.5641 54.5096 55.1057 53.2881C56.8082 52.2247 57.8241 50.3424 57.7784 48.3352C57.6218 46.6178 56.9625 44.985 55.8822 43.6409C53.5646 40.7808 50.654 38.4574 47.3513 36.8313C48.9664 37.1066 50.6012 37.2527 52.2398 37.2666C53.827 37.281 55.4099 37.1004 56.9533 36.7294C59.7054 36.0398 62.9922 34.0317 62.9922 28.3628C63.1157 26.2047 61.7505 24.2413 59.6847 23.6055V23.6055ZM33.2669 35.308C33.1837 35.3459 33.102 35.3844 33.0179 35.4127C32.8728 35.4675 32.7253 35.5132 32.5749 35.5506C32.4024 35.5968 32.227 35.6318 32.0502 35.6554C31.6883 35.7294 31.3159 35.7294 30.9541 35.6554C30.7772 35.6314 30.6018 35.5963 30.4293 35.5506C30.2803 35.5132 30.1343 35.4675 29.9906 35.4142C29.9046 35.3805 29.8205 35.3416 29.7364 35.3089C29.5792 35.2354 29.4269 35.1523 29.2799 35.06C29.2241 35.0254 29.1674 34.9942 29.1141 34.9553C28.9171 34.8188 28.7321 34.666 28.5605 34.4987C28.524 34.4617 28.4937 34.4209 28.4558 34.3829C28.3332 34.2522 28.2193 34.1138 28.1146 33.9687C28.0516 33.8813 27.993 33.7909 27.9363 33.6987C27.8796 33.6064 27.8219 33.4949 27.7691 33.3911C27.7167 33.2873 27.6494 33.159 27.6014 33.0365C27.5375 32.8683 27.4841 32.6958 27.4418 32.5209C27.4092 32.3916 27.388 32.2628 27.3683 32.1326C27.3481 32.0024 27.3356 31.8702 27.3284 31.7366C27.3222 31.6319 27.3126 31.5266 27.3135 31.4281C27.3179 31.1941 27.3414 30.9606 27.3842 30.7299C27.3976 30.6607 27.4188 30.5934 27.4356 30.5199C27.4774 30.344 27.5312 30.1715 27.5961 30.0024C27.6244 29.9289 27.6528 29.8558 27.6855 29.7842C27.7643 29.6112 27.8551 29.444 27.957 29.2835C28.0031 29.21 28.0507 29.1374 28.1021 29.0663C28.2107 28.9159 28.3289 28.7727 28.4558 28.6377C28.5399 28.5497 28.6321 28.4666 28.7244 28.3849C28.8844 28.2388 29.055 28.1052 29.2347 27.9851H29.2419C29.5336 27.8001 29.8469 27.6531 30.1751 27.5473C30.2582 27.519 30.3409 27.4916 30.4274 27.4685C30.5696 27.4301 30.7138 27.3989 30.8599 27.3763C30.9416 27.3633 31.0257 27.3595 31.1083 27.3508C31.3716 27.3268 31.6369 27.3268 31.8997 27.3508C31.9829 27.3595 32.067 27.3633 32.1487 27.3763C32.2943 27.3989 32.4389 27.4301 32.5811 27.4685C32.6672 27.4916 32.7503 27.519 32.8334 27.5473C33.1616 27.6531 33.4749 27.8001 33.7666 27.9851H33.7791C33.9574 28.1038 34.1261 28.2364 34.2842 28.3815C34.3764 28.4637 34.4687 28.5464 34.5528 28.6348C34.6787 28.7689 34.7959 28.9111 34.9045 29.0601C34.9569 29.1321 35.0093 29.2081 35.0535 29.2835C35.1544 29.4421 35.2443 29.6079 35.3221 29.7789C35.3557 29.8525 35.3841 29.9269 35.4134 30.0024C35.4773 30.1696 35.5307 30.3407 35.5729 30.5146C35.5898 30.5853 35.6109 30.6535 35.6244 30.7246C35.6671 30.9548 35.6907 31.1879 35.695 31.4219C35.695 31.5266 35.6864 31.6266 35.6811 31.7294C35.6739 31.864 35.6599 31.9961 35.6402 32.1273C35.62 32.2585 35.5994 32.3854 35.5667 32.5146C35.5244 32.6895 35.4711 32.8616 35.4072 33.0302C35.3591 33.1528 35.3024 33.2671 35.239 33.3839C35.176 33.5002 35.1342 33.5939 35.0713 33.6987C35.0083 33.8039 34.9569 33.8803 34.8949 33.9673C34.7882 34.1143 34.6724 34.2546 34.5484 34.3873C34.5148 34.4219 34.4855 34.4617 34.4509 34.4925C34.2779 34.6621 34.091 34.8164 33.8916 34.9543C33.843 34.9879 33.7863 35.0163 33.7412 35.0475C33.5888 35.1446 33.4302 35.2316 33.2669 35.308V35.308ZM25.2016 2.11942C26.5874 2.04446 27.9204 2.66098 28.7614 3.76525C29.4019 4.65231 30.4077 5.20397 31.4999 5.26836C32.5922 5.20397 33.598 4.65231 34.239 3.76525C35.0794 2.66098 36.4124 2.04446 37.7983 2.11942C39.6008 2.11942 41.9972 2.66434 41.9972 7.36781C41.9972 13.7368 36.7887 21.8722 34.0194 25.7439C33.5494 25.5387 33.0554 25.3926 32.5499 25.3081V16.8156C32.5499 16.2361 32.0799 15.7661 31.4999 15.7661C30.9204 15.7661 30.4505 16.2361 30.4505 16.8156V25.3081C29.9445 25.3926 29.4509 25.5387 28.9805 25.7439C26.2112 21.8722 21.0027 13.7368 21.0027 7.36781C21.0027 2.66434 23.3991 2.11942 25.2016 2.11942V2.11942ZM6.56024 34.6929C3.5223 33.9336 2.10713 31.9226 2.10713 28.3628C2.10713 26.4734 2.9817 26.0683 4.19121 25.5128C5.24646 25.1879 6.10565 24.4162 6.5415 23.4018C6.81732 22.3432 6.60301 21.2168 5.95765 20.3336C5.16669 19.1928 4.99274 17.7339 5.49249 16.4388C6.04895 14.7224 7.30747 12.6138 11.7817 14.0664C17.8398 16.0347 23.969 23.5065 26.7931 27.334L26.7657 27.3667C26.6542 27.4935 26.5495 27.6247 26.451 27.7612C26.4193 27.8025 26.3875 27.8424 26.3582 27.8842C26.2713 28.0072 26.1905 28.1341 26.1127 28.2633C26.079 28.3186 26.0425 28.3734 26.0079 28.431C25.9733 28.4887 25.9469 28.5363 25.9185 28.5949L17.8427 25.9707C17.4808 25.8333 17.0729 25.9063 16.7812 26.161C16.489 26.4152 16.3612 26.8097 16.4477 27.1869C16.5342 27.5642 16.8216 27.8635 17.1954 27.9649L25.2717 30.5896C25.2261 30.8947 25.2025 31.2032 25.2016 31.5122C25.2016 31.7222 25.2131 31.9322 25.2328 32.1355C20.3991 33.7385 12.6467 36.2138 6.56024 34.6929V34.6929ZM26.0036 58.1852C23.2367 61.9891 20.9787 61.0194 19.5202 59.9632C18.2579 58.9968 17.5063 57.5062 17.4808 55.9166C17.4823 54.7076 16.9715 53.5548 16.0753 52.7441C15.1536 52.1531 14.0152 52.008 12.9754 52.3496C11.6462 52.7509 10.2041 52.4654 9.12773 51.5885C8.00472 50.9287 7.3166 49.7221 7.32044 48.4193C7.46556 47.1176 7.98502 45.8864 8.81634 44.8744C12.5597 39.7221 21.5601 36.2013 26.0738 34.6919C26.2813 35.0437 26.5226 35.3743 26.7941 35.6794L26.8897 35.7847C26.9272 35.8245 26.9632 35.8673 27.0017 35.9072L22.0113 42.7769C21.8465 43.0023 21.7787 43.2843 21.822 43.5597C21.8657 43.8355 22.0171 44.083 22.2434 44.2464C22.4688 44.4112 22.7504 44.4794 23.0262 44.4357C23.302 44.3925 23.5495 44.2406 23.7129 44.0148L28.7056 37.1431L28.7936 37.1859C28.8484 37.2123 28.8988 37.2407 28.9574 37.2647C29.3419 37.4353 29.7426 37.567 30.153 37.6573C30.1227 47.3977 28.6931 54.4827 26.0036 58.1852V58.1852ZM54.184 44.8744C55.0149 45.8864 55.5343 47.1176 55.6799 48.4193C55.6833 49.7221 54.9952 50.9287 53.8722 51.5894C52.7953 52.4649 51.3542 52.7499 50.025 52.3496C48.9846 52.0089 47.8467 52.154 46.9251 52.7441C46.0284 53.5548 45.5176 54.7076 45.5195 55.9166C45.4926 57.5053 44.7415 58.9944 43.4796 59.9603C42.0217 61.0194 39.7627 61.9872 36.9963 58.1819C34.3072 54.4793 32.8772 47.3948 32.8488 37.6583C33.2587 37.5679 33.6585 37.4367 34.0424 37.2666C34.1011 37.2407 34.1578 37.2114 34.2159 37.184L34.2966 37.1441L39.2889 44.0157C39.5056 44.329 39.8752 44.5006 40.2548 44.4636C40.6339 44.4266 40.9631 44.1873 41.1154 43.8374C41.2673 43.4881 41.2183 43.084 40.9866 42.7812L35.9963 35.9115C36.0347 35.8726 36.0693 35.8298 36.1073 35.7899L36.2048 35.6847C36.4759 35.3796 36.7166 35.0485 36.9242 34.6972C41.4403 36.2013 50.4407 39.7221 54.184 44.8744V44.8744ZM56.4396 34.6919C50.3513 36.2118 42.6012 33.7366 37.7671 32.1345C37.7868 31.9245 37.7983 31.7208 37.7983 31.5113C37.7959 31.2032 37.7714 30.8967 37.7238 30.5925L45.8006 27.9683C46.174 27.8664 46.4614 27.5675 46.5483 27.1903C46.6348 26.8131 46.5065 26.4186 46.2148 26.1639C45.9232 25.9097 45.5152 25.8366 45.1529 25.9736L37.0775 28.5978C37.0491 28.5425 37.0184 28.4877 36.9881 28.4334C36.9578 28.3787 36.9208 28.3229 36.8829 28.2672C36.8046 28.1384 36.7233 28.0101 36.6364 27.8876C36.6071 27.8453 36.5753 27.8054 36.5441 27.7645C36.4389 27.6281 36.3341 27.4969 36.2289 27.37L36.202 27.3374C39.0289 23.5099 45.1582 16.0381 51.2134 14.0698C55.6862 12.6167 56.9447 14.7257 57.5021 16.4422C58.0023 17.7372 57.8279 19.1957 57.0369 20.3365C56.3916 21.2202 56.1773 22.347 56.4536 23.4061C56.8894 24.42 57.7486 25.1913 58.8039 25.5161C60.0182 26.0683 60.8928 26.4734 60.8928 28.3628C60.8928 31.9226 59.4776 33.9336 56.4396 34.6929V34.6919Z" fill="black"/>
</g>
<defs>
<clipPath id="clip0">
<rect width="30" height="33.1781" fill="white" transform="translate(33.0009 57.6903)"/>
</clipPath>
<clipPath id="clip1">
<rect width="63" height="63" fill="white"/>
</clipPath>
</defs>
</svg>
