<svg width="63" height="134" viewBox="0 0 63 134" fill="none" xmlns="http://www.w3.org/2000/svg">
<g clip-path="url(#clip0)">
<path d="M0.0508361 75.4214C0.155794 75.1664 0.405342 75 0.680839 75C27.1354 75 29.999 85.9664 29.999 90.6818C29.999 96.7991 25.3408 100.909 18.4081 100.909C9.65221 100.909 7.81807 92.5772 6.83357 88.1004C5.8763 83.5432 3.56359 79.3827 0.199453 76.1632C0.0044322 75.9682 -0.0541844 75.6763 0.0508361 75.4214Z" fill="#1B8833"/>
<path d="M29.3182 105C29.6945 105 30 104.695 30 104.318C30 100.264 22.9705 87.2563 11.8882 81.8863C11.5486 81.7227 11.1409 81.8631 10.9773 82.2027C10.8136 82.5422 10.9541 82.95 11.2936 83.1136C22.4849 88.5368 28.6363 101.131 28.6363 104.318C28.6363 104.695 28.9418 105 29.3182 105Z" fill="#388E3C"/>
<path d="M18.4081 100.909C25.3409 100.909 29.999 96.7991 29.999 90.6818C29.999 85.9664 27.1422 75 0.680843 75C0.40266 75 0.151771 75.1705 0.0480914 75.4282C-0.0555234 75.6873 0.00852537 75.9832 0.20898 76.1755C3.58807 79.3991 5.87764 83.5214 6.83082 88.0937C7.81673 92.5773 9.64946 100.909 18.4081 100.909ZM2.31855 76.3814C11.3772 76.5737 28.6354 78.54 28.6354 90.6818C28.6354 95.9836 24.5254 99.5455 18.4081 99.5455C11.3377 99.5455 9.41353 93.4868 8.16446 87.8086C7.2699 83.5173 5.25991 79.5968 2.31855 76.3814Z" fill="black"/>
<path d="M29.3182 105.382C29.6945 105.382 30 105.076 30 104.7C30 100.646 22.9705 87.6382 11.8882 82.2683C11.5486 82.1046 11.1423 82.2451 10.9773 82.5833C10.8136 82.9228 10.9541 83.3306 11.2936 83.4942C22.4849 88.9188 28.6363 101.513 28.6363 104.7C28.6363 105.077 28.9418 105.382 29.3182 105.382Z" fill="black"/>
</g>
<path d="M33.6818 93C33.3055 93 33 92.6945 33 92.3182C33 88.2641 40.0295 75.2563 51.1118 69.8863C51.4514 69.7227 51.8591 69.8631 52.0227 70.2027C52.1864 70.5422 52.0459 70.95 51.7064 71.1136C40.5151 76.5368 34.3637 89.1314 34.3637 92.3182C34.3637 92.6946 34.0582 93 33.6818 93Z" fill="#388E3C"/>
<path d="M62.9492 63.4214C62.8442 63.1664 62.5947 63 62.3192 63C35.8646 63 33.001 73.9664 33.001 78.6818C33.001 84.7991 37.6592 88.9091 44.5919 88.9091C53.3478 88.9091 55.1819 80.5772 56.1664 76.1004C57.1237 71.5432 59.4364 67.3827 62.8005 64.1632C62.9956 63.9682 63.0542 63.6763 62.9492 63.4214Z" fill="#1B8833"/>
<path d="M33.6818 93.3819C33.3055 93.3819 33 93.0764 33 92.7001C33 88.646 40.0295 75.6382 51.1118 70.2683C51.4514 70.1046 51.8577 70.2451 52.0227 70.5833C52.1864 70.9228 52.0459 71.3306 51.7064 71.4942C40.5151 76.9188 34.3637 89.5133 34.3637 92.7001C34.3637 93.0765 34.0582 93.3819 33.6818 93.3819Z" fill="black"/>
<path d="M44.5919 88.9091C37.6591 88.9091 33.001 84.7991 33.001 78.6818C33.001 73.9664 35.8578 63 62.3192 63C62.5973 63 62.8482 63.1705 62.9519 63.4282C63.0555 63.6873 62.9915 63.9832 62.791 64.1755C59.4119 67.3991 57.1224 71.5214 56.1692 76.0937C55.1833 80.5773 53.3505 88.9091 44.5919 88.9091ZM60.6814 64.3814C51.6228 64.5737 34.3646 66.54 34.3646 78.6818C34.3646 83.9836 38.4746 87.5455 44.5919 87.5455C51.6623 87.5455 53.5865 81.4868 54.8355 75.8086C55.7301 71.5173 57.7401 67.5968 60.6814 64.3814Z" fill="black"/>
<path d="M31 56L31 134" stroke="black" stroke-width="5"/>
<line x1="31" y1="134" x2="31" y2="55" stroke="#1B8833" stroke-width="2"/>
<path d="M39.2896 4.14753C38.9765 4.14847 38.6654 4.11564 38.3624 4.05093L33.1839 24.9214H43.95V13.3149C46.7113 9.49833 43.9875 4.14753 39.2896 4.14753Z" fill="#DB2116"/>
<path d="M38.3625 4.05093C37.6504 3.89878 36.9843 3.56696 36.4499 3.05923C35.0015 1.68288 33.0619 0.879917 31.0008 0.879799C28.9396 0.879799 27.0001 1.68288 25.5518 3.05923C24.7899 3.78324 23.7608 4.15083 22.7119 4.14765C18.0139 4.14765 15.2898 9.49833 18.0509 13.3152V23.1565L30.9999 31.2152L40.7118 13.0188C42.5456 9.63847 41.1527 5.05451 38.3625 4.05093V4.05093Z" fill="#FF3A2F"/>
<path d="M38.2165 18.8847C38.2165 14.8824 34.9854 11.638 30.9998 11.638C27.014 11.638 23.783 14.8825 23.783 18.8847C23.783 20.4822 24.2976 21.9589 25.1695 23.1568V27.1859L30.9996 31.2151L36.8302 23.157C37.702 21.9593 38.2165 20.4821 38.2165 18.8847V18.8847Z" fill="#A41910"/>
<path d="M7.92537 14.9337C7.82952 15.2331 7.70226 15.5201 7.54735 15.7894L24.0422 26.6389L25.1688 23.1569L18.048 13.3158C15.2865 9.49927 9.3771 10.4472 7.92537 14.9337V14.9337Z" fill="#DB2116"/>
<path d="M7.54735 15.7894C7.18327 16.4224 6.66312 16.9561 6.01699 17.3095C4.26587 18.2673 2.90601 19.8716 2.26902 21.8401C1.63216 23.8085 1.7934 25.909 2.64927 27.7176C3.09947 28.6689 3.1297 29.7652 2.80254 30.766C1.35069 35.2526 5.57663 39.5077 10.0449 38.0503L19.3658 41.0914L30.9996 31.2152L16.7669 16.3171C14.132 13.521 9.36011 13.4348 7.54735 15.7894V15.7894Z" fill="#FF3A2F"/>
<path d="M21.5515 20.5127C17.7609 19.2759 13.6895 21.3591 12.4578 25.1655C11.2262 28.9719 13.3007 33.0602 17.0912 34.297C18.6042 34.7906 20.1618 34.7556 21.5658 34.2929L25.3819 35.5379L30.9995 31.2151L25.1694 23.1568C24.3045 21.954 23.0644 21.0064 21.5515 20.5127Z" fill="#A41910"/>
<path d="M8.44904 48.2203C8.70285 48.4044 8.93545 48.6145 9.14262 48.8457L24.5154 36.4455L21.5657 34.2935L10.0445 38.053C5.57675 39.5109 4.64834 45.4475 8.44904 48.2203V48.2203Z" fill="#DB2116"/>
<path d="M9.14262 48.8457C9.62962 49.3891 9.97436 50.0507 10.1095 50.777C10.4755 52.7454 11.5747 54.5399 13.2421 55.7565C14.9096 56.973 16.9488 57.4682 18.9262 57.2095C19.9663 57.0735 21.0141 57.3834 21.8607 58.0052C25.6614 60.7781 30.9974 58.0572 30.9978 53.3396L36.7584 45.3777L30.9996 31.2152L12.4914 40.204C9.02896 41.8563 7.4727 46.3869 9.14262 48.8457Z" fill="#FF3A2F"/>
<path d="M17.9437 36.9311C15.6009 40.1691 16.3157 44.701 19.5403 47.0534C22.7648 49.406 27.2779 48.6882 29.6206 45.4502C30.5557 44.1578 31.0038 42.6595 30.9994 41.1756L33.3579 37.916L30.9996 31.2152L21.5659 34.2929C20.1594 34.7473 18.8787 35.6388 17.9437 36.9311Z" fill="#A41910"/>
<path d="M40.1369 58.0064C40.3897 57.8208 40.6606 57.6637 40.9436 57.5372L33.9496 39.0241L30.9999 41.1761L31.0002 53.3407C31.0005 58.0581 36.3362 60.7792 40.1369 58.0064V58.0064Z" fill="#DB2116"/>
<path d="M40.9436 57.5372C41.6087 57.24 42.3417 57.1153 43.0714 57.2107C45.0488 57.4693 47.088 56.9742 48.7555 55.7576C50.423 54.5411 51.5221 52.7465 51.8882 50.7782C52.0808 49.7428 52.6981 48.838 53.5486 48.2215C57.3494 45.4486 56.4213 39.5119 51.9532 38.0537L46.1926 30.0918L30.9995 31.2151L33.7937 51.6686C34.2887 55.4859 38.0987 58.3722 40.9436 57.5372V57.5372Z" fill="#FF3A2F"/>
<path d="M32.3787 45.4502C34.7215 48.6882 39.2346 49.406 42.459 47.0534C45.6836 44.7009 46.3984 40.169 44.0556 36.9311C43.1205 35.6387 41.8399 34.7478 40.4331 34.2934L38.0747 31.0338L30.9995 31.2152L30.9993 41.1757C30.9952 42.6594 31.4438 44.158 32.3787 45.4502Z" fill="#A41910"/>
<path d="M59.1975 30.7678C59.0997 30.4691 59.0347 30.1619 59.0024 29.8525L39.307 30.8109L40.4337 34.2929L51.9551 38.0516C56.4231 39.5092 60.6492 35.2545 59.1975 30.7678V30.7678Z" fill="#DB2116"/>
<path d="M59.0024 29.8525C58.9264 29.1254 59.0348 28.3868 59.3506 27.7194C60.2066 25.911 60.3677 23.8104 59.7309 21.842C59.094 19.8735 57.7339 18.2694 55.9829 17.3114C55.0617 16.8076 54.3956 15.9384 54.0745 14.9356C52.6228 10.449 46.7132 9.5008 43.9515 13.3172L30.9996 31.2152L51.2348 34.8672C55.0032 35.5742 58.9141 32.8274 59.0024 29.8525Z" fill="#FF3A2F"/>
<path d="M44.908 34.297C48.6986 33.0602 50.773 28.9719 49.5413 25.1655C48.3097 21.3591 44.2383 19.276 40.4477 20.5127C38.9346 21.0063 37.6951 21.9541 36.83 23.1571L30.9995 31.2152L40.4331 34.2934C41.8372 34.7559 43.3952 34.7906 44.908 34.297V34.297Z" fill="#A41910"/>
<path d="M38.9133 28.6331C39.507 27.6999 39.508 26.4592 38.8206 25.5092C38.1333 24.5591 36.9578 24.1768 35.8906 24.4554C35.8246 23.35 35.0992 22.3456 33.987 21.9827C32.8749 21.6198 31.7 22.0042 30.9996 22.8595C30.2993 22.0042 29.1244 21.6198 28.0123 21.9827C26.9001 22.3456 26.1747 23.35 26.1087 24.4554C25.0415 24.1768 23.866 24.5591 23.1787 25.5092C22.4913 26.4592 22.4923 27.6999 23.086 28.6331C22.0595 29.0378 21.3324 30.0409 21.3324 31.2151C21.3324 32.3894 22.0595 33.3925 23.086 33.7971C22.4923 34.7303 22.4913 35.971 23.1787 36.921C23.866 37.8711 25.0415 38.2534 26.1087 37.9748C26.1747 39.0802 26.9 40.0846 28.0123 40.4475C29.1244 40.8104 30.2993 40.426 30.9996 39.5706C31.7 40.426 32.8749 40.8104 33.987 40.4475C35.0992 40.0846 35.8246 39.0802 35.8906 37.9748C36.9578 38.2534 38.1333 37.8711 38.8206 36.921C39.508 35.971 39.507 34.7303 38.9133 33.7971C39.9398 33.3924 40.6669 32.3893 40.6669 31.2151C40.6669 30.0409 39.9398 29.0378 38.9133 28.6331V28.6331Z" fill="#FFD185"/>
<path d="M30.9996 36.5102C33.9119 36.5102 36.2727 34.1396 36.2727 31.2152C36.2727 28.2908 33.9119 25.9202 30.9996 25.9202C28.0874 25.9202 25.7266 28.2908 25.7266 31.2152C25.7266 34.1396 28.0874 36.5102 30.9996 36.5102Z" fill="#FFBA48"/>
<path d="M30.9996 32.9802C31.9704 32.9802 32.7573 32.19 32.7573 31.2152C32.7573 30.2404 31.9704 29.4502 30.9996 29.4502C30.0289 29.4502 29.242 30.2404 29.242 31.2152C29.242 32.19 30.0289 32.9802 30.9996 32.9802Z" fill="#FF7A3C"/>
<path d="M60.1444 28.1009C61.1153 26.0496 61.2653 23.7309 60.5667 21.5719C59.8682 19.4131 58.3895 17.6257 56.4033 16.5392C55.7051 16.1571 55.1753 15.4928 54.9105 14.6656C54.1353 12.2701 52.1143 10.5371 49.6361 10.1429C48.3354 9.93605 47.0412 10.1201 45.8922 10.6364C46.0263 9.37913 45.8009 8.08573 45.2027 6.90694C44.0635 4.66209 41.7978 3.26762 39.2869 3.26762H39.2754C38.4174 3.26762 37.6288 2.96709 37.0539 2.42077C35.411 0.859794 33.2613 0 31.0007 0C28.7401 0 26.5904 0.859794 24.9476 2.42088C24.3726 2.96733 23.584 3.26773 22.7232 3.26773H22.7118C20.2036 3.26773 17.9377 4.66232 16.7985 6.90718C16.2005 8.0855 15.975 9.37842 16.1088 10.6353C14.9595 10.1188 13.6649 9.93452 12.3638 10.1413C9.88565 10.5354 7.86467 12.2683 7.08859 14.6665C6.82471 15.4909 6.29494 16.1553 5.59667 16.5373C3.61037 17.6238 2.13181 19.4112 1.4333 21.57C0.734684 23.729 0.884673 26.0476 1.85562 28.099C2.19684 28.8201 2.23668 29.6704 1.9667 30.4959C1.19156 32.8913 1.81214 35.4862 3.58623 37.2678C4.51757 38.2031 5.67284 38.8173 6.90474 39.0778C6.05988 40.0159 5.485 41.1956 5.27888 42.5027C4.88633 44.9911 5.90309 47.4566 7.93451 48.9386C8.63395 49.4455 9.09938 50.1568 9.2455 50.9416C9.66067 53.1742 10.8966 55.1386 12.7255 56.4729C14.5544 57.8072 16.797 58.3807 19.0397 58.0871C19.8282 57.9844 20.646 58.2089 21.3442 58.7217C22.5044 59.5682 23.8674 59.9991 25.2398 59.9991C26.2677 59.9991 27.301 59.7574 28.2584 59.2676C29.4319 58.6673 30.3712 57.7544 30.9986 56.6586C31.626 57.7549 32.5655 58.6681 33.7394 59.2687C34.6965 59.7584 35.7292 60 36.7571 60C38.13 60 39.4938 59.5686 40.6555 58.7212C41.3517 58.2099 42.1696 57.9851 42.9578 58.0883C45.201 58.3817 47.4431 57.8082 49.2719 56.4741C51.1009 55.1398 52.3368 53.1753 52.7519 50.9427C52.8979 50.158 53.3636 49.4465 54.065 48.938C56.0942 47.4575 57.1111 44.9919 56.7187 42.5034C56.5127 41.1968 55.9381 40.0174 55.0937 39.0795C56.3261 38.8192 57.4817 38.205 58.4134 37.2693C60.1876 35.4877 60.8082 32.893 60.0322 30.495C59.7633 29.6725 59.8032 28.8221 60.1444 28.1009V28.1009ZM18.3646 7.70849C19.2148 6.03303 20.8399 5.03274 22.7091 5.03274C24.0213 5.03792 25.2489 4.56454 26.1557 3.70287C27.4708 2.45312 29.1913 1.76501 31.0007 1.76501C32.8101 1.76501 34.5307 2.45324 35.8458 3.70287C36.7488 4.5609 37.9662 5.03274 39.2727 5.03262H39.2897C41.1615 5.03262 42.7866 6.03279 43.6367 7.70826C44.4847 9.3796 44.3362 11.2825 43.2393 12.7988L39.0866 18.5387C38.904 14.2175 35.3472 10.758 30.9998 10.758C26.6518 10.758 23.0949 14.2182 22.913 18.5402L18.76 12.8005C17.6649 11.2829 17.5165 9.37984 18.3646 7.70849V7.70849ZM23.8267 28.1607C23.4066 27.5003 23.4313 26.6642 23.8896 26.0306C24.3481 25.3968 25.1326 25.1151 25.8878 25.3121C26.1418 25.3786 26.4127 25.3271 26.6254 25.1719C26.8379 25.0169 26.9703 24.7743 26.986 24.5109C27.0328 23.7286 27.5422 23.0668 28.2838 22.8247C29.026 22.5828 29.8253 22.8175 30.3208 23.4228C30.4878 23.6266 30.7368 23.7448 30.9996 23.7448C31.2625 23.7448 31.5115 23.6266 31.6785 23.4228C32.1741 22.8175 32.9739 22.5828 33.7155 22.8247C34.4571 23.0668 34.9666 23.7285 35.0134 24.5109C35.0291 24.7743 35.1615 25.0169 35.3741 25.1719C35.5866 25.3271 35.8573 25.3786 36.1116 25.3121C36.8675 25.1149 37.6513 25.3972 38.1097 26.0306C38.5681 26.6641 38.5928 27.5002 38.1728 28.1607C38.0312 28.3831 37.9963 28.6575 38.0775 28.9085C38.1587 29.1594 38.3476 29.3608 38.5923 29.4573C39.3186 29.7437 39.7881 30.4346 39.7881 31.2178C39.7881 32.001 39.3186 32.6919 38.5923 32.9783C38.3476 33.0748 38.1588 33.276 38.0775 33.5271C37.9962 33.7782 38.0311 34.0524 38.1726 34.2749C38.5928 34.9354 38.5681 35.7715 38.1097 36.405C37.6513 37.0386 36.867 37.3206 36.1117 37.1235C35.8577 37.0573 35.5867 37.1086 35.3741 37.2636C35.1614 37.4187 35.0291 37.6614 35.0134 37.9248C34.9666 38.7072 34.4571 39.3689 33.7155 39.611C32.974 39.8529 32.1743 39.6183 31.6785 39.0129C31.5115 38.8091 31.2625 38.691 30.9996 38.691C30.7368 38.691 30.4878 38.8091 30.3208 39.0129C29.8252 39.618 29.0258 39.8529 28.2838 39.611C27.5422 39.3691 27.0328 38.7072 26.986 37.9248C26.9703 37.6614 26.8379 37.4189 26.6254 37.2638C26.4129 37.1086 26.1422 37.0573 25.8878 37.1236C25.1326 37.3208 24.348 37.0388 23.8897 36.4052C23.4313 35.7715 23.4066 34.9354 23.8267 34.275C23.9682 34.0526 24.0031 33.7782 23.9219 33.5272C23.8407 33.2763 23.6518 33.0749 23.4072 32.9784C22.6807 32.692 22.2112 32.0011 22.2112 31.2179C22.2112 30.4347 22.6807 29.7438 23.4072 29.4574C23.6518 29.361 23.8406 29.1596 23.9219 28.9086C24.0032 28.6576 23.9682 28.3831 23.8267 28.1607V28.1607ZM36.1594 22.5846C35.7162 21.9201 35.0577 21.4067 34.2586 21.1461C33.1274 20.777 31.9267 20.9815 30.9996 21.6584C30.0728 20.9813 28.872 20.777 27.7407 21.1461C26.9419 21.4067 26.2834 21.9199 25.8403 22.5841C25.0692 21.5018 24.6617 20.2252 24.6617 18.8873C24.6617 15.378 27.5049 12.5231 30.9995 12.5231C34.4943 12.5231 37.3375 15.3782 37.3375 18.8873C37.3376 20.2257 36.9301 21.5025 36.1594 22.5846V22.5846ZM18.6546 37.4524C19.438 36.3698 20.5148 35.5775 21.7719 35.1568C21.7415 35.9559 21.9738 36.7598 22.4676 37.4424C23.1664 38.4082 24.2565 38.9515 25.402 38.9514C25.7577 40.0462 26.6095 40.9203 27.7407 41.2894C28.5395 41.5501 29.3726 41.5236 30.1199 41.2476C30.11 42.5783 29.6926 43.8517 28.9095 44.934C27.9144 46.3093 26.4456 47.2132 24.7735 47.4792C23.1012 47.7453 21.4262 47.3413 20.0567 46.342C18.6871 45.3428 17.787 43.8678 17.5221 42.1888C17.2575 40.5098 17.6595 38.8277 18.6546 37.4524V37.4524ZM31.8788 41.246C32.2756 41.3926 32.6958 41.4712 33.1233 41.4712C33.5011 41.4712 33.8835 41.4119 34.2585 41.2895C35.3898 40.9205 36.2416 40.0465 36.5952 38.9515C37.7426 38.9515 38.8328 38.4081 39.5316 37.4425C40.0254 36.7602 40.2576 35.9564 40.2273 35.1574C41.4847 35.5781 42.5617 36.3703 43.3447 37.4524C44.3398 38.8277 44.7419 40.5097 44.4771 42.1888C44.2122 43.868 43.3121 45.3429 41.9425 46.3421C40.5729 47.3414 38.8975 47.7456 37.2257 47.4793C35.5536 47.2133 34.0847 46.3095 33.0897 44.9341C32.3065 43.8516 31.8889 42.5784 31.8788 41.246V41.246ZM40.7706 33.4775C41.263 32.849 41.5457 32.0615 41.5457 31.2178C41.5457 30.0234 40.9812 28.9398 40.0535 28.2638C40.4083 27.1693 40.2309 25.9595 39.5317 24.9931C39.038 24.3107 38.3484 23.8405 37.5824 23.6226C38.3695 22.5517 39.4526 21.7681 40.7195 21.3547C42.3299 20.8293 44.047 20.9652 45.5555 21.7369C47.0638 22.5087 48.1826 23.8241 48.7058 25.4408C49.2289 27.0577 49.0938 28.7822 48.3253 30.2969C47.5567 31.8117 46.2467 32.935 44.6366 33.4604C43.3689 33.8739 42.0339 33.8793 40.7706 33.4775ZM3.63756 31.0439C4.04803 29.7885 3.97902 28.4736 3.44304 27.3414C2.66591 25.6992 2.5458 23.8434 3.10486 22.1154C3.66392 20.3875 4.84755 18.957 6.43743 18.0872C7.53376 17.4873 8.35928 16.4643 8.76109 15.2093C9.3396 13.4217 10.7891 12.1788 12.6387 11.8846C14.4838 11.591 16.24 12.321 17.3371 13.8372L21.4888 19.575C18.0445 18.6114 14.373 20.0241 12.4622 23.0885C12.2046 23.5017 12.3292 24.0462 12.7406 24.3049C13.152 24.5635 13.6944 24.4384 13.9519 24.0253C15.4961 21.5491 18.5092 20.451 21.28 21.3548C22.5475 21.7684 23.6309 22.5521 24.4175 23.6226C23.6512 23.8405 22.9615 24.3107 22.4676 24.9933C21.7684 25.9597 21.591 27.1696 21.9458 28.2639C21.0181 28.9399 20.4535 30.0235 20.4535 31.2179C20.4535 32.0615 20.7362 32.8488 21.2283 33.4772C19.965 33.8791 18.63 33.8739 17.3628 33.4604C14.5923 32.5564 12.7972 29.8895 12.9975 26.9747C13.0309 26.4885 12.6654 26.0672 12.1812 26.0335C11.6949 26.0006 11.2773 26.3669 11.2439 26.8532C10.9962 30.4606 13.1401 33.7709 16.4915 35.024L9.77421 37.2159C7.9986 37.7926 6.14999 37.3461 4.82915 36.0197C3.50503 34.69 3.05986 32.8289 3.63756 31.0439V31.0439ZM27.4606 57.695C25.792 58.5486 23.8915 58.3985 22.3797 57.2954C21.3177 56.5155 20.0512 56.1751 18.8128 56.3369C17.0181 56.5718 15.2227 56.113 13.7588 55.0449C12.295 53.977 11.3057 52.4047 10.9733 50.6176C10.7441 49.3851 10.0303 48.2807 8.96556 47.5089C7.45126 46.4041 6.72206 44.6358 7.015 42.7786C7.30713 40.9259 8.54126 39.4741 10.3162 38.8949L17.0352 36.7024C15.9098 38.4034 15.4662 40.4356 15.7862 42.4649C16.1246 44.6096 17.2742 46.4936 19.0237 47.7699C20.7732 49.0464 22.9128 49.5622 25.0486 49.2224C27.0699 48.9009 28.858 47.8486 30.1214 46.2477L30.1215 53.3419C30.1188 55.2161 29.125 56.8435 27.4606 57.695V57.695ZM53.0342 47.5086C51.9673 48.282 51.2536 49.3864 51.0244 50.6187C50.6919 52.4059 49.7028 53.9783 48.2389 55.0462C46.775 56.1142 44.9801 56.5729 43.1848 56.3382C41.947 56.1763 40.6803 56.5166 39.6203 57.2949C38.106 58.3997 36.2058 58.5496 34.5374 57.6961C32.873 56.8445 31.8792 55.2173 31.8791 53.3432L31.879 46.2489C33.1423 47.8493 34.9298 48.901 36.9508 49.2225C37.3797 49.2908 37.8084 49.3244 38.2345 49.3244C39.93 49.3244 41.5775 48.79 42.9757 47.77C44.7252 46.4937 45.8748 44.6096 46.2132 42.465C46.5334 40.4351 46.0892 38.4024 44.9633 36.7012L51.6824 38.8932C53.4566 39.475 54.6906 40.9269 54.9828 42.7797C55.2756 44.6369 54.5463 46.4053 53.0342 47.5086V47.5086ZM58.3616 31.0432C58.94 32.8308 58.4949 34.6918 57.1707 36.0214C55.85 37.3479 54.0017 37.794 52.2267 37.2149L45.5077 35.0229C47.4137 34.311 48.9624 32.9287 49.8913 31.0981C50.8731 29.1634 51.0458 26.9606 50.3774 24.8954C49.7093 22.8302 48.2801 21.15 46.3534 20.1643C44.5297 19.2312 42.4669 19.0271 40.5081 19.5768L44.6606 13.8372C45.7597 12.3225 47.5163 11.5933 49.3612 11.8861C51.2108 12.1804 52.6604 13.4233 53.238 15.2084C53.6407 16.4662 54.4661 17.4893 55.5626 18.0891C57.1525 18.9589 58.3361 20.3895 58.8951 22.1173C59.4542 23.8452 59.3341 25.7012 58.5568 27.3434C58.0211 28.4757 57.952 29.7906 58.3616 31.0432V31.0432Z" fill="black"/>
<path d="M30.9996 33.8653C32.4534 33.8653 33.6362 32.6777 33.6362 31.2178C33.6362 29.7579 32.4534 28.5703 30.9996 28.5703C29.5459 28.5703 28.3631 29.7579 28.3631 31.2178C28.3631 32.6777 29.5459 33.8653 30.9996 33.8653ZM30.9996 30.3353C31.4843 30.3353 31.8785 30.7311 31.8785 31.2178C31.8785 31.7045 31.4843 32.1003 30.9996 32.1003C30.515 32.1003 30.1208 31.7045 30.1208 31.2178C30.1208 30.7311 30.515 30.3353 30.9996 30.3353Z" fill="black"/>
<path d="M30.9996 37.3953C34.3917 37.3953 37.1515 34.6241 37.1515 31.2178C37.1515 27.8114 34.3917 25.0403 30.9996 25.0403C27.6076 25.0403 24.8478 27.8114 24.8478 31.2178C24.8478 34.6241 27.6076 37.3953 30.9996 37.3953ZM30.9996 26.8053C33.4227 26.8053 35.3939 28.7847 35.3939 31.2178C35.3939 33.6509 33.4227 35.6303 30.9996 35.6303C28.5766 35.6303 26.6054 33.6509 26.6054 31.2178C26.6054 28.7847 28.5766 26.8053 30.9996 26.8053Z" fill="black"/>
<defs>
<clipPath id="clip0">
<rect width="30" height="30" fill="white" transform="matrix(-1 0 0 1 30 75)"/>
</clipPath>
</defs>
</svg>
